<svg width="80" height="73" viewBox="0 0 80 73" fill="none" xmlns="http://www.w3.org/2000/svg">
<g clip-path="url(#clip0_1_454)">
<mask id="mask0_1_454" style="mask-type:luminance" maskUnits="userSpaceOnUse" x="0" y="0" width="80" height="73">
<path d="M80 0H0V73H80V0Z" fill="white"/>
</mask>
<g mask="url(#mask0_1_454)">
<path d="M40 1.35197C47.8058 1.35879 55.3864 3.96855 61.5421 8.76825C67.6979 13.5679 72.0772 20.2834 73.987 27.852H75.378C73.457 19.917 68.9241 12.8582 62.5078 7.80984C56.0914 2.76153 48.1642 0.0168457 40 0.0168457C31.8358 0.0168457 23.9086 2.76153 17.4923 7.80984C11.0759 12.8582 6.54304 19.917 4.62201 27.852H6.01301C7.92285 20.2834 12.3022 13.5679 18.4579 8.76825C24.6136 3.96855 32.1942 1.35879 40 1.35197ZM40 71.652C32.1942 71.6451 24.6136 69.0354 18.4579 64.2357C12.3022 59.436 7.92285 52.7205 6.01301 45.152H4.62201C6.54304 53.087 11.0759 60.1458 17.4923 65.1941C23.9086 70.2424 31.8358 72.9871 40 72.9871C48.1642 72.9871 56.0914 70.2424 62.5078 65.1941C68.9241 60.1458 73.457 53.087 75.378 45.152H73.987C72.0764 52.7198 67.6968 59.4344 61.5411 64.2333C55.3854 69.0322 47.8053 71.6414 40 71.648" fill="#008F4A"/>
</g>
<mask id="mask1_1_454" style="mask-type:luminance" maskUnits="userSpaceOnUse" x="9" y="6" width="61" height="61">
<path d="M10.652 36.5C10.6664 30.8721 12.3485 25.3746 15.4857 20.7022C18.623 16.0298 23.0746 12.3919 28.2783 10.2482C33.482 8.10456 39.2043 7.5512 44.7224 8.65807C50.2404 9.76494 55.3066 12.4824 59.281 16.4671C63.2554 20.4518 65.9597 25.5251 67.0523 31.046C68.1448 36.5669 67.5766 42.2877 65.4194 47.4859C63.2622 52.684 59.6128 57.1262 54.9323 60.2513C50.2517 63.3764 44.7499 65.0442 39.122 65.044C31.5617 65.0334 24.3152 62.0203 18.9762 56.6675C13.6372 51.3146 10.643 44.0603 10.652 36.5ZM9.12197 36.5C9.13719 42.4438 10.9136 48.2497 14.2269 53.1844C17.5402 58.1191 22.2416 61.9611 27.7373 64.2252C33.233 66.4892 39.2765 67.0737 45.1042 65.9048C50.9319 64.7359 56.2825 61.8661 60.48 57.6578C64.6776 53.4495 67.5337 48.0916 68.6877 42.2609C69.8417 36.4302 69.2418 30.3883 66.9637 24.8984C64.6856 19.4085 60.8315 14.7169 55.8884 11.4162C50.9452 8.11561 45.1348 6.35402 39.191 6.354C35.2372 6.35899 31.3231 7.1427 27.6722 8.66039C24.0213 10.1781 20.7051 12.4 17.9129 15.1994C15.1207 17.9987 12.9072 21.3206 11.3989 24.9754C9.89055 28.6301 9.11685 32.5462 9.12197 36.5Z" fill="white"/>
</mask>
<g mask="url(#mask1_1_454)">
<path d="M69.2599 6.354H9.12195V66.646H69.2599V6.354Z" fill="url(#paint0_linear_1_454)"/>
</g>
<mask id="mask2_1_454" style="mask-type:luminance" maskUnits="userSpaceOnUse" x="0" y="0" width="80" height="73">
<path d="M80 0H0V73H80V0Z" fill="white"/>
</mask>
<g mask="url(#mask2_1_454)">
<path d="M77.358 36.5L80 30.637H71.832C70.481 23.1787 66.5541 16.4316 60.7364 11.573C54.9187 6.71448 47.5797 4.05298 40 4.05298C32.4203 4.05298 25.0813 6.71448 19.2636 11.573C13.4459 16.4316 9.51897 23.1787 8.168 30.637H0L2.641 36.5L0 42.369H8.169C9.52224 49.8252 13.45 56.5697 19.2673 61.4262C25.0845 66.2827 32.422 68.9429 40 68.9429C47.578 68.9429 54.9155 66.2827 60.7327 61.4262C66.55 56.5697 70.4778 49.8252 71.831 42.369H80L77.358 36.5ZM40 66.646C34.0341 66.6617 28.1977 64.9068 23.2297 61.6037C18.2616 58.3006 14.3853 53.5977 12.0914 48.0904C9.7976 42.5831 9.18937 36.519 10.3437 30.6658C11.4981 24.8127 14.3632 19.4336 18.5763 15.2096C22.7893 10.9856 28.161 8.10661 34.0111 6.93707C39.8613 5.76754 45.9269 6.36006 51.4401 8.63963C56.9534 10.9192 61.6663 14.7833 64.9823 19.7428C68.2982 24.7023 70.0682 30.5341 70.068 36.5C70.0731 40.4537 69.2995 44.3697 67.7912 48.0244C66.2829 51.6792 64.0695 55.001 61.2774 57.8003C58.4854 60.5996 55.1693 62.8216 51.5185 64.3393C47.8677 65.8571 43.9537 66.6409 40 66.646Z" fill="#283583"/>
<path d="M55.485 37.7741C54.8523 38.4055 54.1846 39.0008 53.485 39.5571C53.225 39.7281 53.274 39.9911 53.364 40.2241C53.4534 40.5581 53.4692 40.9075 53.4103 41.2483C53.3515 41.589 53.2194 41.9129 53.0231 42.1975C52.8269 42.4822 52.5712 42.7209 52.2737 42.8971C51.9762 43.0733 51.644 43.1828 51.3 43.2181C51.1534 43.1987 51.0049 43.2369 50.8859 43.3248C50.7669 43.4126 50.6866 43.5432 50.662 43.6891C50.5735 44.1552 50.3388 44.581 49.992 44.9046C49.6451 45.2283 49.2041 45.433 48.733 45.4891C48.5584 45.509 48.3944 45.5832 48.2641 45.7013C48.1339 45.8193 48.044 45.9753 48.007 46.1471C47.8935 46.621 47.6188 47.0407 47.2298 47.3342C46.8408 47.6278 46.3619 47.7769 45.875 47.7561C45.7198 47.7456 45.5645 47.7756 45.4242 47.8431C45.284 47.9106 45.1637 48.0132 45.075 48.1411C44.6327 48.757 44.0116 49.2217 43.2959 49.4722C42.5802 49.7227 41.8048 49.7467 41.075 49.5411C40.2859 49.3816 39.5066 49.1769 38.741 48.9281C38.6125 48.861 38.4633 48.8448 38.3234 48.8828C38.1834 48.9208 38.063 49.0102 37.986 49.1331C37.7495 49.4402 37.4393 49.6826 37.084 49.8377C36.7288 49.9928 36.3402 50.0556 35.9542 50.0202C35.5682 49.9849 35.1974 49.8526 34.8762 49.6356C34.555 49.4187 34.2939 49.124 34.117 48.7791C34.0515 48.6174 33.9335 48.4825 33.7821 48.3958C33.6307 48.3091 33.4546 48.2758 33.282 48.3011C32.7976 48.3396 32.3136 48.2228 31.9 47.9677C31.4865 47.7125 31.1649 47.3323 30.982 46.8821C30.921 46.7296 30.8132 46.6004 30.6742 46.5131C30.5351 46.4257 30.3719 46.3848 30.208 46.3961C29.6794 46.3614 29.1767 46.1544 28.777 45.8067C28.3773 45.459 28.1026 44.9898 27.995 44.4711C27.9696 44.256 27.8817 44.0531 27.7421 43.8875C27.6026 43.7219 27.4176 43.6007 27.21 43.5391C26.8763 43.4221 26.5722 43.2333 26.3192 42.9862C26.0661 42.739 25.8703 42.4395 25.7454 42.1086C25.6206 41.7776 25.5697 41.4234 25.5964 41.0707C25.6231 40.718 25.7268 40.3755 25.9 40.0671C25.9891 39.942 26.0303 39.789 26.016 39.6361C26.0017 39.4832 25.9328 39.3405 25.822 39.2341C25.4363 38.6862 25.0116 38.1668 24.551 37.6801C24.6903 37.1982 24.9611 36.7647 25.333 36.4281C25.778 36.9851 26.233 37.5371 26.665 38.1031C26.6944 38.1627 26.7363 38.2151 26.7878 38.257C26.8394 38.2988 26.8994 38.3289 26.9637 38.3454C27.028 38.3618 27.0952 38.3641 27.1605 38.3522C27.2258 38.3402 27.2877 38.3143 27.342 38.2761C27.5789 38.1023 27.8481 37.9776 28.1339 37.9095C28.4197 37.8415 28.7162 37.8313 29.006 37.8797C29.2958 37.928 29.573 38.034 29.8211 38.1912C30.0693 38.3484 30.2835 38.5538 30.451 38.7951C30.771 39.1311 30.941 39.0481 31.171 38.7381C31.4327 38.3688 31.8267 38.1145 32.271 38.0281C32.6063 37.9592 32.9522 37.9594 33.2874 38.0286C33.6227 38.0977 33.9404 38.2344 34.2211 38.4304C34.5018 38.6263 34.7396 38.8773 34.9201 39.1682C35.1007 39.459 35.22 39.7836 35.271 40.1221C35.322 40.4011 35.353 40.6291 35.688 40.7221C36.2024 40.8491 36.6615 41.1401 36.996 41.5511C37.3304 41.962 37.5221 42.4706 37.542 43.0001C37.566 43.2221 37.532 43.5151 37.768 43.5931C38.4896 43.8449 39.0967 44.3474 39.479 45.0091C40.079 44.1011 40.163 44.0731 41.052 44.4921C42.243 45.0531 43.439 45.6071 44.616 46.1921C44.9186 46.333 45.2473 46.4086 45.581 46.4141C45.838 46.4626 46.1038 46.4076 46.3204 46.2612C46.5371 46.1147 46.6872 45.8886 46.738 45.6321C46.9 45.0421 46.361 44.9891 46.053 44.8051C44.673 43.9781 43.275 43.1791 41.88 42.3761C41.7901 42.3409 41.7091 42.2864 41.6426 42.2163C41.5762 42.1463 41.5259 42.0625 41.4955 41.9709C41.465 41.8793 41.4551 41.7821 41.4665 41.6862C41.4778 41.5903 41.5101 41.4981 41.561 41.4161C41.6037 41.3292 41.6657 41.2533 41.7423 41.1941C41.8189 41.135 41.9081 41.0942 42.0029 41.0749C42.0977 41.0555 42.1957 41.0582 42.2894 41.0827C42.383 41.1072 42.4698 41.1528 42.543 41.2161C42.824 41.3971 43.126 41.5451 43.416 41.7161C44.792 42.5041 46.162 43.3051 47.547 44.0781C47.8298 44.2157 48.1516 44.2511 48.4576 44.1782C48.7635 44.1052 49.0347 43.9285 49.225 43.6781C49.535 43.1471 49.37 42.7781 48.625 42.3221C47.0177 41.3508 45.4097 40.3808 43.801 39.4121C43.368 39.1521 43.068 38.8121 43.389 38.3211C43.689 37.8611 44.109 38.0291 44.505 38.2671C46.343 39.3711 48.184 40.4711 50.028 41.5671C50.812 42.0301 51.553 41.9671 51.898 41.4461C52.243 40.9251 52.059 40.3311 51.35 39.7151C51.283 39.6571 51.216 39.5971 51.15 39.5411C47.8152 36.7904 44.2011 34.397 40.367 32.4001C40.1758 32.274 39.9611 32.1878 39.7358 32.1467C39.5105 32.1056 39.2792 32.1104 39.0558 32.1609C38.8323 32.2115 38.6215 32.3066 38.4357 32.4407C38.25 32.5748 38.0933 32.745 37.975 32.9411C37.6136 33.3985 37.2005 33.8126 36.744 34.1751C36.2233 34.6376 35.6113 34.9856 34.9476 35.1967C34.2839 35.4077 33.5832 35.477 32.891 35.4001C32.5855 35.3825 32.297 35.2533 32.0804 35.0371C31.8638 34.8209 31.7341 34.5326 31.716 34.2271C31.627 33.5545 31.7848 32.8724 32.16 32.3071C32.595 31.6311 33.04 30.9611 33.479 30.2871C33.615 30.0771 33.812 29.7871 33.379 29.7511C32.1625 29.5653 30.9887 29.1651 29.912 28.5691C29.9368 28.3252 30.0109 28.0889 30.1299 27.8745C30.2488 27.6601 30.4102 27.4722 30.604 27.3221C31.7066 28.0124 32.9669 28.4103 34.266 28.4781C34.502 28.4961 34.735 28.5131 34.878 28.3111C35.715 27.1361 37.035 27.0011 38.278 26.8411C40.3532 26.4727 42.4752 26.4524 44.557 26.7811C45.497 26.9741 46.441 27.1521 47.377 27.3651C48.0787 27.5056 48.7936 27.5693 49.509 27.5551C50.021 27.8551 50.144 28.4061 50.361 28.8961C49.0186 29.0052 47.6673 28.8934 46.361 28.5651C43.3554 27.7897 40.2084 27.7406 37.18 28.4221C36.9256 28.4595 36.6819 28.5501 36.4648 28.6879C36.2477 28.8257 36.0621 29.0078 35.92 29.2221C35.157 30.3781 34.349 31.5031 33.576 32.6531C33.311 33.0451 32.812 33.5261 33.205 33.9441C33.527 34.2861 34.129 34.0361 34.597 33.8561C35.6494 33.3989 36.5508 32.6532 37.197 31.7051C37.6188 31.2583 38.1648 30.9481 38.7646 30.8144C39.3643 30.6807 39.9904 30.7297 40.562 30.9551C44.5493 32.9833 48.3015 35.4438 51.751 38.2921C51.8216 38.3691 51.9071 38.4308 52.0022 38.4737C52.0974 38.5166 52.2003 38.5397 52.3047 38.5416C52.4091 38.5434 52.5128 38.5241 52.6095 38.4846C52.7061 38.4452 52.7938 38.3865 52.867 38.3121C53.5097 37.759 54.1217 37.1712 54.7 36.5511C55.186 36.8151 55.283 37.3271 55.482 37.7741M32.882 39.3471C32.7607 39.3286 32.6366 39.3412 32.5214 39.3839C32.4063 39.4266 32.304 39.4979 32.224 39.5911C31.278 40.8591 30.313 42.1151 29.406 43.4111C29.3329 43.5383 29.2867 43.6791 29.2704 43.8249C29.2541 43.9707 29.2681 44.1183 29.3113 44.2585C29.3546 44.3986 29.4262 44.5284 29.5218 44.6396C29.6174 44.7509 29.735 44.8413 29.867 44.9051C30.398 45.2271 30.767 45.0241 31.106 44.5531C31.952 43.3781 32.823 42.2201 33.706 41.0691C33.8345 40.9283 33.9149 40.7504 33.9357 40.561C33.9566 40.3716 33.9168 40.1804 33.822 40.0151C33.7497 39.8236 33.6221 39.6579 33.4555 39.539C33.2888 39.4201 33.0906 39.3533 32.886 39.3471M35.047 41.9761C34.8379 41.9984 34.6431 42.0928 34.496 42.2431C33.713 43.3041 32.913 44.3521 32.166 45.4381C32.1072 45.5605 32.0735 45.6935 32.0669 45.8291C32.0603 45.9648 32.0809 46.1004 32.1275 46.228C32.1741 46.3556 32.2457 46.4725 32.3382 46.572C32.4307 46.6714 32.5422 46.7514 32.666 46.8071C32.756 46.8756 32.859 46.9251 32.9687 46.9525C33.0784 46.98 33.1925 46.9849 33.3042 46.967C33.4158 46.949 33.5227 46.9086 33.6182 46.8481C33.7138 46.7876 33.796 46.7083 33.86 46.6151C34.584 45.6498 35.2997 44.6781 36.007 43.7001C36.1234 43.5326 36.1877 43.3346 36.192 43.1307C36.1962 42.9269 36.1402 42.7263 36.031 42.5541C35.9315 42.3811 35.7888 42.2369 35.6168 42.1356C35.4449 42.0343 35.2496 41.9793 35.05 41.9761M39.585 45.2661C39.7402 45.989 39.6394 46.7433 39.3 47.4001C39.16 47.6301 39.335 47.7061 39.533 47.7551C40.184 47.9151 40.825 48.1331 41.484 48.2341C41.8206 48.327 42.174 48.3413 42.5169 48.2759C42.8599 48.2105 43.1832 48.0673 43.462 47.8571C43.792 47.5701 43.962 47.3761 43.396 47.1191C42.158 46.5611 40.951 45.9361 39.588 45.2681M36.265 48.6681C36.3697 48.6679 36.4732 48.6452 36.5683 48.6013C36.6634 48.5575 36.7479 48.4936 36.816 48.4141C37.283 47.8141 37.755 47.2141 38.174 46.5851C38.3046 46.3329 38.3366 46.0411 38.2637 45.7665C38.1909 45.492 38.0185 45.2544 37.78 45.1001C37.6772 45.0193 37.5579 44.9623 37.4305 44.9329C37.3032 44.9035 37.1709 44.9026 37.0431 44.9302C36.9153 44.9578 36.7952 45.0132 36.6913 45.0926C36.5874 45.1719 36.5023 45.2731 36.442 45.3891C36.0124 45.9309 35.6141 46.4968 35.249 47.0841C35.1712 47.2538 35.1373 47.4403 35.1505 47.6265C35.1636 47.8127 35.2234 47.9926 35.3242 48.1496C35.4251 48.3067 35.5639 48.4358 35.7278 48.5252C35.8916 48.6146 36.0754 48.6613 36.262 48.6611M28.13 42.3611C28.252 42.3532 28.3699 42.3147 28.473 42.2491C28.9578 41.816 29.3497 41.289 29.625 40.7001C29.7161 40.4432 29.7059 40.1612 29.5965 39.9115C29.4871 39.6619 29.2867 39.4633 29.036 39.3561C28.5 39.0661 28.136 39.3021 27.824 39.7131C27.581 40.0331 27.337 40.3551 27.124 40.6971C27.0312 40.8695 26.9848 41.063 26.9894 41.2588C26.994 41.4545 27.0495 41.6456 27.1504 41.8134C27.2513 41.9812 27.3941 42.1198 27.5648 42.2157C27.7355 42.3115 27.9282 42.3613 28.124 42.3601" fill="#283583"/>
<path d="M25.337 36.4269C24.9652 36.764 24.6944 37.1978 24.555 37.6799C24.5021 37.7514 24.4533 37.8258 24.409 37.9029C23.431 39.8179 22.66 39.4619 21.322 38.6369C20.732 38.2739 20.122 37.9419 19.522 37.5869C19.3129 37.5133 19.1248 37.39 18.9738 37.2276C18.8229 37.0652 18.7136 36.8685 18.6555 36.6546C18.5974 36.4406 18.5921 36.2157 18.6401 35.9993C18.688 35.7828 18.7879 35.5813 18.931 35.4119C20.639 32.4479 22.3523 29.4869 24.071 26.5289C24.587 25.6389 25.09 24.7429 25.61 23.8559C25.6877 23.6483 25.8138 23.4622 25.978 23.3132C26.1422 23.1642 26.3396 23.0566 26.5538 22.9993C26.7679 22.9421 26.9927 22.9369 27.2093 22.9841C27.4259 23.0313 27.6281 23.1297 27.799 23.2709C28.558 23.6989 29.307 24.1469 30.066 24.5759C31.176 25.2029 31.334 25.7249 30.758 26.8759C30.6966 27.0198 30.6445 27.1674 30.602 27.3179C30.4081 27.4679 30.2467 27.6558 30.1277 27.8702C30.0087 28.0846 29.9347 28.321 29.91 28.5649C29.653 28.6649 29.577 28.9209 29.459 29.1249C28.597 30.6016 27.7443 32.0839 26.901 33.5719C26.3064 34.4812 25.7822 35.4347 25.333 36.4239M27.065 24.4239C26.794 24.4349 26.724 24.6329 26.623 24.8079C24.499 28.4779 22.3717 32.1446 20.241 35.8079C20.021 36.1849 20.1 36.4079 20.472 36.6019C21.102 36.9389 21.724 37.2919 22.331 37.6689C22.3896 37.7218 22.4604 37.7593 22.5371 37.7781C22.6138 37.7969 22.6939 37.7963 22.7704 37.7765C22.8468 37.7567 22.9171 37.7182 22.975 37.6645C23.0329 37.6109 23.0765 37.5436 23.102 37.4689C23.358 37.0239 23.602 36.5749 23.862 36.1299C25.716 32.9199 27.562 29.7059 29.433 26.5039C29.68 26.0819 29.684 25.8499 29.207 25.6159C28.627 25.3309 28.088 24.9639 27.528 24.6399C27.374 24.5509 27.207 24.4869 27.065 24.4199" fill="#008F4A"/>
<path d="M50.361 28.8941C50.145 28.4051 50.021 27.8561 49.509 27.5541C49.382 27.2691 49.264 26.9791 49.125 26.7001C49.0146 26.5359 48.9412 26.3497 48.9101 26.1544C48.8789 25.959 48.8907 25.7593 48.9445 25.5689C48.9984 25.3786 49.0931 25.2022 49.222 25.0522C49.3509 24.9022 49.511 24.782 49.691 24.7001C50.515 24.2067 51.3484 23.7284 52.191 23.2651C52.3613 23.1227 52.5634 23.0234 52.7801 22.9755C52.9968 22.9276 53.2219 22.9325 53.4364 22.9899C53.6508 23.0472 53.8483 23.1553 54.0122 23.305C54.1761 23.4548 54.3015 23.6417 54.378 23.8501C56.2733 27.1127 58.1614 30.3794 60.042 33.6501C60.421 34.3071 60.808 34.9611 61.164 35.6301C61.27 35.7837 61.3406 35.9588 61.3708 36.1429C61.401 36.327 61.39 36.5156 61.3387 36.6949C61.2874 36.8743 61.1969 37.0401 61.0738 37.1803C60.9508 37.3206 60.7982 37.4318 60.627 37.5061C59.7797 38.0054 58.926 38.4944 58.066 38.9731C57.051 39.5381 56.518 39.3881 55.891 38.3911C55.759 38.1831 55.621 37.9801 55.491 37.7741C55.291 37.3281 55.191 36.8161 54.708 36.5521C54.5325 35.9545 54.2488 35.3942 53.871 34.8991C52.715 32.8911 51.536 30.8991 50.366 28.8991M57.354 37.8141C57.4335 37.7931 57.5109 37.7647 57.585 37.7291C58.28 37.3291 58.967 36.9061 59.669 36.5141C59.924 36.3721 59.977 36.2201 59.832 35.9781C59.732 35.8061 59.632 35.6291 59.532 35.4551C57.525 31.9711 55.507 28.4931 53.52 24.9971C53.203 24.4391 52.911 24.3231 52.373 24.6921C51.834 25.0533 51.2744 25.3829 50.697 25.6791C50.358 25.8581 50.297 26.0581 50.48 26.3791C52.6134 30.0697 54.7487 33.7614 56.886 37.4541C56.986 37.6231 57.086 37.8131 57.353 37.8161" fill="#008F4A"/>
</g>
</g>
<defs>
<linearGradient id="paint0_linear_1_454" x1="-0.0190279" y1="72.9767" x2="1.00332" y2="72.9767" gradientUnits="userSpaceOnUse">
<stop stop-color="#E5E5E6"/>
<stop offset="1" stop-color="#E8E8E8"/>
</linearGradient>
<clipPath id="clip0_1_454">
<rect width="80" height="73" fill="white"/>
</clipPath>
</defs>
</svg>
