<svg width="80" height="73" viewBox="0 0 80 73" fill="none" xmlns="http://www.w3.org/2000/svg">
<g clip-path="url(#clip0_1_478)">
<mask id="mask0_1_478" style="mask-type:luminance" maskUnits="userSpaceOnUse" x="0" y="0" width="80" height="73">
<path d="M80 0H0V73H80V0Z" fill="white"/>
</mask>
<g mask="url(#mask0_1_478)">
<path d="M70.8399 36.4999C70.8399 42.5995 69.0312 48.5621 65.6425 53.6337C62.2537 58.7053 57.4372 62.6582 51.8019 64.9924C46.1666 67.3266 39.9657 67.9373 33.9833 66.7473C28.001 65.5574 22.5058 62.6201 18.1928 58.3071C13.8797 53.994 10.9425 48.4989 9.75251 42.5165C8.56254 36.5341 9.17327 30.3332 11.5075 24.698C13.8417 19.0627 17.7945 14.2461 22.8661 10.8574C27.9378 7.46865 33.9003 5.65991 39.9999 5.65991C48.1791 5.66018 56.0232 8.90947 61.8068 14.693C67.5904 20.4766 70.8397 28.3207 70.8399 36.4999Z" fill="white"/>
<path d="M39.9999 1.35197C47.8057 1.35879 55.3863 3.96855 61.5421 8.76825C67.6978 13.5679 72.0771 20.2834 73.9869 27.852H75.3779C73.4569 19.917 68.924 12.8582 62.5077 7.80984C56.0914 2.76153 48.1642 0.0168457 39.9999 0.0168457C31.8357 0.0168457 23.9085 2.76153 17.4922 7.80984C11.0759 12.8582 6.54298 19.917 4.62195 27.852H6.01295C7.92279 20.2834 12.3021 13.5679 18.4578 8.76825C24.6136 3.96855 32.1942 1.35879 39.9999 1.35197ZM39.9999 71.652C32.1942 71.6451 24.6136 69.0354 18.4578 64.2357C12.3021 59.436 7.92279 52.7205 6.01295 45.152H4.62195C6.54298 53.087 11.0759 60.1458 17.4922 65.1941C23.9085 70.2424 31.8357 72.9871 39.9999 72.9871C48.1642 72.9871 56.0914 70.2424 62.5077 65.1941C68.924 60.1458 73.4569 53.087 75.3779 45.152H73.9869C72.0763 52.7198 67.6967 59.4344 61.541 64.2333C55.3854 69.0322 47.8052 71.6414 39.9999 71.648" fill="#008F4A"/>
</g>
<mask id="mask1_1_478" style="mask-type:luminance" maskUnits="userSpaceOnUse" x="9" y="6" width="61" height="61">
<path d="M10.652 36.5C10.6664 30.8721 12.3485 25.3746 15.4857 20.7022C18.623 16.0298 23.0746 12.3919 28.2783 10.2482C33.482 8.10456 39.2043 7.5512 44.7224 8.65807C50.2404 9.76494 55.3066 12.4824 59.281 16.4671C63.2554 20.4518 65.9597 25.5251 67.0523 31.046C68.1448 36.5669 67.5766 42.2877 65.4194 47.4859C63.2622 52.684 59.6128 57.1262 54.9323 60.2513C50.2517 63.3764 44.7499 65.0442 39.122 65.044C31.5617 65.0334 24.3152 62.0203 18.9762 56.6675C13.6372 51.3146 10.643 44.0603 10.652 36.5ZM9.12197 36.5C9.13719 42.4438 10.9136 48.2497 14.2269 53.1844C17.5402 58.1191 22.2416 61.9611 27.7373 64.2252C33.233 66.4892 39.2765 67.0737 45.1042 65.9048C50.9319 64.7359 56.2825 61.8661 60.48 57.6578C64.6776 53.4495 67.5337 48.0916 68.6877 42.2609C69.8417 36.4302 69.2418 30.3883 66.9637 24.8984C64.6856 19.4085 60.8315 14.7169 55.8884 11.4162C50.9452 8.11561 45.1348 6.35402 39.191 6.354C35.2372 6.35899 31.3231 7.1427 27.6722 8.66039C24.0213 10.1781 20.7051 12.4 17.9129 15.1994C15.1207 17.9987 12.9072 21.3206 11.3989 24.9754C9.89055 28.6301 9.11685 32.5462 9.12197 36.5Z" fill="white"/>
</mask>
<g mask="url(#mask1_1_478)">
<path d="M69.2599 6.354H9.12195V66.646H69.2599V6.354Z" fill="url(#paint0_linear_1_478)"/>
</g>
<mask id="mask2_1_478" style="mask-type:luminance" maskUnits="userSpaceOnUse" x="0" y="0" width="80" height="73">
<path d="M80 0H0V73H80V0Z" fill="white"/>
</mask>
<g mask="url(#mask2_1_478)">
<path d="M77.358 36.5L80 30.637H71.832C70.481 23.1787 66.5541 16.4316 60.7364 11.573C54.9187 6.71448 47.5797 4.05298 40 4.05298C32.4203 4.05298 25.0813 6.71448 19.2636 11.573C13.4459 16.4316 9.51897 23.1787 8.168 30.637H0L2.641 36.5L0 42.369H8.169C9.52224 49.8252 13.45 56.5697 19.2673 61.4262C25.0845 66.2827 32.422 68.9429 40 68.9429C47.578 68.9429 54.9155 66.2827 60.7327 61.4262C66.55 56.5697 70.4778 49.8252 71.831 42.369H80L77.358 36.5ZM40 66.646C34.0341 66.6617 28.1977 64.9068 23.2297 61.6037C18.2616 58.3006 14.3853 53.5977 12.0914 48.0904C9.7976 42.5831 9.18937 36.519 10.3437 30.6658C11.4981 24.8127 14.3632 19.4336 18.5763 15.2096C22.7893 10.9856 28.161 8.10661 34.0111 6.93707C39.8613 5.76754 45.9269 6.36006 51.4401 8.63963C56.9534 10.9192 61.6663 14.7833 64.9823 19.7428C68.2982 24.7023 70.0682 30.5341 70.068 36.5C70.0731 40.4537 69.2995 44.3697 67.7912 48.0244C66.2829 51.6792 64.0695 55.001 61.2774 57.8003C58.4854 60.5996 55.1693 62.8216 51.5185 64.3393C47.8677 65.8571 43.9537 66.6409 40 66.646Z" fill="#283583"/>
<path d="M40.309 52.6C36.8346 52.6904 33.425 51.6491 30.594 49.633C30.4806 49.5603 30.373 49.4791 30.272 49.39C30.018 49.142 29.81 48.872 30.083 48.511C30.1326 48.435 30.1986 48.371 30.276 48.3237C30.3534 48.2763 30.4405 48.2468 30.5307 48.2372C30.621 48.2277 30.7123 48.2383 30.7979 48.2684C30.8836 48.2984 30.9615 48.3471 31.026 48.411C32.0047 49.1289 33.0663 49.7262 34.188 50.19C39.864 52.349 45.105 51.579 49.76 47.658C51.2263 46.4198 52.4342 44.9047 53.3145 43.1993C54.1947 41.4938 54.7301 39.6316 54.89 37.719C54.941 37.256 54.776 37.102 54.341 37.119C53.9816 37.141 53.6211 37.139 53.262 37.113C52.604 37.055 52.321 36.523 52.736 36.033C54.085 34.433 55.466 32.866 56.856 31.304C57.196 30.922 57.607 31.038 57.913 31.384C59.237 32.884 60.547 34.396 61.861 35.905C61.9712 36.0025 62.0483 36.132 62.0815 36.2754C62.1147 36.4188 62.1022 36.569 62.046 36.705C61.9722 36.8444 61.8584 36.9585 61.7192 37.0326C61.58 37.1068 61.4218 37.1376 61.265 37.121C59.765 37.185 59.813 37.196 59.607 38.665C58.446 46.941 53.967 52.684 46.047 55.247C37.861 57.897 30.738 55.694 24.938 49.338C23.5446 47.771 22.4459 45.9649 21.695 44.007C21.528 43.59 21.509 43.237 21.958 43.048C22.449 42.84 22.696 43.156 22.871 43.571C24.3997 47.3595 27.1639 50.5202 30.715 52.54C32.7195 53.7357 34.9399 54.5246 37.2494 54.8618C39.559 55.1989 41.9123 55.0777 44.175 54.505C50.9 52.841 55.334 48.605 57.619 42.105C58.1982 40.4197 58.4949 38.6502 58.497 36.868C58.504 36.027 58.62 35.913 59.461 35.834C59.61 35.82 59.803 35.879 59.868 35.686C59.917 35.544 59.788 35.441 59.701 35.341C59.023 34.56 58.341 33.782 57.665 32.999C57.428 32.725 57.226 32.76 57.002 33.02C56.342 33.786 55.669 34.542 55.012 35.311C54.92 35.418 54.742 35.529 54.83 35.711C54.918 35.893 55.109 35.811 55.257 35.825C56.023 35.889 56.175 36.055 56.168 36.837C56.0733 40.0239 55.0456 43.1129 53.2122 45.7212C51.3789 48.3296 48.8204 50.3427 45.854 51.511C45.0362 51.8214 44.1983 52.0756 43.346 52.272C42.3518 52.5106 41.3312 52.6212 40.309 52.601" fill="#283583"/>
<path d="M39.4491 20.1231C42.996 20.0278 46.4791 21.08 49.3801 23.1231C49.491 23.1994 49.5978 23.2815 49.7001 23.3691C50.0001 23.6301 50.1821 23.9341 49.8891 24.3011C49.8336 24.3735 49.7633 24.4333 49.6829 24.4764C49.6025 24.5195 49.5138 24.545 49.4228 24.5512C49.3317 24.5573 49.2404 24.544 49.155 24.5121C49.0695 24.4802 48.9918 24.4304 48.9271 24.3661C48.2028 23.8368 47.4358 23.3685 46.6341 22.9661C44.7829 22.0467 42.7614 21.5208 40.6969 21.4216C38.6324 21.3223 36.5698 21.6518 34.639 22.3893C32.7082 23.1268 30.9511 24.2564 29.4785 25.7067C28.006 27.1571 26.8498 28.8968 26.0831 30.8161C25.5628 32.1817 25.2122 33.6061 25.0391 35.0571C24.9601 35.6151 25.0881 35.9231 25.7391 35.8441C26.0973 35.8051 26.4588 35.8051 26.8171 35.8441C26.9429 35.8384 27.0675 35.871 27.1746 35.9375C27.2816 36.004 27.3659 36.1013 27.4166 36.2166C27.4672 36.332 27.4818 36.46 27.4583 36.5838C27.4348 36.7075 27.3744 36.8213 27.2851 36.9101C25.9441 38.4841 24.5741 40.0331 23.2041 41.5831C23.1417 41.6725 23.0583 41.7451 22.9611 41.7943C22.8639 41.8436 22.756 41.868 22.6471 41.8654C22.5381 41.8629 22.4315 41.8334 22.3368 41.7796C22.242 41.7258 22.1621 41.6493 22.1041 41.5571C20.7641 40.0405 19.4307 38.5175 18.1041 36.9881C17.9985 36.8839 17.9293 36.7484 17.9068 36.6018C17.8843 36.4552 17.9096 36.3052 17.9791 36.1741C18.0474 36.0575 18.1478 35.9629 18.2684 35.9018C18.389 35.8406 18.5246 35.8154 18.6591 35.8291C20.1591 35.7481 20.1591 35.7441 20.3591 34.2731C20.6946 30.9431 21.8871 27.7567 23.8203 25.0246C25.7534 22.2924 28.3614 20.1076 31.3901 18.6831C35.2494 16.7016 39.683 16.1412 43.9141 17.1001C46.927 17.6875 49.7586 18.9782 52.1782 20.8671C54.5979 22.756 56.5371 25.1898 57.8381 27.9701C58.0581 28.4091 58.4671 28.9701 57.7711 29.2991C57.0991 29.6121 56.9021 28.9741 56.6791 28.5141C55.623 26.2295 54.1007 24.191 52.2099 22.5298C50.3191 20.8685 48.1016 19.6213 45.7001 18.8681C42.2407 17.7227 38.5182 17.6362 35.0094 18.6197C31.5005 19.6031 28.3652 21.6117 26.0051 24.3881C23.1519 27.6243 21.5535 31.7761 21.5001 36.0901C21.4851 36.7781 21.2461 37.1541 20.5111 37.1361C20.0391 37.1251 20.0961 37.3451 20.3391 37.6211C20.9931 38.3631 21.6511 39.1021 22.2891 39.8581C22.5721 40.1931 22.7891 40.1411 23.0501 39.8401C23.6931 39.0891 24.3501 38.3491 24.9971 37.6001C25.0781 37.5051 25.2201 37.4161 25.1571 37.2591C25.0941 37.1021 24.9321 37.1461 24.8051 37.1331C23.8051 37.0251 23.6871 36.9091 23.7211 35.9331C23.8172 32.7196 24.8609 29.6061 26.721 26.9839C28.5812 24.3618 31.1748 22.3478 34.1761 21.1951C35.8539 20.52 37.6408 20.1567 39.4491 20.1231Z" fill="#008F4A"/>
<path d="M50.7 34.294C50.6614 36.7459 49.7381 39.1012 48.1 40.926C45.9932 43.3603 43.4352 45.3638 40.567 46.826C40.4016 46.9265 40.2121 46.9805 40.0186 46.9824C39.825 46.9844 39.6345 46.9341 39.467 46.837C36.086 44.904 32.954 42.676 30.815 39.316C29.7931 37.7931 29.269 35.9905 29.315 34.157C29.3938 32.7932 29.9225 31.494 30.8183 30.4626C31.7142 29.4312 32.9267 28.7259 34.266 28.457C36.366 28.057 37.866 28.971 39.226 30.367C39.3244 30.4597 39.4128 30.5622 39.49 30.673C39.856 31.254 40.149 31.101 40.533 30.65C41.3638 29.5422 42.5542 28.758 43.9 28.432C45.1638 28.2581 46.4501 28.4931 47.5707 29.1027C48.6914 29.7123 49.5875 30.6645 50.128 31.82C50.4982 32.5925 50.6922 33.4375 50.696 34.294M30.596 34.694C30.6235 35.9569 30.9971 37.1879 31.676 38.253C33.6 41.488 36.536 43.611 39.682 45.494C39.7889 45.5568 39.9114 45.588 40.0352 45.5841C40.1591 45.5802 40.2793 45.5414 40.382 45.472C43.37 43.723 46.164 41.741 48.071 38.761C48.7294 37.8717 49.1607 36.8351 49.3277 35.7412C49.4946 34.6474 49.3921 33.5293 49.029 32.484C48.175 30.158 44.489 28.263 42.029 30.898C41.6107 31.3366 41.2174 31.7983 40.851 32.281C40.182 33.181 39.832 33.181 39.177 32.303C38.9575 31.9897 38.7201 31.6892 38.466 31.403C37.49 30.37 36.448 29.441 34.875 29.632C33.6598 29.7913 32.5476 30.3982 31.7561 31.334C30.9645 32.2698 30.5505 33.4672 30.595 34.692" fill="#283583"/>
<path d="M51.75 25.4889C51.8399 25.4894 51.9286 25.5096 52.01 25.5479C52.0913 25.5863 52.1633 25.6419 52.221 25.7109C52.565 26.1509 52.921 26.5849 53.24 27.0409C53.2921 27.101 53.3311 27.1714 53.3544 27.2474C53.3777 27.3235 53.3849 27.4036 53.3755 27.4825C53.3661 27.5615 53.3403 27.6377 53.2997 27.7061C53.2592 27.7746 53.2047 27.8338 53.14 27.8799C53.082 27.9346 53.0134 27.9768 52.9385 28.0039C52.8636 28.0311 52.784 28.0426 52.7044 28.0378C52.6249 28.0331 52.5472 28.0121 52.4761 27.9761C52.405 27.9402 52.342 27.8901 52.291 27.8289C51.9088 27.3917 51.5493 26.9351 51.214 26.4609C51.1358 26.3491 51.0939 26.2159 51.0939 26.0794C51.0939 25.943 51.1358 25.8098 51.214 25.6979C51.2735 25.6163 51.355 25.5532 51.4491 25.5162C51.5431 25.4792 51.6457 25.4697 51.745 25.4889" fill="#008F4A"/>
<path d="M28.834 46.6601C28.8506 46.771 28.8302 46.8843 28.776 46.9824C28.7218 47.0806 28.6367 47.1581 28.534 47.2031C28.4246 47.2629 28.2996 47.288 28.1756 47.275C28.0516 47.2619 27.9345 47.2114 27.84 47.1301C27.4317 46.7468 27.0814 46.3062 26.8 45.8221C26.7464 45.7183 26.7246 45.6011 26.7373 45.4851C26.7499 45.369 26.7965 45.2593 26.8712 45.1696C26.9459 45.0798 27.0454 45.0141 27.1572 44.9806C27.269 44.9471 27.3882 44.9472 27.5 44.9811C28.1078 45.3888 28.5747 45.9756 28.834 46.6601Z" fill="#283583"/>
</g>
</g>
<defs>
<linearGradient id="paint0_linear_1_478" x1="-0.0190279" y1="72.9767" x2="1.00332" y2="72.9767" gradientUnits="userSpaceOnUse">
<stop stop-color="#E5E5E6"/>
<stop offset="1" stop-color="#E8E8E8"/>
</linearGradient>
<clipPath id="clip0_1_478">
<rect width="80" height="73" fill="white"/>
</clipPath>
</defs>
</svg>
