<svg width="80" height="73" viewBox="0 0 80 73" fill="none" xmlns="http://www.w3.org/2000/svg">
<g clip-path="url(#clip0_1_505)">
<mask id="mask0_1_505" style="mask-type:luminance" maskUnits="userSpaceOnUse" x="0" y="0" width="80" height="73">
<path d="M80 0H0V73H80V0Z" fill="white"/>
</mask>
<g mask="url(#mask0_1_505)">
<path d="M70.84 36.4999C70.84 42.5995 69.0313 48.5621 65.6425 53.6337C62.2538 58.7053 57.4372 62.6582 51.8019 64.9924C46.1667 67.3266 39.9658 67.9373 33.9834 66.7473C28.001 65.5574 22.5059 62.6201 18.1928 58.3071C13.8798 53.994 10.9425 48.4989 9.75257 42.5165C8.5626 36.5341 9.17334 30.3332 11.5075 24.698C13.8417 19.0627 17.7946 14.2461 22.8662 10.8574C27.9378 7.46865 33.9004 5.65991 40 5.65991C48.1792 5.66018 56.0233 8.90947 61.8069 14.693C67.5904 20.4766 70.8397 28.3207 70.84 36.4999Z" fill="white"/>
<path d="M40 1.35197C47.8058 1.35879 55.3864 3.96855 61.5421 8.76825C67.6979 13.5679 72.0772 20.2834 73.987 27.852H75.378C73.457 19.917 68.9241 12.8582 62.5078 7.80984C56.0914 2.76153 48.1642 0.0168457 40 0.0168457C31.8358 0.0168457 23.9086 2.76153 17.4923 7.80984C11.0759 12.8582 6.54304 19.917 4.62201 27.852H6.01301C7.92285 20.2834 12.3022 13.5679 18.4579 8.76825C24.6136 3.96855 32.1942 1.35879 40 1.35197ZM40 71.652C32.1942 71.6451 24.6136 69.0354 18.4579 64.2357C12.3022 59.436 7.92285 52.7205 6.01301 45.152H4.62201C6.54304 53.087 11.0759 60.1458 17.4923 65.1941C23.9086 70.2424 31.8358 72.9871 40 72.9871C48.1642 72.9871 56.0914 70.2424 62.5078 65.1941C68.9241 60.1458 73.457 53.087 75.378 45.152H73.987C72.0764 52.7198 67.6968 59.4344 61.5411 64.2333C55.3854 69.0322 47.8053 71.6414 40 71.648" fill="#008F4A"/>
</g>
<mask id="mask1_1_505" style="mask-type:luminance" maskUnits="userSpaceOnUse" x="9" y="6" width="61" height="61">
<path d="M10.652 36.5C10.6664 30.8721 12.3485 25.3746 15.4857 20.7022C18.623 16.0298 23.0746 12.3919 28.2783 10.2482C33.482 8.10456 39.2043 7.5512 44.7224 8.65807C50.2404 9.76494 55.3066 12.4824 59.281 16.4671C63.2554 20.4518 65.9597 25.5251 67.0523 31.046C68.1448 36.5669 67.5766 42.2877 65.4194 47.4859C63.2622 52.684 59.6128 57.1262 54.9323 60.2513C50.2517 63.3764 44.7499 65.0442 39.122 65.044C31.5617 65.0334 24.3152 62.0203 18.9762 56.6675C13.6372 51.3146 10.643 44.0603 10.652 36.5ZM9.12197 36.5C9.13719 42.4438 10.9136 48.2497 14.2269 53.1844C17.5402 58.1191 22.2416 61.9611 27.7373 64.2252C33.233 66.4892 39.2765 67.0737 45.1042 65.9048C50.9319 64.7359 56.2825 61.8661 60.48 57.6578C64.6776 53.4495 67.5337 48.0916 68.6877 42.2609C69.8417 36.4302 69.2418 30.3883 66.9637 24.8984C64.6856 19.4085 60.8315 14.7169 55.8884 11.4162C50.9452 8.11561 45.1348 6.35402 39.191 6.354C35.2372 6.35899 31.3231 7.1427 27.6722 8.66039C24.0213 10.1781 20.7051 12.4 17.9129 15.1994C15.1207 17.9987 12.9072 21.3206 11.3989 24.9754C9.89055 28.6301 9.11685 32.5462 9.12197 36.5Z" fill="white"/>
</mask>
<g mask="url(#mask1_1_505)">
<path d="M69.2599 6.354H9.12195V66.646H69.2599V6.354Z" fill="url(#paint0_linear_1_505)"/>
</g>
<mask id="mask2_1_505" style="mask-type:luminance" maskUnits="userSpaceOnUse" x="0" y="0" width="80" height="73">
<path d="M80 0H0V73H80V0Z" fill="white"/>
</mask>
<g mask="url(#mask2_1_505)">
<path d="M77.358 36.5L80 30.637H71.832C70.481 23.1787 66.5541 16.4316 60.7364 11.573C54.9187 6.71448 47.5797 4.05298 40 4.05298C32.4203 4.05298 25.0813 6.71448 19.2636 11.573C13.4459 16.4316 9.51897 23.1787 8.168 30.637H0L2.641 36.5L0 42.369H8.169C9.52224 49.8252 13.45 56.5697 19.2673 61.4262C25.0845 66.2827 32.422 68.9429 40 68.9429C47.578 68.9429 54.9155 66.2827 60.7327 61.4262C66.55 56.5697 70.4778 49.8252 71.831 42.369H80L77.358 36.5ZM40 66.646C34.0341 66.6617 28.1977 64.9068 23.2297 61.6037C18.2616 58.3006 14.3853 53.5977 12.0914 48.0904C9.7976 42.5831 9.18937 36.519 10.3437 30.6658C11.4981 24.8127 14.3632 19.4336 18.5763 15.2096C22.7893 10.9856 28.161 8.10661 34.0111 6.93707C39.8613 5.76754 45.9269 6.36006 51.4401 8.63963C56.9534 10.9192 61.6663 14.7833 64.9823 19.7428C68.2982 24.7023 70.0682 30.5341 70.068 36.5C70.0731 40.4537 69.2995 44.3697 67.7912 48.0244C66.2829 51.6792 64.0695 55.001 61.2774 57.8003C58.4854 60.5996 55.1693 62.8216 51.5185 64.3393C47.8677 65.8571 43.9537 66.6409 40 66.646Z" fill="#283583"/>
<path d="M40.626 23.329L39.837 23.31C39.837 20.2753 39.8343 17.242 39.829 14.21C39.829 13.917 39.786 13.563 40.188 13.526C40.563 13.492 40.666 13.771 40.664 14.107C40.664 14.497 40.964 14.427 41.198 14.428C42.637 14.428 44.077 14.457 45.514 14.418C46.174 14.399 46.426 14.64 46.35 15.278C46.329 15.455 46.362 15.639 46.344 15.817C46.307 16.195 46.459 16.335 46.844 16.326C47.72 16.305 48.597 16.31 49.474 16.326C50.134 16.336 50.268 16.584 49.974 17.167C49.631 17.845 48.874 18.442 48.945 19.158C49.01 19.826 49.635 20.434 49.994 21.08C50.268 21.58 50.122 21.892 49.565 21.9C47.79 21.927 46.013 21.915 44.237 21.906C44.1522 21.9176 44.0658 21.9091 43.9849 21.8813C43.904 21.8534 43.8307 21.8071 43.7709 21.7458C43.7111 21.6846 43.6665 21.6102 43.6406 21.5286C43.6148 21.447 43.6084 21.3605 43.622 21.276C43.631 21.006 43.613 20.736 43.622 20.467C43.63 20.151 43.48 20.021 43.172 20.023C42.498 20.029 41.823 20.033 41.149 20.023C40.749 20.017 40.658 20.223 40.658 20.575C40.658 21.496 40.64 22.416 40.629 23.337M43.134 15.247C42.483 15.247 41.834 15.261 41.181 15.242C40.802 15.23 40.669 15.374 40.676 15.754C40.696 16.719 40.692 17.684 40.676 18.654C40.676 19.025 40.807 19.174 41.188 19.17C42.444 19.155 43.7 19.151 44.956 19.17C45.405 19.177 45.545 18.996 45.536 18.57C45.5166 17.628 45.5166 16.6853 45.536 15.742C45.545 15.348 45.381 15.235 45.016 15.242C44.388 15.26 43.759 15.247 43.13 15.247M46.695 21.1C47.121 21.1 47.549 21.114 47.974 21.1C48.257 21.088 48.644 21.247 48.799 21.008C48.993 20.708 48.646 20.434 48.483 20.186C48.074 19.565 47.708 18.986 48.328 18.264C48.567 17.987 48.951 17.599 48.79 17.284C48.615 16.941 48.09 17.145 47.722 17.14C46.347 17.121 46.347 17.132 46.347 18.505C46.347 19.878 46.347 19.905 44.968 19.97C44.532 19.992 44.453 20.191 44.45 20.563C44.45 20.971 44.608 21.125 45.012 21.11C45.572 21.089 46.134 21.105 46.695 21.105" fill="#008F4A"/>
<path d="M44.107 27.8751C44.0685 27.4012 44.1361 26.9246 44.305 26.48C44.4738 26.0354 44.7396 25.6341 45.083 25.3051C45.3969 25.0221 45.7732 24.8172 46.1813 24.707C46.5893 24.5969 47.0176 24.5846 47.4313 24.6713C47.845 24.7579 48.2324 24.941 48.562 25.2056C48.8916 25.4702 49.154 25.8089 49.328 26.1941C49.564 26.7066 49.6905 27.2626 49.6993 27.8268C49.7081 28.3909 49.599 28.9506 49.379 29.4701C49.1697 30.0472 48.7653 30.533 48.2358 30.8434C47.7062 31.1538 47.0848 31.2694 46.479 31.1701C45.8995 31.0667 45.367 30.7842 44.9563 30.3626C44.5455 29.9409 44.2772 29.4011 44.189 28.8191C44.139 28.5101 44.135 28.1931 44.11 27.8791M48.823 27.7451C48.8148 27.5222 48.7941 27.2998 48.761 27.0791C48.7064 26.6755 48.5199 26.3012 48.2305 26.0146C47.9412 25.7279 47.5651 25.5449 47.161 25.4941C46.7481 25.4101 46.3188 25.4815 45.9554 25.6947C45.592 25.9079 45.3201 26.2478 45.192 26.6491C45.0005 27.0949 44.9117 27.578 44.9323 28.0627C44.9529 28.5474 45.0824 29.0213 45.311 29.4491C45.5335 29.8448 45.8981 30.1411 46.3309 30.2781C46.7636 30.4152 47.2323 30.3826 47.642 30.1871C48.626 29.7251 48.827 28.8591 48.824 27.7501" fill="#008F4A"/>
<path d="M30.385 27.986C30.3268 27.4094 30.4263 26.8278 30.6729 26.3033C30.9195 25.7788 31.3038 25.3311 31.785 25.008C32.1104 24.8066 32.4753 24.6776 32.855 24.6298C33.2346 24.582 33.6201 24.6164 33.9853 24.7308C34.3505 24.8453 34.6867 25.0369 34.9712 25.2929C35.2557 25.5488 35.4817 25.863 35.634 26.214C35.8753 26.7222 36.0049 27.2763 36.0141 27.8388C36.0232 28.4013 35.9117 28.9592 35.687 29.475C35.4743 30.0365 35.0779 30.5096 34.5623 30.8173C34.0467 31.1251 33.4422 31.2494 32.847 31.17C32.233 31.0749 31.6666 30.7824 31.2335 30.3368C30.8005 29.8911 30.5244 29.3166 30.447 28.7C30.402 28.436 30.398 28.165 30.383 27.986M33.1 25.48C32.7735 25.463 32.4495 25.5465 32.1719 25.7193C31.8942 25.892 31.6761 26.1456 31.547 26.446C31.3162 26.8972 31.1958 27.3967 31.1958 27.9035C31.1958 28.4103 31.3162 28.9099 31.547 29.361C31.7614 29.7845 32.1344 30.1062 32.5848 30.2561C33.0353 30.4059 33.5266 30.3717 33.952 30.161C34.4383 29.8773 34.8132 29.4362 35.0147 28.9105C35.2161 28.3848 35.2321 27.806 35.06 27.27C34.836 26.054 34.224 25.47 33.1 25.478" fill="#008F4A"/>
<path d="M55.472 28.882C55.5118 29.4004 55.398 29.919 55.1449 30.3732C54.8919 30.8273 54.5107 31.197 54.049 31.436C53.7497 31.5841 53.4213 31.664 53.0874 31.67C52.7535 31.676 52.4224 31.6079 52.118 31.4705C51.8136 31.3332 51.5434 31.1301 51.3269 30.8758C51.1105 30.6215 50.953 30.3224 50.866 30C50.6256 29.3898 50.5812 28.7198 50.7391 28.0832C50.897 27.4467 51.2493 26.8751 51.747 26.448C53.295 25.363 55.289 26.448 55.471 28.475C55.483 28.608 55.471 28.744 55.471 28.875M51.491 28.875C51.4912 29.0003 51.4989 29.1255 51.514 29.25C51.709 30.486 52.634 31.093 53.66 30.665C54.0083 30.4788 54.2899 30.1888 54.4657 29.8352C54.6415 29.4816 54.7028 29.082 54.641 28.692C54.6596 28.3196 54.5621 27.9507 54.362 27.6362C54.1619 27.3216 53.8691 27.077 53.524 26.936C52.46 26.596 51.512 27.456 51.491 28.875Z" fill="#008F4A"/>
<path d="M29.3 28.8451C29.3508 29.3733 29.2413 29.9046 28.9856 30.3696C28.73 30.8347 28.3402 31.2119 27.867 31.4521C27.5546 31.5971 27.2134 31.6697 26.8689 31.6644C26.5245 31.659 26.1858 31.5759 25.878 31.4211C25.5703 31.2664 25.3015 31.0441 25.0918 30.7708C24.882 30.4975 24.7368 30.1804 24.667 29.8431C24.4522 29.2245 24.4392 28.5537 24.6298 27.9273C24.8205 27.3009 25.205 26.7511 25.728 26.3571C26.0872 26.1538 26.4929 26.0469 26.9056 26.0466C27.3184 26.0464 27.7242 26.1529 28.0836 26.3558C28.443 26.5586 28.7439 26.851 28.9571 27.2045C29.1702 27.5579 29.2883 27.9605 29.3 28.3731C29.315 28.5291 29.3 28.6871 29.3 28.8451ZM28.5 29.0381C28.5596 28.6212 28.4872 28.1962 28.293 27.8226C28.0987 27.4491 27.7924 27.1457 27.417 26.9551C27.2083 26.8877 26.9876 26.8661 26.7698 26.8916C26.552 26.9172 26.3423 26.9893 26.1549 27.1032C25.9675 27.2171 25.8069 27.3699 25.6838 27.5514C25.5608 27.7329 25.4783 27.9388 25.442 28.1551C25.3013 28.5825 25.2907 29.0422 25.4115 29.4757C25.5324 29.9092 25.7793 30.2971 26.121 30.5901C26.349 30.739 26.6144 30.8204 26.8867 30.825C27.159 30.8296 27.4271 30.7572 27.66 30.6161C27.9193 30.4425 28.1318 30.2076 28.2783 29.9321C28.4249 29.6566 28.501 29.3501 28.5 29.0381Z" fill="#008F4A"/>
<path d="M40.625 23.33C41.915 23.93 41.696 25.235 42.004 26.285C42.2807 27.6018 42.7352 28.8748 43.355 30.069C43.6451 30.5652 44.0576 30.9786 44.553 31.2697C45.0485 31.5609 45.6104 31.7201 46.185 31.732C47.1953 31.7085 48.2057 31.7754 49.204 31.932C50.2504 32.1354 51.1957 32.6907 51.8828 33.5057C52.5699 34.3207 52.9574 35.3463 52.981 36.412C53.038 39.47 52.998 42.53 52.997 45.589C52.997 45.862 53.003 46.189 52.697 46.271C52.4985 46.353 52.2844 46.3902 52.0699 46.38C51.8554 46.3698 51.6458 46.3124 51.456 46.212C51.084 45.936 51.406 45.622 51.68 45.599C52.291 45.546 52.247 45.171 52.246 44.749C52.239 42.14 52.204 39.53 52.253 36.922C52.2806 36.3474 52.189 35.7732 51.9841 35.2357C51.7792 34.6981 51.4654 34.2087 51.0624 33.7981C50.6594 33.3876 50.1758 33.0648 49.6421 32.85C49.1084 32.6352 48.5361 32.5331 47.961 32.55C47.1073 32.5831 46.2524 32.545 45.405 32.436C44.603 32.2453 43.867 31.8426 43.274 31.2699C42.6809 30.6973 42.2527 29.9758 42.034 29.181C41.808 28.573 41.622 27.95 41.354 27.139C41.1851 28.0111 40.9688 28.8734 40.706 29.722C40.5668 30.1317 40.5279 30.5688 40.5924 30.9966C40.657 31.4245 40.8232 31.8306 41.077 32.181C41.7479 33.3516 42.5677 34.4303 43.516 35.39C43.6553 35.5159 43.7657 35.6705 43.8396 35.8431C43.9135 36.0157 43.9491 36.2023 43.944 36.39C43.932 41.8107 43.9293 47.2313 43.936 52.652C43.936 52.7853 43.933 52.9203 43.927 53.057C43.9292 53.1024 43.9223 53.1477 43.9069 53.1904C43.8914 53.2331 43.8677 53.2723 43.837 53.3057C43.8063 53.3392 43.7693 53.3663 43.7281 53.3854C43.6869 53.4045 43.6424 53.4152 43.597 53.417C43.5059 53.4266 43.4147 53.4008 43.3421 53.3449C43.2695 53.2891 43.2211 53.2075 43.207 53.117C43.1695 52.8732 43.1544 52.6265 43.162 52.38C43.162 47.229 43.154 42.08 43.171 36.927C43.1816 36.6843 43.1408 36.4421 43.0512 36.2164C42.9616 35.9906 42.8252 35.7863 42.651 35.617C41.7349 34.6883 40.9642 33.6267 40.365 32.468C40.277 32.293 40.154 32.136 39.997 31.893C39.678 32.401 39.397 32.844 39.119 33.293C38.5932 34.1562 37.9836 34.9654 37.299 35.709C37.1619 35.8532 37.0557 36.024 36.9869 36.2107C36.9181 36.3975 36.8882 36.5963 36.899 36.795C36.9103 41.9683 36.9127 47.1417 36.906 52.315C36.906 52.495 36.9 52.675 36.906 52.855C36.914 53.123 36.87 53.391 36.557 53.41C36.216 53.431 36.11 53.177 36.111 52.869C36.111 52.442 36.111 52.015 36.111 51.587C36.111 46.616 36.118 41.645 36.1 36.674C36.0904 36.42 36.1313 36.1666 36.2204 35.9285C36.3095 35.6904 36.445 35.4723 36.619 35.287C38.186 33.6674 39.3396 31.694 39.982 29.534C40.336 28.167 40.611 26.78 40.918 25.401C40.9353 25.2895 40.943 25.1768 40.941 25.064C40.9693 24.8603 40.9168 24.6536 40.7948 24.4881C40.6728 24.3226 40.4909 24.2113 40.288 24.178C40.1876 24.1376 40.0796 24.1196 39.9715 24.1255C39.8635 24.1314 39.758 24.161 39.6626 24.2121C39.5673 24.2632 39.4843 24.3347 39.4195 24.4214C39.3548 24.5081 39.3099 24.608 39.288 24.714C39.027 25.688 38.788 26.668 38.536 27.645C38.3096 28.6297 37.9389 29.5756 37.436 30.452C37.073 31.077 36.5542 31.5972 35.9304 31.9621C35.3065 32.327 34.5987 32.524 33.876 32.534C32.8659 32.5 31.855 32.5751 30.861 32.758C30.0423 32.9399 29.3072 33.3887 28.7712 34.0338C28.2353 34.6789 27.9288 35.4838 27.9 36.322C27.843 39.222 27.882 42.122 27.866 45.027C27.866 45.409 28.039 45.527 28.377 45.588C28.598 45.626 28.817 45.743 28.77 46.041C28.727 46.312 28.498 46.303 28.301 46.327C27.248 46.454 27.118 46.341 27.117 45.305C27.117 42.516 27.206 39.723 27.094 36.938C26.962 33.664 29.418 31.843 32.228 31.769C33.059 31.8217 33.8932 31.7747 34.713 31.629C36.258 31.213 36.927 29.984 37.425 28.612C37.886 27.344 38.101 26.012 38.452 24.712C38.5231 24.3702 38.6914 24.0562 38.9368 23.8078C39.1821 23.5594 39.4941 23.3872 39.835 23.312L40.624 23.332" fill="#283583"/>
<path d="M58.727 41.587C58.727 43.205 58.727 44.823 58.727 46.441C58.7374 46.6181 58.698 46.7947 58.6132 46.9506C58.5284 47.1065 58.4017 47.2355 58.2473 47.3231C58.0929 47.4106 57.9171 47.4532 57.7398 47.4459C57.5625 47.4386 57.3907 47.3819 57.244 47.282C57.089 47.197 56.935 47.075 56.983 46.857C56.9983 46.7668 57.0471 46.6858 57.1196 46.6302C57.1921 46.5745 57.283 46.5484 57.374 46.557C57.908 46.586 57.923 46.249 57.922 45.857C57.916 42.913 57.934 39.969 57.911 37.026C57.9503 36.5744 57.892 36.1196 57.7401 35.6924C57.5883 35.2653 57.3465 34.8757 57.031 34.5502C56.7155 34.2247 56.3337 33.9707 55.9116 33.8056C55.4894 33.6404 55.0367 33.5679 54.584 33.593C54.136 33.572 53.684 33.584 53.237 33.572C53.1749 33.5788 53.1121 33.5732 53.0522 33.5555C52.9922 33.5379 52.9364 33.5086 52.8879 33.4693C52.8393 33.4299 52.7991 33.3814 52.7694 33.3264C52.7397 33.2714 52.7213 33.2111 52.715 33.149C52.694 32.83 52.963 32.749 53.227 32.749C54.2817 32.6568 55.344 32.7905 56.343 33.141C57.0567 33.43 57.6658 33.9289 58.0895 34.5718C58.5133 35.2147 58.7318 35.9712 58.716 36.741C58.751 37.548 58.727 38.358 58.728 39.167C58.729 39.976 58.728 40.785 58.728 41.594" fill="#283583"/>
<path d="M21.271 41.5299C21.271 40.0019 21.257 38.4739 21.271 36.9469C21.2403 36.4058 21.3214 35.8642 21.5094 35.3559C21.6973 34.8476 21.9881 34.3834 22.3634 33.9925C22.7388 33.6016 23.1907 33.2922 23.691 33.0838C24.1912 32.8753 24.7291 32.7722 25.271 32.7809C25.786 32.7529 26.303 32.7469 26.819 32.7479C27.067 32.7479 27.286 32.8659 27.282 33.1349C27.275 33.2497 27.2236 33.3572 27.1386 33.4347C27.0537 33.5122 26.9419 33.5535 26.827 33.5499C26.403 33.5789 25.974 33.5649 25.549 33.5799C23.274 33.6599 22.085 34.8669 22.076 37.1459C22.062 40.0219 22.076 42.8979 22.069 45.7739C22.069 46.2029 22.039 46.6079 22.664 46.5589C22.7445 46.5569 22.8231 46.5837 22.8856 46.6344C22.9481 46.6852 22.9905 46.7567 23.005 46.8359C23.0224 46.9142 23.012 46.9961 22.9755 47.0675C22.939 47.1389 22.8787 47.1953 22.805 47.2269C22.6241 47.3167 22.4269 47.3688 22.2252 47.3801C22.0236 47.3915 21.8218 47.3618 21.632 47.2929C21.26 47.1999 21.259 46.8469 21.26 46.5179C21.267 44.8549 21.26 43.1929 21.26 41.5299" fill="#283583"/>
<path d="M30.279 45.73C30.279 47.9794 30.279 50.2287 30.279 52.478C30.2877 52.6576 30.2814 52.8376 30.26 53.016C30.22 53.244 30.13 53.48 29.844 53.458C29.585 53.438 29.466 53.234 29.444 52.989C29.427 52.789 29.433 52.589 29.433 52.383C29.433 48.0857 29.433 43.7894 29.433 39.494C29.433 39.24 29.533 38.95 29.256 38.748C28.956 38.528 28.921 38.203 29.222 38.032C29.294 37.9767 29.3766 37.9368 29.4647 37.9148C29.5529 37.8929 29.6446 37.8894 29.7341 37.9045C29.8237 37.9196 29.9091 37.953 29.9852 38.0027C30.0612 38.0523 30.1262 38.1171 30.176 38.193C30.2844 38.4172 30.322 38.669 30.284 38.915C30.284 41.1857 30.284 43.4574 30.284 45.73" fill="#283583"/>
<path d="M49.831 45.7771C49.831 43.4171 49.831 41.0571 49.831 38.6961C49.831 38.2651 49.898 37.9251 50.438 37.9391C50.667 37.9451 50.891 37.9391 51.006 38.1981C51.0291 38.2434 51.0431 38.2929 51.0472 38.3436C51.0512 38.3943 51.0452 38.4453 51.0295 38.4937C51.0138 38.5421 50.9887 38.5869 50.9557 38.6256C50.9227 38.6643 50.8823 38.6961 50.837 38.7191C50.543 38.9141 50.646 39.2031 50.646 39.4561C50.64 43.7721 50.6383 48.0878 50.641 52.4031C50.641 52.6031 50.6387 52.8055 50.634 53.0101C50.6383 53.067 50.6307 53.1241 50.6118 53.1779C50.5928 53.2317 50.5628 53.2809 50.5238 53.3225C50.4848 53.3641 50.4375 53.3971 50.385 53.4194C50.3326 53.4417 50.276 53.4529 50.219 53.4521C49.963 53.4521 49.834 53.2601 49.836 52.9921C49.836 52.5201 49.836 52.0481 49.836 51.5761C49.836 49.6428 49.836 47.7095 49.836 45.7761" fill="#283583"/>
<path d="M24.468 46.1779C24.468 48.2889 24.474 50.4009 24.462 52.5119C24.462 52.8609 24.635 53.4239 24.082 53.4269C23.464 53.4269 23.677 52.8359 23.676 52.4769C23.663 48.4769 23.669 44.4769 23.666 40.4829C23.666 40.1999 23.735 39.8939 23.466 39.6669C23.296 39.5209 23.078 39.3669 23.285 39.1149C23.3836 39.0213 23.5056 38.9562 23.6382 38.9265C23.7708 38.8967 23.909 38.9034 24.038 38.9459C24.281 38.9809 24.465 39.0829 24.46 39.3739C24.46 39.5519 24.465 39.7319 24.465 39.9109V46.1779" fill="#283583"/>
<path d="M55.528 46.1739C55.528 43.9939 55.544 41.8159 55.518 39.6379C55.511 39.0379 55.788 38.8889 56.298 38.9309C56.3884 38.9266 56.4784 38.947 56.5581 38.9898C56.6379 39.0326 56.7046 39.0962 56.751 39.1739C56.858 39.3809 56.723 39.5139 56.573 39.6249C56.264 39.8509 56.327 40.1789 56.327 40.4869C56.327 44.4869 56.327 48.4846 56.327 52.4799C56.327 52.6599 56.327 52.8399 56.321 53.0199C56.3269 53.0765 56.3202 53.1338 56.3016 53.1875C56.2829 53.2413 56.2527 53.2903 56.213 53.3311C56.1734 53.372 56.1252 53.4036 56.072 53.4238C56.0188 53.4439 55.9618 53.4522 55.905 53.4479C55.8541 53.4474 55.8038 53.4364 55.7573 53.4157C55.7108 53.395 55.669 53.365 55.6345 53.3275C55.6001 53.29 55.5736 53.2459 55.5568 53.1978C55.5401 53.1497 55.5333 53.0987 55.537 53.0479C55.532 52.8699 55.529 52.6899 55.529 52.5099L55.528 46.1739Z" fill="#283583"/>
<path d="M46.481 49.017C46.481 47.807 46.472 46.596 46.487 45.386C46.487 45.095 46.424 44.68 46.887 44.677C47.33 44.677 47.321 45.059 47.321 45.371C47.327 47.8377 47.327 50.3043 47.321 52.771C47.321 53.102 47.275 53.465 46.864 53.453C46.49 53.442 46.475 53.089 46.476 52.786C46.476 51.53 46.476 50.2747 46.476 49.02" fill="#283583"/>
<path d="M32.8 49.0319C32.8 47.7949 32.794 46.5579 32.8 45.3209C32.8 45.0449 32.727 44.6719 33.176 44.6709C33.584 44.6709 33.603 44.9969 33.603 45.3009C33.603 47.8209 33.603 50.3402 33.603 52.8589C33.603 53.1679 33.512 53.4339 33.197 53.4529C32.835 53.4749 32.797 53.1639 32.797 52.8779C32.797 51.5959 32.797 50.3139 32.797 49.0319" fill="#283583"/>
<path d="M53.028 50.6731C53.028 51.3681 53.018 52.0641 53.033 52.7591C53.04 53.1081 52.961 53.4591 52.599 53.4781C52.221 53.5011 52.199 53.1081 52.193 52.8221C52.183 51.4311 52.182 50.0411 52.202 48.6501C52.202 48.3851 52.154 47.9721 52.568 47.9741C53.024 47.9741 53.028 48.3741 53.028 48.7221C53.028 49.3721 53.028 50.0225 53.028 50.6731Z" fill="#283583"/>
<path d="M27.775 50.718C27.775 51.4353 27.775 52.1523 27.775 52.869C27.775 53.156 27.731 53.469 27.375 53.449C27.066 53.435 26.963 53.156 26.964 52.855C26.964 51.421 26.964 49.988 26.964 48.555C26.964 48.262 27.064 47.978 27.386 47.972C27.75 47.966 27.761 48.298 27.764 48.572C27.772 49.288 27.764 50.005 27.764 50.722" fill="#283583"/>
</g>
</g>
<defs>
<linearGradient id="paint0_linear_1_505" x1="-0.0190279" y1="72.9767" x2="1.00332" y2="72.9767" gradientUnits="userSpaceOnUse">
<stop stop-color="#E5E5E6"/>
<stop offset="1" stop-color="#E8E8E8"/>
</linearGradient>
<clipPath id="clip0_1_505">
<rect width="80" height="73" fill="white"/>
</clipPath>
</defs>
</svg>
