<svg width="80" height="73" viewBox="0 0 80 73" fill="none" xmlns="http://www.w3.org/2000/svg">
<g clip-path="url(#clip0_1_543)">
<mask id="mask0_1_543" style="mask-type:luminance" maskUnits="userSpaceOnUse" x="0" y="0" width="80" height="73">
<path d="M80 0H0V73H80V0Z" fill="white"/>
</mask>
<g mask="url(#mask0_1_543)">
<path d="M70.8399 36.4999C70.8399 42.5995 69.0312 48.5621 65.6425 53.6337C62.2537 58.7053 57.4372 62.6582 51.8019 64.9924C46.1666 67.3266 39.9657 67.9373 33.9833 66.7473C28.001 65.5574 22.5058 62.6201 18.1928 58.3071C13.8797 53.994 10.9425 48.4989 9.75251 42.5165C8.56254 36.5341 9.17327 30.3332 11.5075 24.698C13.8417 19.0627 17.7945 14.2461 22.8661 10.8574C27.9378 7.46865 33.9003 5.65991 39.9999 5.65991C48.1791 5.66018 56.0232 8.90947 61.8068 14.693C67.5904 20.4766 70.8397 28.3207 70.8399 36.4999Z" fill="white"/>
<path d="M39.9999 1.35197C47.8057 1.35879 55.3863 3.96855 61.5421 8.76825C67.6978 13.5679 72.0771 20.2834 73.9869 27.852H75.3779C73.4569 19.917 68.924 12.8582 62.5077 7.80984C56.0914 2.76153 48.1642 0.0168457 39.9999 0.0168457C31.8357 0.0168457 23.9085 2.76153 17.4922 7.80984C11.0759 12.8582 6.54298 19.917 4.62195 27.852H6.01295C7.92279 20.2834 12.3021 13.5679 18.4578 8.76825C24.6136 3.96855 32.1942 1.35879 39.9999 1.35197ZM39.9999 71.652C32.1942 71.6451 24.6136 69.0354 18.4578 64.2357C12.3021 59.436 7.92279 52.7205 6.01295 45.152H4.62195C6.54298 53.087 11.0759 60.1458 17.4922 65.1941C23.9085 70.2424 31.8357 72.9871 39.9999 72.9871C48.1642 72.9871 56.0914 70.2424 62.5077 65.1941C68.924 60.1458 73.4569 53.087 75.3779 45.152H73.9869C72.0763 52.7198 67.6967 59.4344 61.541 64.2333C55.3854 69.0322 47.8052 71.6414 39.9999 71.648" fill="#008F4A"/>
</g>
<mask id="mask1_1_543" style="mask-type:luminance" maskUnits="userSpaceOnUse" x="9" y="6" width="61" height="61">
<path d="M10.652 36.5C10.6664 30.8721 12.3485 25.3746 15.4857 20.7022C18.623 16.0298 23.0746 12.3919 28.2783 10.2482C33.482 8.10456 39.2043 7.5512 44.7224 8.65807C50.2404 9.76494 55.3066 12.4824 59.281 16.4671C63.2554 20.4518 65.9597 25.5251 67.0523 31.046C68.1448 36.5669 67.5766 42.2877 65.4194 47.4859C63.2622 52.684 59.6128 57.1262 54.9323 60.2513C50.2517 63.3764 44.7499 65.0442 39.122 65.044C31.5617 65.0334 24.3152 62.0203 18.9762 56.6675C13.6372 51.3146 10.643 44.0603 10.652 36.5ZM9.12197 36.5C9.13719 42.4438 10.9136 48.2497 14.2269 53.1844C17.5402 58.1191 22.2416 61.9611 27.7373 64.2252C33.233 66.4892 39.2765 67.0737 45.1042 65.9048C50.9319 64.7359 56.2825 61.8661 60.48 57.6578C64.6776 53.4495 67.5337 48.0916 68.6877 42.2609C69.8417 36.4302 69.2418 30.3883 66.9637 24.8984C64.6856 19.4085 60.8315 14.7169 55.8884 11.4162C50.9452 8.11561 45.1348 6.35402 39.191 6.354C35.2372 6.35899 31.3231 7.1427 27.6722 8.66039C24.0213 10.1781 20.7051 12.4 17.9129 15.1994C15.1207 17.9987 12.9072 21.3206 11.3989 24.9754C9.89055 28.6301 9.11685 32.5462 9.12197 36.5Z" fill="white"/>
</mask>
<g mask="url(#mask1_1_543)">
<path d="M69.2599 6.354H9.12195V66.646H69.2599V6.354Z" fill="url(#paint0_linear_1_543)"/>
</g>
<mask id="mask2_1_543" style="mask-type:luminance" maskUnits="userSpaceOnUse" x="0" y="0" width="80" height="73">
<path d="M80 0H0V73H80V0Z" fill="white"/>
</mask>
<g mask="url(#mask2_1_543)">
<path d="M77.358 36.5L80 30.637H71.832C70.481 23.1787 66.5541 16.4316 60.7364 11.573C54.9187 6.71448 47.5797 4.05298 40 4.05298C32.4203 4.05298 25.0813 6.71448 19.2636 11.573C13.4459 16.4316 9.51897 23.1787 8.168 30.637H0L2.641 36.5L0 42.369H8.169C9.52224 49.8252 13.45 56.5697 19.2673 61.4262C25.0845 66.2827 32.422 68.9429 40 68.9429C47.578 68.9429 54.9155 66.2827 60.7327 61.4262C66.55 56.5697 70.4778 49.8252 71.831 42.369H80L77.358 36.5ZM40 66.646C34.0341 66.6617 28.1977 64.9068 23.2297 61.6037C18.2616 58.3006 14.3853 53.5977 12.0914 48.0904C9.7976 42.5831 9.18937 36.519 10.3437 30.6658C11.4981 24.8127 14.3632 19.4336 18.5763 15.2096C22.7893 10.9856 28.161 8.10661 34.0111 6.93707C39.8613 5.76754 45.9269 6.36006 51.4401 8.63963C56.9534 10.9192 61.6663 14.7833 64.9823 19.7428C68.2982 24.7023 70.0682 30.5341 70.068 36.5C70.0731 40.4537 69.2995 44.3697 67.7912 48.0244C66.2829 51.6792 64.0695 55.001 61.2774 57.8003C58.4854 60.5996 55.1693 62.8216 51.5185 64.3393C47.8677 65.8571 43.9537 66.6409 40 66.646Z" fill="#283583"/>
<path d="M49.111 26.885C50.063 26.92 50.28 27.143 50.293 28.102C50.293 28.259 50.293 28.416 50.293 28.573C50.293 29.685 50.145 29.852 49.061 29.986C48.9265 29.9392 48.7835 29.9224 48.6418 29.9367C48.5002 29.951 48.3634 29.9962 48.241 30.069C47.792 29.941 47.417 30.19 47.015 30.301C45.681 30.67 44.423 31.49 42.937 30.929C42.537 30.779 42.098 30.763 41.693 30.637C41.13 30.462 40.93 30.622 40.939 31.223C40.966 33.023 40.957 34.823 40.939 36.623C40.9325 36.7898 40.963 36.956 41.0281 37.1096C41.0933 37.2633 41.1916 37.4007 41.316 37.512C42.073 38.249 42.8 39.018 43.565 39.745C43.9262 40.0817 44.2142 40.4892 44.4112 40.9419C44.6081 41.3947 44.7099 41.8832 44.71 42.377C44.787 44.556 44.935 46.732 45.055 48.908C44.9122 48.9078 44.7715 48.874 44.6442 48.8094C44.5168 48.7447 44.4065 48.6511 44.322 48.536C44.232 46.763 44.065 44.989 44.074 43.216C44.1176 42.4872 43.9745 41.7592 43.6583 41.1011C43.3421 40.443 42.8632 39.8764 42.267 39.455C41.5063 38.9437 40.9117 38.2212 40.5564 37.3764C40.201 36.5316 40.1004 35.6013 40.267 34.7C40.3649 33.264 40.3752 31.8233 40.298 30.386C40.298 29.831 40.476 29.586 41.077 29.786C41.5481 29.9352 42.0303 30.0469 42.519 30.12C43.3896 30.4127 44.3279 30.4382 45.213 30.193C46.4327 29.5571 47.7976 29.2517 49.172 29.307C49.451 29.341 49.572 29.15 49.579 28.885C49.586 28.62 49.574 28.345 49.587 28.076C49.603 27.676 49.424 27.534 49.021 27.523C48.1699 27.5425 47.3235 27.6552 46.497 27.859C45.6349 28.1881 44.709 28.3157 43.79 28.232C43.075 28.047 42.39 27.772 41.672 27.577C40.6721 27.1844 39.6328 26.9011 38.572 26.732C37.18 26.663 35.783 26.705 34.389 26.723C33.995 26.7141 33.6036 26.7898 33.2413 26.945C32.879 27.1003 32.5543 27.3315 32.289 27.623C31.115 28.923 29.95 30.233 28.768 31.523C28.6554 31.6323 28.5775 31.7723 28.5439 31.9256C28.5103 32.0788 28.5225 32.2386 28.579 32.385C29.002 33.732 29.426 35.078 29.836 36.429C29.978 36.901 30.253 37.217 30.753 37.081C30.8653 37.06 30.9712 37.0134 31.0625 36.9448C31.1538 36.8762 31.228 36.7874 31.2794 36.6854C31.3308 36.5834 31.358 36.471 31.3588 36.3568C31.3595 36.2425 31.334 36.1297 31.284 36.027C30.95 34.981 30.648 33.927 30.284 32.889C30.2404 32.8119 30.2126 32.727 30.202 32.6391C30.1915 32.5513 30.1985 32.4622 30.2225 32.377C30.2466 32.2918 30.2873 32.2123 30.3423 32.1429C30.3974 32.0736 30.4655 32.0158 30.543 31.973C31.243 31.49 31.921 30.973 32.621 30.481C32.868 30.309 33.111 29.996 33.455 30.166C33.818 30.345 33.655 30.73 33.655 31.021C33.673 36.845 33.685 42.669 33.691 48.493C33.6357 48.6055 33.542 48.6945 33.4269 48.7442C33.3118 48.7939 33.1828 48.8009 33.063 48.764C32.9735 48.4852 32.9486 48.1898 32.99 47.9C32.98 42.6807 32.9727 37.4613 32.968 32.242C32.968 32.062 32.975 31.881 32.959 31.702C32.934 31.424 32.812 31.256 32.522 31.45C32.057 31.762 31.596 32.083 31.146 32.419C30.933 32.579 30.983 32.801 31.062 33.032C31.362 33.902 31.642 34.778 31.931 35.652C32.018 35.8362 32.0674 36.0359 32.0763 36.2393C32.0852 36.4428 32.0534 36.6461 31.9828 36.8371C31.9123 37.0282 31.8043 37.2033 31.6652 37.3521C31.5262 37.501 31.3588 37.6206 31.173 37.704C30.9732 37.7859 30.758 37.8235 30.5423 37.814C30.3266 37.8046 30.1155 37.7484 29.9236 37.6493C29.7318 37.5502 29.5638 37.4105 29.4312 37.2401C29.2987 37.0696 29.2048 36.8723 29.156 36.662C28.663 35.149 28.229 33.617 27.763 32.095C27.7261 31.9649 27.7268 31.827 27.765 31.6973C27.8033 31.5675 27.8774 31.4513 27.979 31.362C29.271 29.925 30.548 28.474 31.862 27.057C32.1502 26.7387 32.503 26.4855 32.8969 26.3145C33.2908 26.1434 33.7166 26.0583 34.146 26.065C35.699 26.065 37.253 26.016 38.803 26.076C39.9909 26.1931 41.1494 26.5156 42.227 27.029C43.6563 27.5895 45.2388 27.6207 46.689 27.117C47.2321 26.9748 47.786 26.8771 48.345 26.825C48.5946 26.9093 48.8615 26.9296 49.121 26.884" fill="#283583"/>
<path d="M44.3279 48.5339C44.4124 48.6489 44.5226 48.7424 44.6497 48.807C44.7768 48.8716 44.9173 48.9055 45.0599 48.9059C45.8479 49.2799 46.6339 49.6559 47.4249 50.0259C48.2689 50.4199 48.3119 50.3919 48.3119 49.4749C48.3119 43.2503 48.3119 37.0259 48.3119 30.8019C48.3119 30.5579 48.2669 30.3129 48.2429 30.0689C48.3656 29.9964 48.5025 29.9514 48.6443 29.9371C48.7861 29.9228 48.9293 29.9394 49.0639 29.9859C49.0639 36.6199 49.0709 43.2549 49.0469 49.8859C49.0105 50.1475 49.0687 50.4136 49.2109 50.6361C49.3532 50.8587 49.5702 51.0231 49.8229 51.0999C51.4969 51.7999 53.1419 52.5769 54.7989 53.3219C54.8847 53.3489 54.9682 53.3823 55.0489 53.4219C55.2639 53.5649 55.6179 53.6759 55.4599 54.0099C55.3019 54.3439 54.9689 54.2209 54.6969 54.0979C52.6729 53.1879 50.6496 52.2766 48.6269 51.3639C45.5843 49.9919 42.5416 48.6189 39.4989 47.2449C39.3378 47.1662 39.1608 47.1253 38.9814 47.1253C38.8021 47.1253 38.6251 47.1662 38.4639 47.2449C33.4359 49.5116 28.4076 51.7783 23.3789 54.0449C23.3589 54.0539 23.3419 54.0709 23.3219 54.0809C23.0559 54.2059 22.7329 54.3869 22.5559 54.0409C22.3789 53.6949 22.7149 53.5289 22.9809 53.4049C23.5699 53.1299 24.1659 52.8699 24.7599 52.6049C27.2579 51.4869 29.7549 50.3679 32.2509 49.2479C32.5282 49.1049 32.797 48.946 33.0559 48.7719C33.1758 48.8086 33.3049 48.8013 33.4199 48.7512C33.5348 48.7012 33.6281 48.6117 33.6829 48.4989C34.7359 48.2073 35.7388 47.7586 36.6579 47.1679C36.9579 47.2339 37.1149 46.9569 37.3579 46.8809C38.6419 46.0369 39.8439 46.4739 41.0339 47.1149C41.075 47.1328 41.1175 47.1472 41.1609 47.1579C41.3545 47.3395 41.6106 47.4394 41.8759 47.4369C42.6358 47.9228 43.4635 48.2935 44.3319 48.5369" fill="#008F4A"/>
<path d="M49.1111 26.885C48.8519 26.9311 48.5852 26.9108 48.3361 26.826C48.2851 24.357 48.1261 21.888 48.3121 19.418C48.3321 19.148 48.3121 18.823 48.6831 18.81C49.0741 18.797 49.0721 19.125 49.0541 19.395C49.0261 19.811 49.2061 19.953 49.6091 19.938C50.2157 19.916 50.8231 19.916 51.4311 19.938C51.8311 19.953 52.0211 19.805 51.9771 19.392C51.9261 18.921 52.1561 18.761 52.6131 18.766C54.0521 18.783 55.4921 18.766 56.9321 18.776C57.4811 18.776 57.6251 19.004 57.3851 19.491C57.1991 19.8756 56.9807 20.2436 56.7321 20.591C56.6034 20.7476 56.5338 20.9443 56.5352 21.1469C56.5367 21.3496 56.6092 21.5453 56.7401 21.7C56.9401 22 57.1181 22.311 57.2971 22.622C57.6641 23.257 57.5181 23.522 56.7691 23.54C56.0501 23.556 55.3291 23.562 54.6101 23.54C54.1491 23.524 53.8741 23.628 53.9101 24.165C53.9451 24.645 53.6371 24.771 53.2161 24.765C52.0461 24.758 50.8761 24.782 49.7071 24.754C49.2121 24.742 49.0071 24.897 49.0501 25.405C49.0941 25.896 49.0901 26.392 49.1071 26.885M51.1391 20.7V20.692C50.6001 20.692 50.0621 20.702 49.5241 20.692C49.1811 20.683 49.0391 20.814 49.0461 21.165C49.0611 21.949 49.0551 22.734 49.0461 23.519C49.0461 23.812 49.1341 23.987 49.4641 23.986C50.5401 23.98 51.6161 23.986 52.6931 23.986C52.9931 23.986 53.1451 23.856 53.1431 23.541C53.1391 22.757 53.1427 21.9726 53.1541 21.188C53.1541 20.854 53.0361 20.688 52.6811 20.703C52.1661 20.719 51.6511 20.703 51.1361 20.703M54.5811 19.456V19.464C54.0641 19.464 53.5461 19.464 53.0291 19.464C52.8911 19.464 52.7521 19.516 52.7371 19.682C52.7331 19.7162 52.7371 19.7508 52.7485 19.7832C52.7599 19.8156 52.7786 19.8451 52.803 19.8692C52.8275 19.8934 52.8571 19.9117 52.8897 19.9228C52.9223 19.9338 52.9569 19.9373 52.9911 19.933C53.9551 19.87 53.9181 20.498 53.9081 21.173C53.8861 22.829 53.9021 22.835 55.5521 22.823C55.8291 22.823 56.2181 22.974 56.3581 22.7C56.4901 22.442 56.2031 22.154 56.0341 21.932C55.8311 21.7176 55.718 21.4337 55.718 21.1385C55.718 20.8433 55.8311 20.5593 56.0341 20.345C56.1163 20.2367 56.1886 20.1212 56.2501 20C56.4351 19.653 56.3801 19.443 55.9341 19.45C55.4881 19.457 55.0341 19.45 54.5841 19.45" fill="#008F4A"/>
<path d="M34.193 22.3461C34.203 20.1211 35.311 18.8401 36.913 18.8081C38.989 18.7661 40.202 20.6801 39.613 23.0721C39.5094 23.5289 39.2887 23.951 38.9726 24.2968C38.6565 24.6426 38.2559 24.9001 37.8101 25.0442C37.3643 25.1883 36.8887 25.2138 36.43 25.1184C35.9713 25.023 35.5454 24.8099 35.194 24.5001C34.8908 24.2263 34.6459 23.8941 34.4741 23.5235C34.3022 23.1529 34.207 22.7514 34.194 22.3431M34.94 22.1121C34.951 22.2301 34.956 22.5021 35.002 22.7661C35.0729 23.1782 35.2665 23.5594 35.5575 23.8599C35.8485 24.1603 36.2233 24.366 36.633 24.4501C37.0217 24.5247 37.4239 24.4776 37.7848 24.3153C38.1458 24.153 38.4479 23.8833 38.65 23.543C38.9287 23.0775 39.0783 22.5461 39.0834 22.0035C39.0885 21.4609 38.9489 20.9268 38.679 20.4561C38.5451 20.1947 38.3457 19.9725 38.1004 19.8111C37.855 19.6497 37.572 19.5546 37.279 19.5351C35.84 19.3801 34.946 20.3001 34.942 22.1121" fill="#283583"/>
<path d="M41.157 47.1521C41.005 45.4971 40.848 43.8431 40.704 42.1871C40.679 41.8961 40.479 41.7641 40.287 41.6121C39.529 41.0121 38.7706 40.4145 38.012 39.8191C37.859 39.6981 37.723 39.4801 37.499 39.5861C37.275 39.6921 37.355 39.9411 37.354 40.1311C37.35 42.3791 37.35 44.6275 37.354 46.8761C37.113 46.9521 36.954 47.2271 36.654 47.1621C36.6473 44.3975 36.641 41.6325 36.635 38.8671C36.635 38.6481 36.596 38.3961 36.871 38.2921C37.093 38.2091 37.255 38.3401 37.417 38.4691C38.5963 39.4025 39.7763 40.3358 40.957 41.2691C41.0998 41.3787 41.217 41.5181 41.3003 41.6777C41.3836 41.8374 41.4309 42.0133 41.439 42.1931C41.576 43.9391 41.725 45.6851 41.87 47.4311C41.6047 47.434 41.3486 47.3344 41.155 47.1531" fill="#283583"/>
</g>
</g>
<defs>
<linearGradient id="paint0_linear_1_543" x1="-0.0190279" y1="72.9767" x2="1.00332" y2="72.9767" gradientUnits="userSpaceOnUse">
<stop stop-color="#E5E5E6"/>
<stop offset="1" stop-color="#E8E8E8"/>
</linearGradient>
<clipPath id="clip0_1_543">
<rect width="80" height="73" fill="white"/>
</clipPath>
</defs>
</svg>
