<svg width="80" height="73" viewBox="0 0 80 73" fill="none" xmlns="http://www.w3.org/2000/svg">
<g clip-path="url(#clip0_1_570)">
<mask id="mask0_1_570" style="mask-type:luminance" maskUnits="userSpaceOnUse" x="0" y="0" width="80" height="73">
<path d="M80 0H0V73H80V0Z" fill="white"/>
</mask>
<g mask="url(#mask0_1_570)">
<path d="M70.84 36.4999C70.84 42.5995 69.0313 48.5621 65.6425 53.6337C62.2538 58.7053 57.4372 62.6582 51.8019 64.9924C46.1667 67.3266 39.9658 67.9373 33.9834 66.7473C28.001 65.5574 22.5059 62.6201 18.1928 58.3071C13.8798 53.994 10.9425 48.4989 9.75257 42.5165C8.5626 36.5341 9.17334 30.3332 11.5075 24.698C13.8417 19.0627 17.7946 14.2461 22.8662 10.8574C27.9378 7.46865 33.9004 5.65991 40 5.65991C48.1792 5.66018 56.0233 8.90947 61.8069 14.693C67.5904 20.4766 70.8397 28.3207 70.84 36.4999Z" fill="white"/>
<path d="M40 1.35197C47.8058 1.35879 55.3864 3.96855 61.5421 8.76825C67.6979 13.5679 72.0772 20.2834 73.987 27.852H75.378C73.457 19.917 68.9241 12.8582 62.5078 7.80984C56.0914 2.76153 48.1642 0.0168457 40 0.0168457C31.8358 0.0168457 23.9086 2.76153 17.4923 7.80984C11.0759 12.8582 6.54304 19.917 4.62201 27.852H6.01301C7.92285 20.2834 12.3022 13.5679 18.4579 8.76825C24.6136 3.96855 32.1942 1.35879 40 1.35197ZM40 71.652C32.1942 71.6451 24.6136 69.0354 18.4579 64.2357C12.3022 59.436 7.92285 52.7205 6.01301 45.152H4.62201C6.54304 53.087 11.0759 60.1458 17.4923 65.1941C23.9086 70.2424 31.8358 72.9871 40 72.9871C48.1642 72.9871 56.0914 70.2424 62.5078 65.1941C68.9241 60.1458 73.457 53.087 75.378 45.152H73.987C72.0764 52.7198 67.6968 59.4344 61.5411 64.2333C55.3854 69.0322 47.8053 71.6414 40 71.648" fill="#008F4A"/>
</g>
<mask id="mask1_1_570" style="mask-type:luminance" maskUnits="userSpaceOnUse" x="9" y="6" width="61" height="61">
<path d="M10.652 36.5C10.6664 30.8721 12.3485 25.3746 15.4857 20.7022C18.623 16.0298 23.0746 12.3919 28.2783 10.2482C33.482 8.10456 39.2043 7.5512 44.7224 8.65807C50.2404 9.76494 55.3066 12.4824 59.281 16.4671C63.2554 20.4518 65.9597 25.5251 67.0523 31.046C68.1448 36.5669 67.5766 42.2877 65.4194 47.4859C63.2622 52.684 59.6128 57.1262 54.9323 60.2513C50.2517 63.3764 44.7499 65.0442 39.122 65.044C31.5617 65.0334 24.3152 62.0203 18.9762 56.6675C13.6372 51.3146 10.643 44.0603 10.652 36.5ZM9.12197 36.5C9.13719 42.4438 10.9136 48.2497 14.2269 53.1844C17.5402 58.1191 22.2416 61.9611 27.7373 64.2252C33.233 66.4892 39.2765 67.0737 45.1042 65.9048C50.9319 64.7359 56.2825 61.8661 60.48 57.6578C64.6776 53.4495 67.5337 48.0916 68.6877 42.2609C69.8417 36.4302 69.2418 30.3883 66.9637 24.8984C64.6856 19.4085 60.8315 14.7169 55.8884 11.4162C50.9452 8.11561 45.1348 6.35402 39.191 6.354C35.2372 6.35899 31.3231 7.1427 27.6722 8.66039C24.0213 10.1781 20.7051 12.4 17.9129 15.1994C15.1207 17.9987 12.9072 21.3206 11.3989 24.9754C9.89055 28.6301 9.11685 32.5462 9.12197 36.5Z" fill="white"/>
</mask>
<g mask="url(#mask1_1_570)">
<path d="M69.2599 6.354H9.12195V66.646H69.2599V6.354Z" fill="url(#paint0_linear_1_570)"/>
</g>
<mask id="mask2_1_570" style="mask-type:luminance" maskUnits="userSpaceOnUse" x="0" y="0" width="80" height="73">
<path d="M80 0H0V73H80V0Z" fill="white"/>
</mask>
<g mask="url(#mask2_1_570)">
<path d="M77.358 36.5L80 30.637H71.832C70.481 23.1787 66.5541 16.4316 60.7364 11.573C54.9187 6.71448 47.5797 4.05298 40 4.05298C32.4203 4.05298 25.0813 6.71448 19.2636 11.573C13.4459 16.4316 9.51897 23.1787 8.168 30.637H0L2.641 36.5L0 42.369H8.169C9.52224 49.8252 13.45 56.5697 19.2673 61.4262C25.0845 66.2827 32.422 68.9429 40 68.9429C47.578 68.9429 54.9155 66.2827 60.7327 61.4262C66.55 56.5697 70.4778 49.8252 71.831 42.369H80L77.358 36.5ZM40 66.646C34.0341 66.6617 28.1977 64.9068 23.2297 61.6037C18.2616 58.3006 14.3853 53.5977 12.0914 48.0904C9.7976 42.5831 9.18937 36.519 10.3437 30.6658C11.4981 24.8127 14.3632 19.4336 18.5763 15.2096C22.7893 10.9856 28.161 8.10661 34.0111 6.93707C39.8613 5.76754 45.9269 6.36006 51.4401 8.63963C56.9534 10.9192 61.6663 14.7833 64.9823 19.7428C68.2982 24.7023 70.0682 30.5341 70.068 36.5C70.0731 40.4537 69.2995 44.3697 67.7912 48.0244C66.2829 51.6792 64.0695 55.001 61.2774 57.8003C58.4854 60.5996 55.1693 62.8216 51.5185 64.3393C47.8677 65.8571 43.9537 66.6409 40 66.646Z" fill="#283583"/>
<path d="M57.146 39.6621C57.146 43.2221 57.146 46.7821 57.146 50.3421C57.146 51.1821 57.046 51.2861 56.224 51.2861C49.9713 51.2861 43.717 51.2861 37.461 51.2861C36.652 51.2861 36.58 51.2141 36.58 50.3941C36.58 43.2061 36.5763 36.0184 36.569 28.8311C36.569 28.1951 36.775 27.9411 37.425 27.9571C38.774 27.9891 40.125 27.9571 41.474 27.9741C41.889 27.9801 42.016 27.8381 42.027 27.4311C42.052 26.4191 42.114 26.3771 43.127 26.3751C43.3965 26.3611 43.6665 26.3611 43.936 26.3751C44.2197 26.4192 44.5101 26.3883 44.7782 26.2853C45.0463 26.1823 45.2827 26.0109 45.464 25.7881C45.6596 25.5933 45.8934 25.4412 46.1506 25.3412C46.4079 25.2412 46.6831 25.1955 46.9589 25.2071C47.2347 25.2186 47.5051 25.2871 47.7531 25.4083C48.0011 25.5295 48.2214 25.7007 48.4 25.9111C48.5152 26.0728 48.6712 26.2011 48.8521 26.2828C49.0331 26.3644 49.2325 26.3967 49.43 26.3761C49.902 26.3531 50.376 26.3871 50.847 26.3671C51.456 26.3411 51.741 26.6331 51.689 27.2191C51.637 27.8051 51.865 28.0001 52.458 27.9751C53.581 27.9281 54.707 27.9611 55.832 27.9621C57.151 27.9621 57.151 27.9621 57.151 29.2491V39.6591M37.663 39.6591C37.663 42.9471 37.6613 46.2351 37.658 49.5231C37.658 49.9151 37.653 50.2141 38.204 50.2131C43.9826 50.1984 49.7613 50.1984 55.54 50.2131C55.958 50.2131 56.077 50.0611 56.076 49.6601C56.068 42.9721 56.068 36.2838 56.076 29.5951C56.076 29.1211 55.876 29.0311 55.466 29.0401C54.522 29.0601 53.577 29.0461 52.633 29.0461C51.717 29.0461 51.717 29.0461 51.71 29.9591C51.704 30.8591 51.592 30.9801 50.697 30.9831C48.27 30.9911 45.841 30.9971 43.412 30.9831C42.345 30.9771 41.923 31.2411 42.024 29.6171C42.052 29.1701 41.881 29.0281 41.442 29.0391C40.432 29.0631 39.418 29.0781 38.409 29.0391C37.809 29.0141 37.64 29.2071 37.645 29.8031C37.672 33.0911 37.658 36.3791 37.659 39.6661M46.807 29.8931C47.864 29.8931 48.921 29.8741 49.978 29.9021C50.461 29.9141 50.65 29.7841 50.643 29.2601C50.619 27.4681 50.643 27.4681 48.848 27.4601C48.803 27.4566 48.7579 27.4566 48.713 27.4601C48.5134 27.4914 48.3092 27.4546 48.1331 27.3558C47.9569 27.2569 47.8192 27.1017 47.742 26.9151C47.6724 26.7332 47.549 26.5768 47.3883 26.4668C47.2276 26.3567 47.0371 26.2983 46.8424 26.2993C46.6476 26.3003 46.4577 26.3606 46.2981 26.4722C46.1385 26.5839 46.0167 26.7415 45.949 26.9241C45.8519 27.1109 45.6995 27.2632 45.5127 27.3602C45.3258 27.4572 45.1136 27.4942 44.905 27.4661C43.035 27.4661 43.048 27.4731 43.091 29.3661C43.1 29.7811 43.23 29.9131 43.637 29.9041C44.694 29.8831 45.751 29.8971 46.807 29.8971" fill="#283583"/>
<path d="M31.75 32.1601C31.75 31.0131 31.75 29.9251 31.75 28.8381C31.75 28.6841 31.617 28.6201 31.525 28.5221C31.106 28.0781 31.207 27.7221 31.799 27.5571C32.106 27.4782 32.4272 27.472 32.737 27.5391C32.8623 27.5444 32.9839 27.5829 33.0894 27.6507C33.1948 27.7186 33.2803 27.8133 33.337 27.9251C33.3814 28.0437 33.3781 28.1749 33.3278 28.2911C33.2774 28.4073 33.1839 28.4994 33.067 28.5481C32.853 28.6701 32.855 28.8741 32.855 29.0781C32.855 30.0691 32.855 31.0591 32.855 32.0871C33.21 32.0181 33.263 31.7261 33.364 31.5001C33.85 30.4161 34.317 29.3231 34.8 28.2371C35.09 27.5841 35.574 27.3741 36.071 27.6571C36.39 27.8371 36.514 28.2091 36.271 28.3751C35.402 28.9601 35.293 29.9551 34.871 30.7751C34.378 31.7291 33.993 32.7401 33.539 33.7161C33.367 34.0851 33.47 34.2001 33.848 34.2041C34.4111 34.1927 34.9727 34.2658 35.514 34.4211C35.807 34.5131 36.02 34.6731 35.977 34.9861C35.9696 35.0605 35.946 35.1324 35.908 35.1969C35.87 35.2613 35.8184 35.3167 35.7569 35.3592C35.6953 35.4017 35.6253 35.4304 35.5516 35.4431C35.4779 35.4559 35.4023 35.4525 35.33 35.4331C33.6747 35.2627 32.0087 35.2215 30.347 35.3101C29.7209 35.2556 29.0989 35.1607 28.485 35.0261C28.255 34.9931 27.995 34.8921 27.777 35.1971C28.585 35.4971 29.409 35.6841 30.177 36.0401C30.9553 36.3823 31.6996 36.7971 32.4 37.2791C33.1481 37.8248 34.0511 38.117 34.977 38.1131C35.36 38.1131 35.814 38.1321 35.803 38.6711C35.792 39.2291 35.303 39.2271 34.948 39.1711C32.926 38.8591 30.909 39.2281 28.891 39.1711C28.291 39.1551 28.121 39.3781 28.123 39.9561C28.1403 44.4848 28.1403 49.0138 28.123 53.5431C28.123 54.0021 28.306 54.7051 27.605 54.7261C26.871 54.7471 27.065 54.0321 27.063 53.5821C27.05 49.0981 27.056 44.6131 27.055 40.1291C27.055 39.1831 27.055 39.1901 26.131 39.1791C25.5917 39.1921 25.0521 39.1684 24.516 39.1081C24.2508 39.0854 23.9937 39.0053 23.7626 38.8733C23.5315 38.7412 23.3319 38.5604 23.1778 38.3434C23.0236 38.1264 22.9185 37.8785 22.8699 37.6168C22.8212 37.3551 22.8301 37.086 22.896 36.8281C23.238 34.8791 23.525 32.9161 23.972 30.9901C24.1604 30.1819 24.5776 29.4451 25.1736 28.8677C25.7696 28.2903 26.5193 27.8968 27.333 27.7341C29.274 27.2241 29.398 27.3341 30.222 29.1551C30.656 30.1161 31.097 31.0741 31.538 32.0321C31.552 32.0631 31.607 32.0741 31.753 32.1561M31.176 37.9911C31.184 37.9311 31.192 37.8721 31.199 37.8121C29.9461 36.9472 28.4838 36.435 26.965 36.3291C26.2 36.3291 25.971 35.9961 26.158 35.2501C26.322 34.5971 26.485 33.9421 26.624 33.2831C26.7 32.9251 26.805 32.5961 27.232 32.6121C27.685 32.6281 27.747 32.9691 27.721 33.3411C27.707 33.5481 27.682 33.7781 27.965 33.8101C28.8847 34.0185 29.8186 34.1579 30.759 34.2271C31.153 34.2131 31.291 34.1271 31.097 33.7071C30.397 32.1791 29.718 30.6361 29.025 29.1071C28.913 28.8591 28.775 28.6071 28.441 28.6321C27.6515 28.6597 26.8915 28.9393 26.2723 29.43C25.6531 29.9207 25.2073 30.5967 25 31.3591C24.684 33.1531 24.3507 34.9441 24 36.7321C23.815 37.6901 24.11 38.0831 25.178 38.0991C26.798 38.1231 28.418 38.1111 30.038 38.0991C30.415 38.0991 30.792 38.0311 31.169 37.9991" fill="#283583"/>
<path d="M36.035 22.3431C35.935 23.9911 35.476 25.4431 33.845 26.2251C33.3492 26.4542 32.8083 26.5686 32.2622 26.5599C31.7162 26.5512 31.1791 26.4197 30.6909 26.175C30.2027 25.9303 29.7758 25.5788 29.4421 25.1465C29.1083 24.7143 28.8762 24.2124 28.763 23.6781C28.4671 22.4901 28.5704 21.2376 29.057 20.1141C29.3668 19.4336 29.8839 18.8685 30.5342 18.4996C31.1846 18.1307 31.9349 17.9769 32.678 18.0601C33.4097 18.1343 34.1012 18.4308 34.6594 18.9098C35.2175 19.3887 35.6156 20.0271 35.8 20.7391C35.9641 21.2562 36.0424 21.7967 36.032 22.3391M34.915 22.2391C34.9161 21.8878 34.8604 21.5386 34.75 21.2051C34.6573 20.6575 34.3822 20.1573 33.9694 19.7857C33.5566 19.4141 33.0303 19.193 32.476 19.1581C31.9568 19.1131 31.4371 19.2395 30.9966 19.518C30.5561 19.7965 30.219 20.2118 30.037 20.7001C29.8134 21.205 29.698 21.751 29.698 22.3031C29.698 22.8553 29.8134 23.4013 30.037 23.9061C30.2372 24.4627 30.6413 24.9225 31.1676 25.1924C31.694 25.4624 32.3032 25.5223 32.872 25.3601C34.13 25.1021 34.905 23.9601 34.918 22.2471" fill="#283583"/>
<path d="M31.771 50.7459C31.771 49.6459 31.771 48.5459 31.771 47.4399C31.771 47.0239 31.83 46.6339 32.347 46.6249C32.913 46.6149 32.879 47.0579 32.879 47.4449C32.879 49.6719 32.879 51.8979 32.884 54.1249C32.884 54.5439 32.819 54.9699 32.333 54.9589C31.886 54.9479 31.761 54.5589 31.767 54.1189C31.784 52.9949 31.773 51.8699 31.773 50.7459" fill="#283583"/>
<path d="M37.6 53.5491C37.6162 53.7719 37.6139 53.9957 37.593 54.2181C37.543 54.5181 37.43 54.7741 37.049 54.7831C36.9757 54.7895 36.9019 54.7799 36.8326 54.7551C36.7633 54.7303 36.7002 54.6908 36.6476 54.6393C36.595 54.5878 36.5541 54.5256 36.5278 54.4569C36.5014 54.3882 36.4903 54.3146 36.495 54.2411C36.46 53.7731 36.46 53.3031 36.495 52.8351C36.4923 52.7615 36.5056 52.6882 36.534 52.6202C36.5623 52.5522 36.605 52.4911 36.6591 52.4411C36.7133 52.3912 36.7776 52.3535 36.8476 52.3307C36.9177 52.3079 36.9918 52.3006 37.065 52.3091C37.2007 52.3077 37.3316 52.359 37.4301 52.4523C37.5286 52.5456 37.587 52.6736 37.593 52.8091C37.616 53.0538 37.619 53.3 37.602 53.5451" fill="#283583"/>
<path d="M49.385 41.1791C48.465 41.1791 47.545 41.1791 46.625 41.1791C46.225 41.1791 45.815 41.1301 45.807 40.6061C45.798 40.0481 46.251 40.0591 46.629 40.0571C48.4457 40.0471 50.263 40.0471 52.081 40.0571C52.469 40.0571 52.926 40.0671 52.94 40.5861C52.955 41.1351 52.509 41.1861 52.078 41.1861C51.18 41.1861 50.2823 41.1861 49.385 41.1861" fill="#008F4A"/>
<path d="M49.321 35.6589C48.378 35.6589 47.434 35.6589 46.491 35.6589C46.132 35.6589 45.791 35.5949 45.804 35.1209C45.818 34.6849 46.149 34.5499 46.498 34.5469C48.408 34.5309 50.317 34.5349 52.226 34.5469C52.626 34.5469 52.976 34.7419 52.964 35.1649C52.953 35.5719 52.59 35.6709 52.219 35.6649C51.253 35.6649 50.287 35.6649 49.319 35.6649" fill="#008F4A"/>
<path d="M49.4 45.5491C50.342 45.5491 51.284 45.5551 52.227 45.5491C52.603 45.5491 52.937 45.6271 52.946 46.0601C52.956 46.5161 52.632 46.6471 52.217 46.6451C50.332 46.6391 48.448 46.6451 46.563 46.6451C46.176 46.6451 45.812 46.5701 45.811 46.0851C45.811 45.5791 46.193 45.5541 46.573 45.5551H49.4" fill="#008F4A"/>
<path d="M41.651 42.3071C41.5456 42.2895 41.4453 42.2492 41.357 42.1891C40.948 41.8081 40.538 41.4231 40.164 41.0071C40.1091 40.9567 40.0656 40.895 40.0367 40.8263C40.0078 40.7575 39.994 40.6834 39.9964 40.6088C39.9988 40.5343 40.0172 40.4612 40.0505 40.3944C40.0837 40.3277 40.131 40.2689 40.189 40.2221C40.3043 40.1296 40.4505 40.0846 40.5978 40.0961C40.7451 40.1076 40.8825 40.1748 40.982 40.2841C41.674 40.8291 41.677 40.8221 42.182 40.0571C42.382 39.7571 42.57 39.4571 42.782 39.1691C42.973 38.9191 43.218 38.7571 43.53 38.9871C43.5954 39.0216 43.6524 39.0703 43.6967 39.1295C43.7411 39.1888 43.7717 39.2571 43.7864 39.3296C43.8012 39.4021 43.7996 39.477 43.7819 39.5489C43.7642 39.6207 43.7308 39.6877 43.684 39.7451C43.184 40.5121 42.684 41.2841 42.169 42.0451C42.1159 42.134 42.0384 42.2059 41.9457 42.2524C41.8531 42.2988 41.7491 42.3178 41.646 42.3071" fill="#008F4A"/>
<path d="M40.528 34.6C40.7868 34.6394 41.0198 34.7788 41.177 34.988C41.513 35.411 41.747 35.266 41.977 34.888C42.207 34.51 42.464 34.135 42.719 33.766C42.913 33.485 43.173 33.281 43.511 33.495C43.5801 33.5357 43.6396 33.5908 43.6854 33.6566C43.7313 33.7223 43.7624 33.7972 43.7766 33.8761C43.7909 33.955 43.7879 34.0361 43.768 34.1137C43.748 34.1914 43.7115 34.2638 43.661 34.326C43.181 35.083 42.696 35.837 42.18 36.569C42.1392 36.645 42.0807 36.7101 42.0094 36.7588C41.9382 36.8075 41.8564 36.8384 41.7707 36.8489C41.6851 36.8594 41.5982 36.8492 41.5173 36.8191C41.4364 36.789 41.364 36.7399 41.306 36.676C40.906 36.312 40.5237 35.9327 40.159 35.538C40.0792 35.4563 40.0274 35.3513 40.0112 35.2382C39.995 35.1252 40.0153 35.0099 40.069 34.909C40.1124 34.8232 40.1769 34.7499 40.2565 34.696C40.3362 34.6421 40.4282 34.6094 40.524 34.601" fill="#008F4A"/>
<path d="M40.574 45.5669C40.6818 45.5679 40.7875 45.5972 40.8805 45.6517C40.9735 45.7063 41.0505 45.7843 41.104 45.8779C41.504 46.3779 41.761 46.2389 42.031 45.7519C42.2481 45.3871 42.4862 45.0352 42.744 44.6979C42.7794 44.6265 42.83 44.5637 42.8922 44.5138C42.9543 44.4639 43.0267 44.4282 43.1041 44.4092C43.1815 44.3901 43.2621 44.3882 43.3403 44.4035C43.4186 44.4189 43.4925 44.4511 43.557 44.4979C43.6186 44.5393 43.6707 44.5931 43.71 44.6561C43.7492 44.719 43.7748 44.7895 43.7849 44.8629C43.795 44.9364 43.7894 45.0112 43.7686 45.0823C43.7478 45.1535 43.7121 45.2195 43.664 45.2759C43.186 46.0309 42.697 46.7759 42.186 47.5109C42.1433 47.5857 42.0839 47.6496 42.0124 47.6977C41.941 47.7458 41.8594 47.7767 41.774 47.788C41.6886 47.7993 41.6018 47.7908 41.5202 47.763C41.4387 47.7352 41.3647 47.689 41.304 47.6279C40.902 47.2719 40.5229 46.8908 40.169 46.4869C40.0827 46.3959 40.0288 46.2791 40.0154 46.1544C40.002 46.0297 40.03 45.9041 40.095 45.7969C40.1414 45.7136 40.2121 45.6465 40.2977 45.6045C40.3833 45.5625 40.4797 45.5476 40.574 45.5619" fill="#008F4A"/>
</g>
</g>
<defs>
<linearGradient id="paint0_linear_1_570" x1="-0.0190279" y1="72.9767" x2="1.00332" y2="72.9767" gradientUnits="userSpaceOnUse">
<stop stop-color="#E5E5E6"/>
<stop offset="1" stop-color="#E8E8E8"/>
</linearGradient>
<clipPath id="clip0_1_570">
<rect width="80" height="73" fill="white"/>
</clipPath>
</defs>
</svg>
