<svg width="80" height="73" viewBox="0 0 80 73" fill="none" xmlns="http://www.w3.org/2000/svg">
<g clip-path="url(#clip0_1_603)">
<mask id="mask0_1_603" style="mask-type:luminance" maskUnits="userSpaceOnUse" x="0" y="0" width="80" height="73">
<path d="M80 0H0V73H80V0Z" fill="white"/>
</mask>
<g mask="url(#mask0_1_603)">
<path d="M70.8399 36.4999C70.8399 42.5995 69.0312 48.5621 65.6425 53.6337C62.2537 58.7053 57.4372 62.6582 51.8019 64.9924C46.1666 67.3266 39.9657 67.9373 33.9833 66.7473C28.001 65.5574 22.5058 62.6201 18.1928 58.3071C13.8797 53.994 10.9425 48.4989 9.75251 42.5165C8.56254 36.5341 9.17327 30.3332 11.5075 24.698C13.8417 19.0627 17.7945 14.2461 22.8661 10.8574C27.9378 7.46865 33.9003 5.65991 39.9999 5.65991C48.1791 5.66018 56.0232 8.90947 61.8068 14.693C67.5904 20.4766 70.8397 28.3207 70.8399 36.4999Z" fill="white"/>
<path d="M39.9999 1.35197C47.8057 1.35879 55.3863 3.96855 61.5421 8.76825C67.6978 13.5679 72.0771 20.2834 73.9869 27.852H75.3779C73.4569 19.917 68.924 12.8582 62.5077 7.80984C56.0914 2.76153 48.1642 0.0168457 39.9999 0.0168457C31.8357 0.0168457 23.9085 2.76153 17.4922 7.80984C11.0759 12.8582 6.54298 19.917 4.62195 27.852H6.01295C7.92279 20.2834 12.3021 13.5679 18.4578 8.76825C24.6136 3.96855 32.1942 1.35879 39.9999 1.35197ZM39.9999 71.652C32.1942 71.6451 24.6136 69.0354 18.4578 64.2357C12.3021 59.436 7.92279 52.7205 6.01295 45.152H4.62195C6.54298 53.087 11.0759 60.1458 17.4922 65.1941C23.9085 70.2424 31.8357 72.9871 39.9999 72.9871C48.1642 72.9871 56.0914 70.2424 62.5077 65.1941C68.924 60.1458 73.4569 53.087 75.3779 45.152H73.9869C72.0763 52.7198 67.6967 59.4344 61.541 64.2333C55.3854 69.0322 47.8052 71.6414 39.9999 71.648" fill="#008F4A"/>
</g>
<mask id="mask1_1_603" style="mask-type:luminance" maskUnits="userSpaceOnUse" x="9" y="6" width="61" height="61">
<path d="M10.652 36.5C10.6664 30.8721 12.3485 25.3746 15.4857 20.7022C18.623 16.0298 23.0746 12.3919 28.2783 10.2482C33.482 8.10456 39.2043 7.5512 44.7224 8.65807C50.2404 9.76494 55.3066 12.4824 59.281 16.4671C63.2554 20.4518 65.9597 25.5251 67.0523 31.046C68.1448 36.5669 67.5766 42.2877 65.4194 47.4859C63.2622 52.684 59.6128 57.1262 54.9323 60.2513C50.2517 63.3764 44.7499 65.0442 39.122 65.044C31.5617 65.0334 24.3152 62.0203 18.9762 56.6675C13.6372 51.3146 10.643 44.0603 10.652 36.5ZM9.12197 36.5C9.13719 42.4438 10.9136 48.2497 14.2269 53.1844C17.5402 58.1191 22.2416 61.9611 27.7373 64.2252C33.233 66.4892 39.2765 67.0737 45.1042 65.9048C50.9319 64.7359 56.2825 61.8661 60.48 57.6578C64.6776 53.4495 67.5337 48.0916 68.6877 42.2609C69.8417 36.4302 69.2418 30.3883 66.9637 24.8984C64.6856 19.4085 60.8315 14.7169 55.8884 11.4162C50.9452 8.11561 45.1348 6.35402 39.191 6.354C35.2372 6.35899 31.3231 7.1427 27.6722 8.66039C24.0213 10.1781 20.7051 12.4 17.9129 15.1994C15.1207 17.9987 12.9072 21.3206 11.3989 24.9754C9.89055 28.6301 9.11685 32.5462 9.12197 36.5Z" fill="white"/>
</mask>
<g mask="url(#mask1_1_603)">
<path d="M69.2599 6.354H9.12195V66.646H69.2599V6.354Z" fill="url(#paint0_linear_1_603)"/>
</g>
<mask id="mask2_1_603" style="mask-type:luminance" maskUnits="userSpaceOnUse" x="0" y="0" width="80" height="73">
<path d="M80 0H0V73H80V0Z" fill="white"/>
</mask>
<g mask="url(#mask2_1_603)">
<path d="M77.358 36.5L80 30.637H71.832C70.481 23.1787 66.5541 16.4316 60.7364 11.573C54.9187 6.71448 47.5797 4.05298 40 4.05298C32.4203 4.05298 25.0813 6.71448 19.2636 11.573C13.4459 16.4316 9.51897 23.1787 8.168 30.637H0L2.641 36.5L0 42.369H8.169C9.52224 49.8252 13.45 56.5697 19.2673 61.4262C25.0845 66.2827 32.422 68.9429 40 68.9429C47.578 68.9429 54.9155 66.2827 60.7327 61.4262C66.55 56.5697 70.4778 49.8252 71.831 42.369H80L77.358 36.5ZM40 66.646C34.0341 66.6617 28.1977 64.9068 23.2297 61.6037C18.2616 58.3006 14.3853 53.5977 12.0914 48.0904C9.7976 42.5831 9.18937 36.519 10.3437 30.6658C11.4981 24.8127 14.3632 19.4336 18.5763 15.2096C22.7893 10.9856 28.161 8.10661 34.0111 6.93707C39.8613 5.76754 45.9269 6.36006 51.4401 8.63963C56.9534 10.9192 61.6663 14.7833 64.9823 19.7428C68.2982 24.7023 70.0682 30.5341 70.068 36.5C70.0731 40.4537 69.2995 44.3697 67.7912 48.0244C66.2829 51.6792 64.0695 55.001 61.2774 57.8003C58.4854 60.5996 55.1693 62.8216 51.5185 64.3393C47.8677 65.8571 43.9537 66.6409 40 66.646Z" fill="#283583"/>
<path d="M31.286 30.433C31.471 25.021 33.986 21.133 38.986 19.042C41.9256 17.8763 45.2075 17.9244 48.1116 19.1756C51.0158 20.4268 53.305 22.7789 54.477 25.716C55.003 27.025 55.088 28.431 55.517 29.747C56.517 32.821 57.5667 35.8786 58.666 38.92C59.004 39.861 58.738 40.884 57.404 40.771C57.004 40.737 56.591 40.799 56.19 40.76C55.577 40.7 55.417 40.974 55.432 41.545C55.465 42.761 55.448 43.978 55.44 45.195C55.4706 45.6465 55.4047 46.0994 55.2467 46.5236C55.0888 46.9477 54.8424 47.3334 54.5239 47.655C54.2055 47.9765 53.8222 48.2267 53.3996 48.3888C52.9771 48.5508 52.5248 48.6211 52.073 48.595C50.656 48.603 49.238 48.622 47.821 48.586C47.245 48.571 47.087 48.778 47.097 49.325C47.126 50.789 47.107 52.254 47.106 53.718C47.1166 53.8978 47.1106 54.0783 47.088 54.257C47.026 54.59 46.883 54.857 46.474 54.835C46.3943 54.8363 46.3152 54.821 46.2417 54.79C46.1682 54.759 46.1021 54.7129 46.0475 54.6548C45.9928 54.5967 45.951 54.5279 45.9246 54.4526C45.8981 54.3774 45.8877 54.2975 45.894 54.218C45.871 53.565 45.882 52.911 45.882 52.258C45.882 50.974 45.876 49.69 45.882 48.406C45.882 47.617 46.042 47.462 46.843 47.458C48.508 47.45 50.173 47.458 51.838 47.458C52.1649 47.5054 52.4983 47.4757 52.8117 47.3713C53.125 47.2669 53.4096 47.0907 53.6428 46.8568C53.876 46.6228 54.0512 46.3376 54.1545 46.0239C54.2579 45.7102 54.2865 45.3767 54.238 45.05C54.245 43.54 54.254 42.031 54.238 40.521C54.23 39.897 54.477 39.6 55.113 39.621C55.697 39.638 56.285 39.594 56.867 39.631C57.449 39.668 57.595 39.451 57.41 38.923C56.942 37.587 56.485 36.248 56.02 34.911C55.444 33.257 54.82 31.618 54.304 29.943C54.018 29.004 54.014 27.987 53.683 27.043C53.1232 25.1775 52.0656 23.4999 50.6238 22.1904C49.182 20.8809 47.4106 19.9892 45.5 19.611C42.8512 19.0752 40.0978 19.5456 37.777 20.9302C35.4562 22.3149 33.7346 24.5145 32.948 27.1C32.6382 28.1837 32.4836 29.3059 32.489 30.433C32.3002 30.5171 32.0957 30.5605 31.889 30.5605C31.6823 30.5605 31.4779 30.5171 31.289 30.433" fill="#283583"/>
<path d="M31.274 45.393C31.274 42.6256 31.274 39.859 31.274 37.093C31.274 36.604 31.218 35.963 31.918 35.993C32.539 36.017 32.505 36.619 32.505 37.093C32.505 42.649 32.505 48.2053 32.505 53.762C32.5134 53.9632 32.4969 54.1647 32.456 54.362C32.4411 54.498 32.374 54.6229 32.2688 54.7104C32.1636 54.7979 32.0285 54.8411 31.892 54.831C31.8184 54.8354 31.7446 54.8251 31.675 54.8005C31.6055 54.7759 31.5415 54.7377 31.487 54.688C31.4324 54.6383 31.3884 54.5782 31.3575 54.5112C31.3266 54.4442 31.3094 54.3717 31.307 54.298C31.2763 53.9622 31.2647 53.625 31.272 53.288C31.272 50.656 31.272 48.0226 31.272 45.388" fill="#283583"/>
<path d="M40.788 30.4581C38.022 30.4951 35.255 30.4481 32.488 30.4371C32.2991 30.5212 32.0947 30.5646 31.888 30.5646C31.6813 30.5646 31.4768 30.5212 31.288 30.4371C31.177 30.4531 31.066 30.4761 30.954 30.4821C29.987 30.5311 29.987 30.5301 29.805 29.5651C29.7441 28.9301 29.459 28.3375 29.0009 27.8935C28.5428 27.4495 27.9416 27.1831 27.305 27.1421C26.1154 27.0591 24.9215 27.0591 23.732 27.1421C23.0476 27.1702 22.4018 27.4664 21.934 27.9668C21.4662 28.4671 21.2141 29.1314 21.232 29.8161C21.1946 31.8201 21.1946 33.8248 21.232 35.8301C21.2313 36.1975 21.3045 36.5612 21.4472 36.8997C21.59 37.2383 21.7994 37.5446 22.0629 37.8005C22.3265 38.0564 22.6389 38.2567 22.9814 38.3894C23.324 38.5222 23.6898 38.5846 24.057 38.5731C24.98 38.5871 25.902 38.5821 26.825 38.5731C27.5296 38.6128 28.2238 38.3892 28.7727 37.9456C29.3215 37.5021 29.6859 36.8703 29.795 36.1731C30.024 35.1281 30.024 35.1281 31.135 35.1281H31.6C33.873 35.1281 36.145 35.1381 38.417 35.1211C38.931 35.1211 39.122 35.2481 38.955 35.7871C38.816 36.2361 38.765 36.7121 38.663 37.1731C38.512 37.8591 38.763 38.2121 39.482 38.2231C40.606 38.2404 41.7306 38.2404 42.856 38.2231C43.537 38.2131 43.756 37.9671 43.656 37.2851C43.556 36.6031 43.391 35.9181 43.242 35.2381C43.1548 34.9619 43.1792 34.6625 43.31 34.4041C43.5616 33.9874 43.6916 33.5086 43.6852 33.0219C43.6789 32.5352 43.5364 32.0599 43.274 31.65C43.0116 31.24 42.6396 30.9116 42.2003 30.7021C41.761 30.4925 41.2717 30.4101 40.788 30.4641M42.258 36.8641C42.215 37.0031 42.033 36.9851 41.9 36.9871C41.631 36.9871 41.361 36.9871 41.092 36.9871H40.755C39.927 36.9871 39.927 36.9871 40.113 36.1821C40.372 35.0651 40.372 35.0621 41.413 35.0951C41.646 35.1031 41.966 35.0151 42.02 35.3571C42.097 35.8571 42.42 36.3301 42.254 36.8571M41.583 33.9371C39.583 33.9411 37.583 33.9411 35.583 33.9371C33.583 33.9371 31.583 33.9371 29.578 33.9371C28.762 33.9371 28.598 34.1101 28.587 34.9311C28.587 35.2231 28.587 35.5161 28.578 35.8091C28.5886 36.1505 28.476 36.4844 28.2608 36.7497C28.0457 37.015 27.7422 37.194 27.406 37.2541C26.1658 37.4839 24.8943 37.4873 23.653 37.2641C23.2927 37.2016 22.967 37.0117 22.7351 36.7289C22.5033 36.4462 22.3808 36.0896 22.39 35.7241C22.368 33.7908 22.368 31.8544 22.39 29.9151C22.3879 29.7012 22.4288 29.489 22.5102 29.2912C22.5916 29.0933 22.7118 28.9138 22.8638 28.7632C23.0157 28.6126 23.1964 28.4941 23.395 28.4145C23.5936 28.335 23.8061 28.2961 24.02 28.3001C25.009 28.2801 25.999 28.2821 26.988 28.3001C27.1962 28.2949 27.4034 28.3315 27.5971 28.4079C27.7909 28.4843 27.9674 28.5988 28.1161 28.7446C28.2647 28.8905 28.3826 29.0648 28.4626 29.2571C28.5427 29.4494 28.5833 29.6558 28.582 29.8641C28.582 29.8871 28.582 29.9101 28.582 29.9321C28.547 31.7131 28.482 31.7181 30.502 31.7321C34.074 31.7631 37.646 31.6451 41.218 31.7841C41.5235 31.777 41.8209 31.883 42.0531 32.0818C42.2853 32.2806 42.4359 32.5581 42.476 32.8611C42.5186 32.9938 42.5272 33.1352 42.5011 33.2721C42.4749 33.409 42.4148 33.5372 42.3262 33.6449C42.2376 33.7526 42.1234 33.8363 41.9941 33.8884C41.8648 33.9405 41.7245 33.9593 41.586 33.9431" fill="#008F4A"/>
<path d="M40.5381 27.9611C40.5691 28.2831 40.6871 28.5741 41.0981 28.5881C41.1825 28.6015 41.2689 28.5957 41.3508 28.5712C41.4328 28.5466 41.5081 28.5039 41.5713 28.4463C41.6345 28.3887 41.6839 28.3176 41.7159 28.2383C41.7479 28.159 41.7616 28.0735 41.7561 27.9881C41.7841 27.2521 41.7831 26.5131 41.7641 25.7761C41.7729 25.6912 41.763 25.6054 41.7351 25.5248C41.7073 25.4441 41.662 25.3705 41.6026 25.3092C41.5432 25.2479 41.4711 25.2004 41.3914 25.17C41.3116 25.1395 41.2262 25.127 41.1411 25.1331C41.0562 25.1364 40.9729 25.1567 40.8961 25.1928C40.8192 25.2289 40.7504 25.2802 40.6938 25.3434C40.6372 25.4067 40.5938 25.4807 40.5664 25.561C40.539 25.6414 40.528 25.7264 40.5341 25.8111C40.5121 26.1681 40.5291 26.5271 40.5341 26.8841C40.5391 27.2411 40.5081 27.6031 40.5421 27.9571" fill="#008F4A"/>
<path d="M45.726 28.835C46.134 28.301 46.55 27.773 46.952 27.235C47.0248 27.1214 47.0861 27.0008 47.135 26.875C47.1385 26.7406 47.1024 26.6081 47.0313 26.494C46.9602 26.3799 46.8572 26.2891 46.735 26.233C46.6217 26.177 46.4917 26.1653 46.3702 26.2C46.2487 26.2348 46.1445 26.3136 46.078 26.421C45.619 26.97 45.178 27.538 44.744 28.105C44.497 28.425 44.408 28.782 44.791 29.043C44.8645 29.0963 44.9484 29.1335 45.0373 29.152C45.1261 29.1705 45.2179 29.17 45.3066 29.1504C45.3952 29.1309 45.4787 29.0927 45.5515 29.0385C45.6243 28.9843 45.6848 28.9153 45.729 28.836" fill="#008F4A"/>
<path d="M46.236 36.267C46.1087 36.1082 45.9276 36.0015 45.727 35.967C45.6216 35.967 45.5181 35.9946 45.4268 36.0473C45.3356 36.0999 45.2598 36.1757 45.2071 36.2669C45.1544 36.3581 45.1266 36.4616 45.1266 36.5669C45.1266 36.6723 45.1543 36.7758 45.207 36.867C45.645 37.514 46.138 38.125 46.635 38.729C46.6831 38.7927 46.7442 38.8454 46.8143 38.8836C46.8844 38.9218 46.9618 38.9446 47.0414 38.9505C47.121 38.9563 47.201 38.9452 47.2759 38.9177C47.3508 38.8902 47.4191 38.847 47.476 38.791C47.5415 38.7463 47.5963 38.6875 47.6362 38.6189C47.6761 38.5503 47.7001 38.4736 47.7065 38.3945C47.713 38.3154 47.7016 38.2359 47.6733 38.1618C47.645 38.0876 47.6005 38.0207 47.543 37.966C47.1103 37.396 46.6746 36.8304 46.236 36.267Z" fill="#008F4A"/>
<path d="M48.615 32.015C47.8118 31.939 47.0032 31.939 46.2 32.015C46.1259 32.0164 46.0528 32.0334 45.9856 32.0648C45.9185 32.0963 45.8587 32.1416 45.8102 32.1978C45.7617 32.2539 45.7256 32.3196 45.7042 32.3907C45.6828 32.4617 45.6766 32.5364 45.686 32.61C45.6892 32.7592 45.7514 32.901 45.859 33.0043C45.9667 33.1076 46.1109 33.164 46.26 33.161C46.641 33.174 47.022 33.161 47.404 33.161C47.786 33.161 48.167 33.177 48.547 33.161C48.6208 33.164 48.6944 33.1519 48.7633 33.1254C48.8322 33.0988 48.8949 33.0584 48.9476 33.0067C49.0003 32.955 49.0418 32.893 49.0695 32.8246C49.0973 32.7562 49.1107 32.6828 49.109 32.609C49.1239 32.536 49.1223 32.4606 49.1044 32.3883C49.0864 32.3161 49.0525 32.2487 49.0052 32.1912C48.9578 32.1337 48.8982 32.0875 48.8307 32.056C48.7632 32.0244 48.6895 32.0084 48.615 32.009" fill="#008F4A"/>
<path d="M26.335 29.375C25.797 29.349 25.255 29.351 24.717 29.375C24.5524 29.3693 24.3883 29.3974 24.235 29.4577C24.0816 29.5179 23.9422 29.6089 23.8255 29.7251C23.7087 29.8413 23.617 29.9803 23.556 30.1333C23.4951 30.2864 23.4661 30.4503 23.471 30.615C23.4397 32.0776 23.4397 33.5406 23.471 35.004C23.4622 35.1682 23.4879 35.3324 23.5463 35.4861C23.6048 35.6398 23.6949 35.7796 23.8106 35.8964C23.9264 36.0132 24.0654 36.1045 24.2185 36.1643C24.3717 36.2242 24.5357 36.2513 24.7 36.244C25.2614 36.2738 25.824 36.2711 26.385 36.236C26.5389 36.2406 26.692 36.2125 26.8343 36.1535C26.9765 36.0944 27.1045 36.0059 27.2099 35.8937C27.3154 35.7814 27.3957 35.6481 27.4457 35.5025C27.4957 35.3569 27.5142 35.2023 27.5 35.049C27.514 34.307 27.5 33.564 27.5 32.821C27.5 32.078 27.51 31.335 27.5 30.593C27.5092 30.4355 27.4859 30.2778 27.4316 30.1298C27.3774 29.9817 27.2932 29.8463 27.1844 29.7321C27.0757 29.6179 26.9446 29.5273 26.7993 29.4658C26.6541 29.4044 26.4977 29.3735 26.34 29.375M25.827 35.062C25.6028 35.0495 25.3782 35.0495 25.154 35.062C24.805 35.077 24.68 34.911 24.683 34.572C24.693 33.403 24.683 32.233 24.688 31.064C24.688 30.396 25.199 30.574 25.57 30.564C25.941 30.554 26.383 30.454 26.37 31.075C26.358 31.659 26.37 32.244 26.37 32.829C26.37 33.391 26.35 33.954 26.377 34.515C26.397 34.932 26.23 35.09 25.829 35.062" fill="#008F4A"/>
</g>
</g>
<defs>
<linearGradient id="paint0_linear_1_603" x1="-0.0190279" y1="72.9767" x2="1.00332" y2="72.9767" gradientUnits="userSpaceOnUse">
<stop stop-color="#E5E5E6"/>
<stop offset="1" stop-color="#E8E8E8"/>
</linearGradient>
<clipPath id="clip0_1_603">
<rect width="80" height="73" fill="white"/>
</clipPath>
</defs>
</svg>
