<svg width="80" height="73" viewBox="0 0 80 73" fill="none" xmlns="http://www.w3.org/2000/svg">
<g clip-path="url(#clip0_1_633)">
<mask id="mask0_1_633" style="mask-type:luminance" maskUnits="userSpaceOnUse" x="0" y="0" width="80" height="73">
<path d="M80 0H0V73H80V0Z" fill="white"/>
</mask>
<g mask="url(#mask0_1_633)">
<path d="M70.84 36.4999C70.84 42.5995 69.0313 48.5621 65.6425 53.6337C62.2538 58.7053 57.4372 62.6582 51.8019 64.9924C46.1667 67.3266 39.9658 67.9373 33.9834 66.7473C28.001 65.5574 22.5059 62.6201 18.1928 58.3071C13.8798 53.994 10.9425 48.4989 9.75257 42.5165C8.5626 36.5341 9.17334 30.3332 11.5075 24.698C13.8417 19.0627 17.7946 14.2461 22.8662 10.8574C27.9378 7.46865 33.9004 5.65991 40 5.65991C48.1792 5.66018 56.0233 8.90947 61.8069 14.693C67.5904 20.4766 70.8397 28.3207 70.84 36.4999Z" fill="white"/>
<path d="M40 1.35197C47.8058 1.35879 55.3864 3.96855 61.5421 8.76825C67.6979 13.5679 72.0772 20.2834 73.987 27.852H75.378C73.457 19.917 68.9241 12.8582 62.5078 7.80984C56.0914 2.76153 48.1642 0.0168457 40 0.0168457C31.8358 0.0168457 23.9086 2.76153 17.4923 7.80984C11.0759 12.8582 6.54304 19.917 4.62201 27.852H6.01301C7.92285 20.2834 12.3022 13.5679 18.4579 8.76825C24.6136 3.96855 32.1942 1.35879 40 1.35197ZM40 71.652C32.1942 71.6451 24.6136 69.0354 18.4579 64.2357C12.3022 59.436 7.92285 52.7205 6.01301 45.152H4.62201C6.54304 53.087 11.0759 60.1458 17.4923 65.1941C23.9086 70.2424 31.8358 72.9871 40 72.9871C48.1642 72.9871 56.0914 70.2424 62.5078 65.1941C68.9241 60.1458 73.457 53.087 75.378 45.152H73.987C72.0764 52.7198 67.6968 59.4344 61.5411 64.2333C55.3854 69.0322 47.8053 71.6414 40 71.648" fill="#008F4A"/>
</g>
<mask id="mask1_1_633" style="mask-type:luminance" maskUnits="userSpaceOnUse" x="9" y="6" width="61" height="61">
<path d="M10.652 36.5C10.6664 30.8721 12.3485 25.3746 15.4857 20.7022C18.623 16.0298 23.0746 12.3919 28.2783 10.2482C33.482 8.10456 39.2043 7.5512 44.7224 8.65807C50.2404 9.76494 55.3066 12.4824 59.281 16.4671C63.2554 20.4518 65.9597 25.5251 67.0523 31.046C68.1448 36.5669 67.5766 42.2877 65.4194 47.4859C63.2622 52.684 59.6128 57.1262 54.9323 60.2513C50.2517 63.3764 44.7499 65.0442 39.122 65.044C31.5617 65.0334 24.3152 62.0203 18.9762 56.6675C13.6372 51.3146 10.643 44.0603 10.652 36.5ZM9.12197 36.5C9.13719 42.4438 10.9136 48.2497 14.2269 53.1844C17.5402 58.1191 22.2416 61.9611 27.7373 64.2252C33.233 66.4892 39.2765 67.0737 45.1042 65.9048C50.9319 64.7359 56.2825 61.8661 60.48 57.6578C64.6776 53.4495 67.5337 48.0916 68.6877 42.2609C69.8417 36.4302 69.2418 30.3883 66.9637 24.8984C64.6856 19.4085 60.8315 14.7169 55.8884 11.4162C50.9452 8.11561 45.1348 6.35402 39.191 6.354C35.2372 6.35899 31.3231 7.1427 27.6722 8.66039C24.0213 10.1781 20.7051 12.4 17.9129 15.1994C15.1207 17.9987 12.9072 21.3206 11.3989 24.9754C9.89055 28.6301 9.11685 32.5462 9.12197 36.5Z" fill="white"/>
</mask>
<g mask="url(#mask1_1_633)">
<path d="M69.2599 6.354H9.12195V66.646H69.2599V6.354Z" fill="url(#paint0_linear_1_633)"/>
</g>
<mask id="mask2_1_633" style="mask-type:luminance" maskUnits="userSpaceOnUse" x="0" y="0" width="80" height="73">
<path d="M80 0H0V73H80V0Z" fill="white"/>
</mask>
<g mask="url(#mask2_1_633)">
<path d="M77.358 36.5L80 30.637H71.832C70.481 23.1787 66.5541 16.4316 60.7364 11.573C54.9187 6.71448 47.5797 4.05298 40 4.05298C32.4203 4.05298 25.0813 6.71448 19.2636 11.573C13.4459 16.4316 9.51897 23.1787 8.168 30.637H0L2.641 36.5L0 42.369H8.169C9.52224 49.8252 13.45 56.5697 19.2673 61.4262C25.0845 66.2827 32.422 68.9429 40 68.9429C47.578 68.9429 54.9155 66.2827 60.7327 61.4262C66.55 56.5697 70.4778 49.8252 71.831 42.369H80L77.358 36.5ZM40 66.646C34.0341 66.6617 28.1977 64.9068 23.2297 61.6037C18.2616 58.3006 14.3853 53.5977 12.0914 48.0904C9.7976 42.5831 9.18937 36.519 10.3437 30.6658C11.4981 24.8127 14.3632 19.4336 18.5763 15.2096C22.7893 10.9856 28.161 8.10661 34.0111 6.93707C39.8613 5.76754 45.9269 6.36006 51.4401 8.63963C56.9534 10.9192 61.6663 14.7833 64.9823 19.7428C68.2982 24.7023 70.0682 30.5341 70.068 36.5C70.0731 40.4537 69.2995 44.3697 67.7912 48.0244C66.2829 51.6792 64.0695 55.001 61.2774 57.8003C58.4854 60.5996 55.1693 62.8216 51.5185 64.3393C47.8677 65.8571 43.9537 66.6409 40 66.646Z" fill="#283583"/>
<path d="M38.477 34.127C39.3278 33.4441 40.2305 32.8286 41.177 32.286C41.3604 32.184 41.5174 32.0404 41.6353 31.8667C41.7533 31.6931 41.8288 31.4942 41.856 31.286C41.976 30.397 42.173 29.519 42.299 28.631C42.3285 28.123 42.505 27.6345 42.807 27.225C43.1089 26.8154 43.5234 26.5024 44 26.324C44.7675 25.904 45.6102 25.6389 46.48 25.544C46.8774 25.5246 47.2725 25.6151 47.6218 25.8057C47.9711 25.9962 48.2611 26.2794 48.46 26.624C49.723 28.943 51.023 31.251 52.06 33.679C52.4849 34.8648 52.7175 36.1108 52.749 37.37C52.9613 39.4261 53.6959 41.3938 54.883 43.086C55.091 43.4049 55.2829 43.734 55.458 44.072C55.644 44.428 55.958 44.422 56.273 44.38C56.673 44.326 56.583 43.994 56.583 43.742C56.587 37.4 56.59 31.0584 56.592 24.717C56.592 24.36 56.543 24.1 56.121 24.051C56.0808 24.0506 56.0412 24.0419 56.0045 24.0255C55.9679 24.009 55.935 23.9851 55.9081 23.9553C55.8811 23.9256 55.8606 23.8905 55.8479 23.8524C55.8351 23.8144 55.8304 23.774 55.834 23.734C55.8448 23.6429 55.8903 23.5594 55.9611 23.5009C56.0318 23.4424 56.1224 23.4135 56.214 23.42C56.506 23.405 56.798 23.407 57.09 23.398C57.222 23.398 57.39 23.426 57.443 23.274C57.496 23.122 57.378 23.025 57.289 22.926C56.889 22.471 56.475 22.026 56.089 21.562C55.831 21.254 55.621 21.292 55.382 21.575C54.99 22.038 54.587 22.491 54.187 22.947C53.916 23.255 53.965 23.409 54.393 23.413C54.793 23.413 54.948 23.663 54.95 24.026C54.956 24.746 54.95 25.466 54.95 26.185C54.95 26.453 54.887 26.727 54.583 26.727C54.279 26.727 54.213 26.457 54.214 26.186C54.214 25.714 54.193 25.24 54.22 24.77C54.247 24.3 54.096 24.05 53.575 24.087C53.298 24.106 52.941 24.196 52.784 23.87C52.627 23.544 52.95 23.337 53.127 23.129C53.827 22.307 54.551 21.51 55.247 20.687C55.595 20.277 55.887 20.276 56.234 20.687C56.992 21.575 57.766 22.45 58.534 23.326C58.672 23.483 58.823 23.637 58.727 23.858C58.631 24.079 58.413 24.079 58.209 24.098C57.24 24.186 57.24 24.187 57.24 25.135V44.025C57.24 45.04 57.24 45.041 56.24 45.041C51.022 45.041 45.804 45.051 40.587 45.029C39.955 45.029 39.687 45.181 39.734 45.853C39.785 46.636 39.725 47.427 39.751 48.213C39.77 48.775 39.525 48.962 38.984 48.957C36.915 48.94 34.846 48.969 32.777 48.94C32.2 48.932 31.963 49.085 31.998 49.696C32.045 50.503 31.998 51.315 32.013 52.124C32.023 52.641 31.8 52.845 31.282 52.841C29.326 52.825 27.369 52.841 25.412 52.83C25.163 52.83 24.789 52.93 24.771 52.53C24.752 52.09 25.152 52.191 25.423 52.158C25.556 52.142 25.692 52.14 25.823 52.132L26.612 52.14L28.13 52.133C28.3603 52.1946 28.605 52.1719 28.82 52.069C29.42 52.084 30.031 52.078 30.633 52.121C31.152 52.157 31.295 51.921 31.278 51.447C31.251 50.708 31.269 49.967 31.271 49.227C31.271 48.316 31.33 48.261 32.213 48.252C32.684 48.252 33.154 48.231 33.624 48.219L34.392 48.246L35.606 48.237L36.361 48.226C37.079 48.235 37.797 48.226 38.514 48.259C38.914 48.275 39.084 48.14 39.063 47.721C39.036 47.161 39.051 46.599 39.058 46.037C39.079 44.216 38.807 44.43 40.658 44.422C42.458 44.414 42.493 44.422 42.551 42.565C42.4951 41.6252 42.6506 40.6847 43.0061 39.8129C43.3616 38.941 43.9079 38.1599 44.605 37.527C44.928 37.258 45.147 36.866 45.456 36.577C45.6359 36.4242 45.763 36.2185 45.819 35.9891C45.8751 35.7598 45.8572 35.5186 45.768 35.3C45.532 34.553 45.322 33.8 45.075 33.054C45.008 32.854 45.08 32.506 44.842 32.471C44.542 32.427 44.45 32.788 44.297 32.993C43.938 33.476 43.736 34.153 43.189 34.403C41.8873 35.0411 40.5459 35.5946 39.173 36.06C39.229 35.796 39.286 35.531 39.342 35.267C40.17 34.928 40.98 34.535 41.829 34.267C42.5806 34.031 43.2133 33.5161 43.597 32.828C44.029 32.12 44.515 31.446 44.997 30.767C45.106 30.612 45.251 30.401 45.487 30.534C45.704 30.655 45.695 30.872 45.572 31.063C45.4854 31.2329 45.4387 31.4202 45.4354 31.6108C45.4321 31.8014 45.4723 31.9903 45.553 32.163C45.862 33.239 46.174 34.315 46.515 35.382C46.6146 35.5954 46.6452 35.8345 46.6026 36.0661C46.5599 36.2977 46.4461 36.5102 46.277 36.674C45.865 37.084 45.537 37.582 45.117 37.983C44.5128 38.4714 44.0341 39.0971 43.721 39.8081C43.4079 40.5191 43.2694 41.2946 43.317 42.07C43.3065 42.4518 43.2549 42.8313 43.163 43.202C42.998 44.423 43.018 44.424 44.25 44.428C44.759 44.428 44.967 44.265 45.008 43.743C45.066 43.006 45.236 42.279 45.316 41.543C45.3442 41.178 45.461 40.8253 45.6561 40.5155C45.8512 40.2057 46.1189 39.9481 46.436 39.765C47.826 38.865 49.111 37.794 50.495 36.879C51.0233 36.5446 51.404 36.0209 51.559 35.4151C51.714 34.8093 51.6317 34.1672 51.329 33.62C50.3 31.529 49.2 29.474 48.129 27.404C47.738 26.648 47.129 26.038 46.272 26.252C45.072 26.552 43.704 26.708 43.109 28.099C43.0898 28.1641 43.0784 28.2313 43.075 28.299C42.897 29.3377 42.719 30.3764 42.541 31.415C42.472 31.815 42.441 32.244 42.063 32.49C41.087 33.124 40.1 33.74 39.117 34.363C38.877 34.343 38.605 34.413 38.464 34.124M48.872 44.4C49.792 44.4 50.712 44.394 51.632 44.4C52.121 44.4 52.184 44.207 51.932 43.834C51.832 43.686 51.732 43.534 51.62 43.396C50.5074 42.1852 49.7906 40.6638 49.565 39.035C49.531 38.66 49.315 38.577 49.012 38.794C48.12 39.433 47.234 40.079 46.345 40.723C46.267 40.7867 46.2036 40.8665 46.1593 40.957C46.1149 41.0474 46.0906 41.1463 46.088 41.247C45.967 42.112 45.855 42.979 45.699 43.838C45.62 44.275 45.776 44.406 46.182 44.402C47.082 44.391 47.977 44.402 48.875 44.402M53.835 44.402C54.835 44.407 54.846 44.397 54.405 43.612C54.284 43.398 54.145 43.193 54.032 42.975C53.413 41.775 52.502 40.709 52.365 39.275C52.295 38.541 52.132 37.817 52.032 37.085C51.986 36.745 51.902 36.624 51.587 36.885C51.224 37.185 50.845 37.46 50.466 37.737C50.235 37.906 50.046 38.098 50.127 38.407C50.2601 39.584 50.647 40.7181 51.261 41.731C51.79 42.395 52.287 43.089 52.748 43.802C53.036 44.247 53.365 44.502 53.835 44.402Z" fill="#008F4A"/>
<path d="M36.371 48.2271L35.616 48.2381C35.943 46.4951 36.203 44.7381 36.381 42.9771C36.4136 42.8033 36.4107 42.6248 36.3726 42.4521C36.3345 42.2795 36.2619 42.1163 36.1591 41.9724C36.0564 41.8285 35.9257 41.7068 35.7748 41.6146C35.6239 41.5225 35.4559 41.4618 35.281 41.4361C34.174 41.1541 33.054 40.9171 31.931 40.6991C31.448 40.6061 31.306 40.3831 31.365 39.9081C31.572 38.2361 31.755 36.5621 31.936 34.8871C31.9603 34.7424 31.9544 34.5941 31.9187 34.4517C31.8831 34.3094 31.8184 34.1759 31.7287 34.0597C31.6391 33.9434 31.5264 33.847 31.3977 33.7763C31.269 33.7057 31.1272 33.6624 30.981 33.6491C29.84 33.5421 28.697 33.4641 27.554 33.3791C27.0473 33.3342 26.5381 33.4313 26.0836 33.6597C25.6291 33.8881 25.2473 34.2387 24.981 34.6721C24.5681 35.339 24.1188 35.9827 23.635 36.6001C22.435 37.9661 22.259 39.6731 21.935 41.3371C21.8949 41.4563 21.9023 41.5864 21.9558 41.7002C22.0093 41.8141 22.1046 41.9029 22.222 41.9481C22.533 42.0621 22.69 41.8001 22.776 41.5821C22.9443 41.1901 23.0658 40.7796 23.138 40.3591C23.438 38.1421 25.196 36.9191 26.499 35.3881C26.5566 35.3162 26.6376 35.2668 26.7279 35.2485C26.8181 35.2302 26.912 35.2442 26.993 35.2881C27.173 35.3741 27.165 35.5401 27.151 35.6951C27.132 35.9181 27.095 36.1411 27.062 36.3631C26.8186 37.5968 26.6602 38.8457 26.588 40.1011C26.5457 40.3931 26.5641 40.6907 26.642 40.9753C26.7199 41.2598 26.8556 41.5253 27.0406 41.7551C27.2257 41.9849 27.4561 42.1741 27.7175 42.3109C27.9789 42.4477 28.2657 42.5291 28.56 42.5501C30.239 42.8501 31.926 43.1131 33.615 43.3571C34.704 43.5141 34.748 43.5621 34.606 44.6851C34.4449 45.8632 34.378 47.0524 34.406 48.2411L33.638 48.2141C33.725 47.1841 33.817 46.1541 33.901 45.1241C33.99 44.0241 33.981 44.0661 32.862 43.9051C31.1632 43.7455 29.4799 43.4506 27.828 43.0231C27.319 42.8641 27.237 43.0451 27.212 43.4591C27.164 44.2671 27.097 45.0731 27.05 45.8811C26.927 47.9671 26.623 50.0401 26.626 52.1341L25.836 52.1261C26.018 50.0241 26.1997 47.9218 26.381 45.8191C26.435 45.1921 26.481 44.5651 26.54 43.9401C26.7163 43.1534 26.5944 42.3292 26.198 41.6271C25.8064 40.8307 25.7213 39.9182 25.959 39.0631C26.036 38.5521 26.104 38.0401 26.166 37.5281C26.186 37.3601 26.29 37.1431 26.091 37.0401C25.875 36.9271 25.791 37.1761 25.666 37.2801C24.6057 38.2276 23.9028 39.5105 23.675 40.9141C23.5958 41.2408 23.499 41.5629 23.385 41.8791C23.305 42.1406 23.1275 42.3613 22.8891 42.4954C22.6508 42.6294 22.37 42.6666 22.105 42.5991C21.9738 42.5909 21.8458 42.5548 21.7297 42.4931C21.6136 42.4314 21.512 42.3456 21.4318 42.2414C21.3515 42.1372 21.2945 42.0171 21.2646 41.8891C21.2346 41.761 21.2324 41.6281 21.258 41.4991C21.571 39.9111 21.589 38.2351 22.644 36.8541C23.297 36.0011 23.863 35.0811 24.484 34.2021C24.8538 33.6611 25.3678 33.2344 25.9676 32.9703C26.5674 32.7063 27.2292 32.6155 27.878 32.7081C27.968 32.7151 28.056 32.7451 28.145 32.7481C32.383 32.8611 31.051 32.8331 34.995 35.1781C35.1847 35.327 35.4162 35.413 35.6571 35.4241C35.898 35.4352 36.1364 35.3709 36.339 35.2401C37.033 34.8341 37.765 34.4921 38.48 34.1221C38.621 34.4111 38.893 34.3401 39.132 34.3601C39.085 34.6921 39.322 34.9521 39.361 35.2601C39.304 35.5251 39.248 35.7891 39.191 36.0541C38.1243 36.7054 37.0537 37.3554 35.979 38.0041C35.9075 38.0598 35.8241 38.0983 35.7353 38.1167C35.6466 38.1351 35.5548 38.1328 35.467 38.1101C34.705 37.8471 33.939 37.5931 33.184 37.3101C32.973 37.2321 32.764 37.0731 32.9 36.7951C33.017 36.5551 33.247 36.6221 33.434 36.6871C34.004 36.8871 34.5707 37.0971 35.134 37.3171C35.328 37.3931 35.534 37.4881 35.717 37.3821C36.626 36.8501 37.528 36.3071 38.417 35.7431C38.5127 35.68 38.5804 35.5824 38.6059 35.4706C38.6315 35.3588 38.6129 35.2415 38.554 35.1431C38.392 34.8521 38.169 35.0121 37.975 35.1131C37.4 35.4131 36.82 35.7131 36.259 36.0351C36.0741 36.1587 35.8545 36.2199 35.6323 36.2098C35.4101 36.1997 35.197 36.1189 35.024 35.9791C34.396 35.5491 33.741 35.1581 33.088 34.7671C32.893 34.6501 32.638 34.4431 32.588 34.9211C32.422 36.4611 32.244 38.0001 32.069 39.5391C32.031 39.8721 32.1 40.0781 32.498 40.1451C33.426 40.3011 34.346 40.5061 35.268 40.6971C35.5603 40.7538 35.8385 40.8677 36.0865 41.0324C36.3346 41.197 36.5476 41.4092 36.7134 41.6565C36.8791 41.9038 36.9942 42.1815 37.0522 42.4736C37.1101 42.7656 37.1097 43.0662 37.051 43.3581C36.793 44.9741 36.597 46.6001 36.375 48.2221" fill="#283583"/>
<path d="M27.724 28.917C27.7297 28.4867 27.8505 28.0657 28.0738 27.6979C28.2972 27.33 28.6149 27.0286 28.994 26.825C29.3597 26.6205 29.7741 26.5191 30.193 26.5318C30.6118 26.5445 31.0193 26.6707 31.372 26.897C31.9159 27.3054 32.2978 27.893 32.4501 28.5559C32.6024 29.2188 32.5152 29.9142 32.204 30.519C31.9727 31.0764 31.5316 31.5206 30.9758 31.7557C30.4201 31.9909 29.7941 31.9981 29.233 31.776C28.268 31.476 27.703 30.535 27.724 28.917ZM31.794 29.145C31.8467 28.7521 31.7626 28.353 31.5557 28.0148C31.3488 27.6766 31.0318 27.42 30.658 27.288C30.3505 27.1769 30.0163 27.1623 29.7002 27.2461C29.3841 27.3299 29.1011 27.5081 28.889 27.757C28.6021 28.1454 28.4282 28.6056 28.3864 29.0866C28.3446 29.5677 28.4365 30.0509 28.652 30.483C28.7748 30.6981 28.9484 30.8798 29.1575 31.0125C29.3667 31.1451 29.6051 31.2246 29.852 31.244C31.03 31.352 31.792 30.529 31.793 29.144" fill="#283583"/>
<path d="M45.584 23.211C45.5937 23.5208 45.5396 23.8293 45.4252 24.1174C45.3108 24.4054 45.1385 24.6669 44.919 24.8857C44.6994 25.1045 44.4373 25.2759 44.1489 25.3893C43.8604 25.5027 43.5518 25.5557 43.242 25.545C42.5007 25.4542 41.8221 25.0836 41.345 24.5091C40.8678 23.9345 40.6282 23.1994 40.675 22.454C40.6761 22.1442 40.7397 21.8378 40.8621 21.5532C40.9845 21.2686 41.1631 21.0117 41.3872 20.7978C41.6114 20.584 41.8764 20.4176 42.1664 20.3087C42.4565 20.1998 42.7655 20.1506 43.075 20.164C43.8071 20.2468 44.4782 20.611 44.9466 21.1796C45.415 21.7482 45.6429 22.4767 45.584 23.211ZM44.936 23.197C44.9606 22.6435 44.7824 22.0999 44.4348 21.6684C44.0872 21.2369 43.5941 20.947 43.048 20.853C42.828 20.8472 42.6091 20.8854 42.4041 20.9655C42.1991 21.0457 42.0122 21.166 41.8545 21.3195C41.6968 21.4731 41.5715 21.6566 41.4858 21.8594C41.4002 22.0621 41.3561 22.28 41.356 22.5C41.3238 23.0519 41.4993 23.5959 41.8479 24.0249C42.1966 24.4538 42.6932 24.7368 43.24 24.818C43.4595 24.8311 43.6794 24.7988 43.8858 24.7231C44.0923 24.6475 44.2809 24.5301 44.4399 24.3782C44.599 24.2264 44.725 24.0434 44.8102 23.8407C44.8954 23.638 44.9379 23.4199 44.935 23.2" fill="#008F4A"/>
<path d="M54.6 29.6321C54.7212 29.6579 54.8282 29.7285 54.8997 29.8296C54.9712 29.9308 55.0021 30.0552 54.986 30.1781C54.976 30.4421 54.886 30.6881 54.578 30.6781C54.27 30.6681 54.197 30.4141 54.199 30.1521C54.1847 30.0304 54.2185 29.9079 54.2933 29.8107C54.368 29.7136 54.4787 29.6495 54.6 29.6321Z" fill="#008F4A"/>
<path d="M54.976 32.0819C54.94 32.3619 54.9 32.6239 54.563 32.6039C54.292 32.5879 54.198 32.3989 54.19 32.1429C54.182 31.8619 54.29 31.6239 54.567 31.6079C54.844 31.5919 54.96 31.8419 54.976 32.0819Z" fill="#008F4A"/>
<path d="M54.618 28.7409C54.5073 28.7201 54.4074 28.6612 54.3356 28.5745C54.2638 28.4877 54.2247 28.3785 54.225 28.2659C54.213 28.0329 54.259 27.7979 54.525 27.7509C54.811 27.7009 54.899 27.9269 54.939 28.1559C54.9597 28.2756 54.939 28.3988 54.8803 28.5052C54.8216 28.6115 54.7283 28.6947 54.616 28.7409" fill="#008F4A"/>
<path d="M28.141 52.134C28.461 49.822 28.775 47.51 29.106 45.2C29.158 44.836 29.045 44.206 29.606 44.288C30.106 44.361 29.838 44.934 29.793 45.272C29.493 47.54 29.156 49.804 28.832 52.072C28.617 52.1749 28.3723 52.1976 28.142 52.136" fill="#2A327B"/>
</g>
</g>
<defs>
<linearGradient id="paint0_linear_1_633" x1="-0.0190279" y1="72.9767" x2="1.00332" y2="72.9767" gradientUnits="userSpaceOnUse">
<stop stop-color="#E5E5E6"/>
<stop offset="1" stop-color="#E8E8E8"/>
</linearGradient>
<clipPath id="clip0_1_633">
<rect width="80" height="73" fill="white"/>
</clipPath>
</defs>
</svg>
