<svg width="60" height="60" viewBox="0 0 60 60" fill="none" xmlns="http://www.w3.org/2000/svg">
<mask id="mask0_1_1426" style="mask-type:alpha" maskUnits="userSpaceOnUse" x="0" y="0" width="60" height="60">
<rect width="60" height="60" fill="#D9D9D9"/>
</mask>
<g mask="url(#mask0_1_1426)">
<path d="M38.1162 11.8751C37.4137 11.8751 36.8229 11.6326 36.3438 11.1476C35.8646 10.6625 35.625 10.0688 35.625 9.36633C35.625 8.66388 35.8675 8.07306 36.3526 7.5939C36.8376 7.11473 37.4314 6.87515 38.1338 6.87515C38.8363 6.87515 39.4271 7.11767 39.9062 7.60271C40.3854 8.08775 40.625 8.6815 40.625 9.38396C40.625 10.0864 40.3825 10.6772 39.8974 11.1564C39.4124 11.6356 38.8186 11.8751 38.1162 11.8751ZM38.1162 53.1251C37.4137 53.1251 36.8229 52.8826 36.3438 52.3976C35.8646 51.9125 35.625 51.3188 35.625 50.6163C35.625 49.9139 35.8675 49.3231 36.3526 48.8439C36.8376 48.3647 37.4314 48.1251 38.1338 48.1251C38.8363 48.1251 39.4271 48.3677 39.9062 48.8527C40.3854 49.3377 40.625 49.9315 40.625 50.634C40.625 51.3364 40.3825 51.9272 39.8974 52.4064C39.4124 52.8856 38.8186 53.1251 38.1162 53.1251ZM48.1162 20.6251C47.4137 20.6251 46.8229 20.3826 46.3438 19.8976C45.8646 19.4125 45.625 18.8188 45.625 18.1163C45.625 17.4139 45.8675 16.8231 46.3526 16.3439C46.8376 15.8647 47.4314 15.6251 48.1338 15.6251C48.8363 15.6251 49.4271 15.8677 49.9062 16.3527C50.3854 16.8377 50.625 17.4315 50.625 18.134C50.625 18.8364 50.3825 19.4272 49.8974 19.9064C49.4124 20.3856 48.8186 20.6251 48.1162 20.6251ZM48.1162 44.3751C47.4137 44.3751 46.8229 44.1326 46.3438 43.6476C45.8646 43.1625 45.625 42.5688 45.625 41.8663C45.625 41.1639 45.8675 40.5731 46.3526 40.0939C46.8376 39.6147 47.4314 39.3751 48.1338 39.3751C48.8363 39.3751 49.4271 39.6177 49.9062 40.1027C50.3854 40.5877 50.625 41.1815 50.625 41.884C50.625 42.5864 50.3825 43.1772 49.8974 43.6564C49.4124 44.1356 48.8186 44.3751 48.1162 44.3751ZM51.8662 32.5001C51.1637 32.5001 50.5729 32.2576 50.0938 31.7726C49.6146 31.2875 49.375 30.6938 49.375 29.9913C49.375 29.2889 49.6175 28.6981 50.1026 28.2189C50.5876 27.7397 51.1814 27.5001 51.8838 27.5001C52.5863 27.5001 53.1771 27.7427 53.6562 28.2277C54.1354 28.7128 54.375 29.3065 54.375 30.009C54.375 30.7114 54.1325 31.3022 53.6474 31.7814C53.1624 32.2606 52.5686 32.5001 51.8662 32.5001ZM5 30.0103C5 23.4202 7.20833 17.7501 11.625 13.0001C16.0417 8.25015 21.4792 5.60431 27.9375 5.06265C28.4792 5.02098 28.9583 5.17983 29.375 5.53921C29.7917 5.89858 30 6.3439 30 6.87515C30 7.37515 29.8345 7.80783 29.5034 8.17321C29.1723 8.53858 28.7545 8.75173 28.25 8.81265C22.75 9.27098 18.125 11.5238 14.375 15.571C10.625 19.6182 8.75 24.4298 8.75 30.006C8.75 35.6271 10.625 40.4481 14.375 44.4689C18.125 48.4897 22.75 50.7293 28.25 51.1876C28.7545 51.2491 29.1723 51.4644 29.5034 51.8335C29.8345 52.2025 30 52.6331 30 53.1251C30 53.6564 29.7917 54.1017 29.375 54.4611C28.9583 54.8205 28.4792 54.9793 27.9375 54.9376C21.4792 54.396 16.0417 51.7535 11.625 47.0103C7.20833 42.2671 5 36.6005 5 30.0103Z" fill="#1649B7"/>
<path d="M29.9944 34.3752C28.7898 34.3752 27.7604 33.9468 26.9062 33.0901C26.0521 32.2333 25.625 31.2033 25.625 30.0002C25.625 29.7528 25.6458 29.493 25.6875 29.2209C25.7292 28.9487 25.7917 28.7016 25.875 28.4794L22.1875 24.8127C21.8125 24.4377 21.625 24.0002 21.625 23.5002C21.625 23.0002 21.8125 22.5627 22.1875 22.1877C22.5625 21.8127 23 21.6356 23.5 21.6564C24 21.6773 24.4375 21.8543 24.8125 22.1877L28.5625 25.8752C28.7708 25.7918 29.25 25.7085 30 25.6252C31.2031 25.6252 32.2331 26.0541 33.0899 26.912C33.9466 27.7698 34.375 28.8011 34.375 30.0057C34.375 31.2104 33.9461 32.2398 33.0882 33.0939C32.2304 33.9481 31.1991 34.3752 29.9944 34.3752Z" fill="#5FB157"/>
</g>
</svg>
