<svg width="60" height="60" viewBox="0 0 60 60" fill="none" xmlns="http://www.w3.org/2000/svg">
<mask id="mask0_1_1442" style="mask-type:alpha" maskUnits="userSpaceOnUse" x="0" y="0" width="60" height="60">
<rect width="60" height="60" fill="#D9D9D9"/>
</mask>
<g mask="url(#mask0_1_1442)">
<path d="M53.75 51.8125V11.25H6.25V29.375C6.25 29.9062 6.06927 30.3516 5.70781 30.7109C5.34631 31.0703 4.8984 31.25 4.36406 31.25C3.82969 31.25 3.38542 31.0703 3.03125 30.7109C2.67708 30.3516 2.5 29.9062 2.5 29.375V11.25C2.5 10.2188 2.86719 9.33594 3.60156 8.60156C4.33594 7.86719 5.21875 7.5 6.25 7.5H53.75C54.7812 7.5 55.6641 7.86719 56.3984 8.60156C57.1328 9.33594 57.5 10.2188 57.5 11.25V47.5C57.5 48.5833 57.1458 49.5312 56.4375 50.3438C55.7292 51.1562 54.8333 51.6458 53.75 51.8125Z" fill="#1649B7"/>
<path d="M22.5 34.9375C19.75 34.9375 17.5 34.0625 15.75 32.3125C14 30.5625 13.125 28.3125 13.125 25.5625C13.125 22.8125 14 20.5625 15.75 18.8125C17.5 17.0625 19.75 16.1875 22.5 16.1875C25.25 16.1875 27.5 17.0625 29.25 18.8125C31 20.5625 31.875 22.8125 31.875 25.5625C31.875 28.3125 31 30.5625 29.25 32.3125C27.5 34.0625 25.25 34.9375 22.5 34.9375ZM6.25 55C5.21875 55 4.33594 54.6328 3.60156 53.8984C2.86719 53.1641 2.5 52.2812 2.5 51.25V49.125C2.5 47.5417 2.89583 46.1875 3.6875 45.0625C4.47917 43.9375 5.5 43.0833 6.75 42.5C9.54167 41.25 12.2188 40.3125 14.7812 39.6875C17.3438 39.0625 19.9167 38.75 22.5 38.75C25.0833 38.75 27.6458 39.0729 30.1875 39.7188C32.7292 40.3646 35.3942 41.2957 38.1826 42.5121C39.4868 43.1007 40.5324 43.9542 41.3194 45.0725C42.1065 46.1908 42.5 47.5417 42.5 49.125V51.25C42.5 52.2812 42.1328 53.1641 41.3984 53.8984C40.6641 54.6328 39.7812 55 38.75 55H6.25Z" fill="#5FB157"/>
</g>
</svg>
