<svg width="60" height="60" viewBox="0 0 60 60" fill="none" xmlns="http://www.w3.org/2000/svg">
<mask id="mask0_1_1434" style="mask-type:alpha" maskUnits="userSpaceOnUse" x="0" y="0" width="60" height="60">
<rect width="60" height="60" fill="#D9D9D9"/>
</mask>
<g mask="url(#mask0_1_1434)">
<path d="M30 55C25.5833 55 21.9792 54.3542 19.1875 53.0625C16.3958 51.7708 15 50.125 15 48.125C15 47 15.5104 45.9375 16.5312 44.9375C17.5521 43.9375 18.9583 43.125 20.75 42.5L21.875 46.125C21.2083 46.3333 20.5938 46.625 20.0313 47C19.4688 47.375 19.0208 47.75 18.6875 48.125C19.3958 48.9583 20.8646 49.6875 23.0938 50.3125C25.3229 50.9375 27.625 51.25 30 51.25C32.375 51.25 34.6875 50.9375 36.9375 50.3125C39.1875 49.6875 40.6667 48.9583 41.375 48.125C41.0417 47.7917 40.6042 47.4375 40.0625 47.0625C39.5208 46.6875 38.8958 46.375 38.1875 46.125L39.25 42.5C41.0417 43.125 42.4479 43.9375 43.4688 44.9375C44.4896 45.9375 45 47 45 48.125C45 50.125 43.6042 51.7708 40.8125 53.0625C38.0208 54.3542 34.4167 55 30 55Z" fill="#1649B7"/>
<path d="M30 48.375C29.5 48.375 29.0625 48.2292 28.6875 47.9375C28.3125 47.6458 28.0417 47.2708 27.875 46.8125C26.875 43.7708 25.625 41.25 24.125 39.25C22.625 37.25 21.1667 35.3333 19.75 33.5C18.3333 31.6667 17.125 29.7604 16.125 27.7812C15.125 25.8021 14.625 23.3333 14.625 20.375C14.625 16.0833 16.1146 12.4479 19.0938 9.46875C22.0729 6.48958 25.7083 5 30 5C34.2917 5 37.9271 6.48958 40.9062 9.46875C43.8854 12.4479 45.375 16.0833 45.375 20.375C45.375 23.3333 44.875 25.8021 43.875 27.7812C42.875 29.7604 41.6667 31.6667 40.25 33.5C38.8333 35.3333 37.375 37.25 35.875 39.25C34.375 41.25 33.125 43.7708 32.125 46.8125C31.9583 47.2708 31.6875 47.6458 31.3125 47.9375C30.9375 48.2292 30.5 48.375 30 48.375ZM30 24.125C31.0417 24.125 31.9271 23.7604 32.6562 23.0312C33.3854 22.3021 33.75 21.4167 33.75 20.375C33.75 19.3333 33.3854 18.4479 32.6562 17.7188C31.9271 16.9896 31.0417 16.625 30 16.625C28.9583 16.625 28.0729 16.9896 27.3438 17.7188C26.6146 18.4479 26.25 19.3333 26.25 20.375C26.25 21.4167 26.6146 22.3021 27.3438 23.0312C28.0729 23.7604 28.9583 24.125 30 24.125Z" fill="#5FB157"/>
</g>
</svg>
