<svg width="21" height="34" viewBox="0 0 21 34" fill="none" xmlns="http://www.w3.org/2000/svg">
<path d="M10.5002 33.6667C7.55576 33.6667 5.15298 33.2246 3.29187 32.3403C1.43076 31.456 0.500203 30.3241 0.500203 28.9445C0.500203 28.1204 0.861314 27.3658 1.58354 26.6806C2.30576 25.9954 3.30112 25.4445 4.56962 25.0278L5.38908 27.6945C4.93538 27.8334 4.51872 28.0209 4.13908 28.257C3.75944 28.4931 3.4724 28.7222 3.27795 28.9445C3.71315 29.463 4.6437 29.9167 6.06962 30.3056C7.49556 30.6945 8.97243 30.8889 10.5002 30.8889C12.028 30.8889 13.5118 30.6945 14.9516 30.3056C16.3914 29.9167 17.3289 29.463 17.7641 28.9445C17.5697 28.7407 17.2873 28.5208 16.9169 28.2847C16.5465 28.0486 16.1252 27.8519 15.653 27.6945L16.4447 25.0278C17.7132 25.4445 18.7062 25.9954 19.4238 26.6806C20.1414 27.3658 20.5002 28.1204 20.5002 28.9445C20.5002 30.3241 19.5696 31.456 17.7085 32.3403C15.8474 33.2246 13.4446 33.6667 10.5002 33.6667ZM10.5002 23.9862C11.0577 22.9584 11.6461 22.0163 12.2655 21.1598C12.885 20.3033 13.4956 19.4908 14.0975 18.7223C15.2548 17.2223 16.1715 15.9144 16.8475 14.7986C17.5234 13.6829 17.8613 12.2401 17.8613 10.4702C17.8613 8.42082 17.1464 6.68197 15.7165 5.25363C14.2866 3.82527 12.5459 3.11109 10.4942 3.11109C8.44266 3.11109 6.7039 3.82527 5.27795 5.25363C3.85204 6.68197 3.13908 8.42082 3.13908 10.4702C3.13908 12.2401 3.47704 13.6829 4.15295 14.7986C4.8289 15.9144 5.74556 17.2223 6.90295 18.7223C7.50481 19.4908 8.11545 20.3033 8.73487 21.1598C9.35429 22.0163 9.94273 22.9584 10.5002 23.9862ZM10.5002 29.0556C10.1761 29.0556 9.88908 28.9628 9.63908 28.7772C9.38908 28.5917 9.20852 28.3419 9.09741 28.0278C8.44002 26.0186 7.61577 24.3473 6.62466 23.0139C5.63355 21.6806 4.67077 20.4028 3.73633 19.1806C2.81038 17.9584 2.0164 16.6898 1.35437 15.375C0.692342 14.0602 0.361328 12.4256 0.361328 10.4711C0.361328 7.63851 1.34113 5.24075 3.30075 3.2778C5.26036 1.31483 7.66018 0.333344 10.5002 0.333344C13.3402 0.333344 15.7401 1.31315 17.6997 3.27276C19.6593 5.2324 20.6391 7.63222 20.6391 10.4722C20.6391 12.4259 20.3116 14.0587 19.6565 15.3706C19.0014 16.6825 18.204 17.9525 17.2641 19.1806C16.3382 20.4028 15.3775 21.6806 14.3822 23.0139C13.3868 24.3473 12.5617 26.0161 11.9071 28.0203C11.7932 28.3309 11.6113 28.581 11.3613 28.7708C11.1113 28.9607 10.8243 29.0556 10.5002 29.0556ZM10.506 13.3194C11.2892 13.3194 11.9585 13.0397 12.5141 12.4803C13.0696 11.9209 13.3474 11.2496 13.3474 10.4665C13.3474 9.68328 13.0677 9.0139 12.5083 8.45834C11.9489 7.90282 11.2776 7.62505 10.4944 7.62505C9.71124 7.62505 9.04188 7.90475 8.48633 8.46414C7.93077 9.02355 7.65299 9.69484 7.65299 10.478C7.65299 11.2612 7.9327 11.9306 8.49212 12.4861C9.05154 13.0417 9.72283 13.3194 10.506 13.3194Z" fill="#5FB157"/>
</svg>
