<svg width="19" height="19" viewBox="0 0 19 19" fill="none" xmlns="http://www.w3.org/2000/svg">
<path d="M9.05954 18.1191C4.06574 18.1191 0 14.0533 0 9.05954C0 4.06574 4.06574 0 9.05954 0C14.0533 0 18.1191 4.06574 18.1191 9.05954C18.1191 14.0533 14.0533 18.1191 9.05954 18.1191ZM9.05954 1.32579C4.79051 1.32579 1.32579 4.79935 1.32579 9.05954C1.32579 13.3197 4.79051 16.7933 9.05954 16.7933C13.3286 16.7933 16.7933 13.3197 16.7933 9.05954C16.7933 4.79935 13.3286 1.32579 9.05954 1.32579Z" fill="#5FB157"/>
<path d="M18.3388 19.0029C18.1709 19.0029 18.0029 18.941 17.8704 18.8085L16.1026 17.0407C15.8463 16.7844 15.8463 16.3602 16.1026 16.1039C16.359 15.8475 16.7832 15.8475 17.0395 16.1039L18.8072 17.8716C19.0636 18.1279 19.0636 18.5521 18.8072 18.8085C18.6747 18.941 18.5067 19.0029 18.3388 19.0029Z" fill="#5FB157"/>
</svg>
