<svg width="202" height="92" viewBox="0 0 202 92" fill="none" xmlns="http://www.w3.org/2000/svg">
<path d="M1.49841 23C0.157697 24.33 -0.125532 25.926 0.0444183 28.5101C4.12322 28.7191 6.48361 29.3081 9.99591 31.0181C9.99591 29.1181 10.5624 27.8451 12.2053 25.546C8.6363 23.836 5.57723 23.266 1.51731 23H1.49841Z" fill="#5FB157"/>
<path d="M93.3787 54.3215C92.5478 51.6994 92.6422 49.8754 94.4739 47.1583C90.905 46.7023 88.469 47.2533 84.0881 48.5264C82.7285 50.7114 82.7285 52.1744 83.616 54.9675C87.3927 53.9035 90.1685 53.4094 93.3976 54.3405L93.3787 54.3215Z" fill="#5FB157"/>
<path d="M201.859 47.8381C200.933 46.888 200.367 45.805 200.386 44C196.156 45.216 193.626 46.527 190 48.6741C190.321 51.2201 191.095 52.5311 191.737 53.4241C195.004 50.3081 197.648 49.1681 201.859 47.8381Z" fill="#5FB157"/>
<path d="M165.015 2.16604C162.635 2.92605 159.954 2.69804 154.534 0C153.779 2.52704 153.798 4.92108 154.761 8.05613C159.066 9.50015 161.748 9.99416 166.129 9.46215C164.882 7.06811 164.788 5.37709 165.015 2.16604Z" fill="#5FB157"/>
<path d="M117 85.1391C118.548 86.8682 119.53 88.6922 120.437 91.3712C124.534 87.1912 127.499 84.6261 131.314 82.3461C131.106 79.2871 130.218 77.805 128.67 76C125.8 77.539 121.494 80.8641 117.019 85.1391H117Z" fill="#5FB157"/>
</svg>
