<svg width="135" height="96" viewBox="0 0 135 96" fill="none" xmlns="http://www.w3.org/2000/svg">
<path d="M71.0615 3.80006C69.8152 3.47705 68.7011 2.66004 67.0583 0C66.0386 0.893014 65.4154 1.95703 65 3.59106C66.4918 5.39608 67.5304 6.3461 69.5886 7.29611C69.6831 5.90909 70.0985 5.14908 71.0615 3.80006Z" fill="#5FB157"/>
<path d="M123.498 27C122.158 28.33 121.874 29.926 122.044 32.5101C126.123 32.7191 128.484 33.3081 131.996 35.0181C131.996 33.1181 132.562 31.8451 134.205 29.546C130.636 27.836 127.577 27.266 123.517 27H123.498Z" fill="#5FB157"/>
<path d="M51 63.5592C53.6248 64.1672 55.1165 64.1862 57.6469 62.7802C57.6091 58.2771 57.9113 55.5791 58.7799 51.247C57.1937 51.494 56.0229 51.323 55.0788 51C54.2479 55.9971 53.096 58.9611 51 63.5592Z" fill="#5FB157"/>
<path d="M0 16.7311C3.19128 18.2511 4.90967 19.4101 7.44003 21.9372C8.68633 20.7021 9.53609 19.4291 9.81933 17.8331C8.28979 15.9711 5.92937 14.147 2.53037 12C2.32266 14.565 1.79392 15.8571 0 16.7501V16.7311Z" fill="#5FB157"/>
<path d="M15.6132 91.477C13.7816 89.862 11.6477 88.266 8.85301 88C7.19128 89.178 5.98275 89.881 4 90.603C5.60508 91.4391 6.05828 92.6171 6.20934 95.2011C8.77748 93.4531 11.6666 92.6171 15.5943 91.4961L15.6132 91.477Z" fill="#5FB157"/>
</svg>
