<svg width="199" height="61" viewBox="0 0 199 61" fill="none" xmlns="http://www.w3.org/2000/svg">
<g clip-path="url(#clip0_1_1378)">
<path d="M14.5447 60.4521H6.28038V37.4044H0V30.2231H20.8192V37.4044H14.5388V60.4521H14.5447Z" fill="#5A5239"/>
<path d="M32.5051 60.9998C28.9012 60.9998 26.0545 59.7757 23.9591 57.3276C22.0222 55.0368 21.0596 52.064 21.0596 48.4093C21.0596 44.9877 22.1572 42.044 24.3582 39.5726C26.665 36.9962 29.5117 35.7021 32.9043 35.7021C35.4223 35.7021 37.7642 36.6872 39.9359 38.6633V36.1743H47.2493V60.4053H39.8185V58.0387C37.8346 60.0089 35.3929 60.9998 32.5051 60.9998ZM40.1766 48.4909C40.1766 46.783 39.6425 45.3549 38.5683 44.2066C37.4942 43.0641 36.0973 42.4871 34.3775 42.4871C32.6577 42.4871 31.2901 43.035 30.2043 44.125C29.1184 45.215 28.5725 46.6023 28.5725 48.2869C28.5725 49.9714 29.0597 51.3937 30.0458 52.5478C31.1023 53.7836 32.4699 54.4014 34.1368 54.4014C35.8038 54.4014 37.2946 53.8419 38.4509 52.7227C39.6014 51.6035 40.1824 50.1929 40.1824 48.4792L40.1766 48.4909Z" fill="#5A5239"/>
<path d="M58.2139 30.1821V60.4111H50.8242V30.1821H58.2139Z" fill="#5A5239"/>
<path d="M73.2748 60.9998C69.354 60.9998 66.2608 59.869 63.9951 57.6074C61.7295 55.3458 60.5967 52.2564 60.5967 48.3335C60.5967 44.7021 61.7647 41.6943 64.0949 39.2986C66.4251 36.9029 69.4186 35.708 73.0753 35.708C76.9433 35.708 79.9485 36.9729 82.0967 39.4968C84.0865 41.8925 85.0784 45.046 85.0784 48.9689V50.4319H67.9101C68.227 51.8017 68.8962 52.851 69.9175 53.5912C70.9388 54.3315 72.1772 54.6987 73.6329 54.6987C75.4348 54.6987 77.1957 53.5796 78.9154 51.3471L84.6793 54.6987C83.5406 56.7214 81.9558 58.2835 79.9309 59.3736C77.9059 60.4636 75.6872 61.0115 73.2748 61.0115V60.9998ZM77.4481 45.2966C76.6028 43.0059 75.1179 41.8634 72.999 41.8634C70.7216 41.8634 69.1192 43.0059 68.1918 45.2966H77.4481Z" fill="#5A5239"/>
<path d="M95.051 46.5615V60.4111H87.5791V36.1802H94.9688V39.3394C96.7708 36.9204 99.142 35.708 102.083 35.708C104.466 35.708 106.508 36.4483 108.205 37.9172C109.977 39.4735 110.869 41.4146 110.869 43.7578V60.4111H103.239V46.206C103.239 43.6004 101.965 42.3006 99.4238 42.3006C98.2323 42.3006 97.2051 42.7144 96.3423 43.5421C95.4795 44.3698 95.051 45.3782 95.051 46.5615Z" fill="#5A5239"/>
<path d="M126.717 60.4521H118.452V37.4044H112.172V30.2231H132.991V37.4044H126.711V60.4521H126.717Z" fill="#5FB157"/>
<path d="M149.092 43.2798C148.405 42.965 147.542 42.8076 146.509 42.8076C143.434 42.8076 141.902 44.9527 141.902 49.237V60.4053H134.43V36.1743H141.62V40.0039C142.019 38.8206 142.77 37.8064 143.885 36.967C145.001 36.1277 146.175 35.7021 147.425 35.7021H149.092V43.2798Z" fill="#5FB157"/>
<path d="M161.529 60.9998C157.608 60.9998 154.515 59.869 152.249 57.6074C149.983 55.3458 148.851 52.2564 148.851 48.3335C148.851 44.7021 150.019 41.6943 152.349 39.2986C154.679 36.9029 157.672 35.708 161.329 35.708C165.197 35.708 168.202 36.9729 170.351 39.4968C172.34 41.8925 173.332 45.046 173.332 48.9689V50.4319H156.164C156.481 51.8017 157.15 52.851 158.171 53.5912C159.193 54.3315 160.431 54.6987 161.887 54.6987C163.689 54.6987 165.45 53.5796 167.169 51.3471L172.933 54.6987C171.795 56.7214 170.21 58.2835 168.185 59.3736C166.16 60.4636 163.941 61.0115 161.529 61.0115V60.9998ZM165.702 45.2966C164.857 43.0059 163.372 41.8634 161.253 41.8634C158.976 41.8634 157.373 43.0059 156.446 45.2966H165.702Z" fill="#5FB157"/>
<path d="M187.197 60.9998C183.276 60.9998 180.183 59.869 177.917 57.6074C175.651 55.3458 174.519 52.2564 174.519 48.3335C174.519 44.7021 175.687 41.6943 178.017 39.2986C180.347 36.9029 183.34 35.708 186.997 35.708C190.865 35.708 193.87 36.9729 196.019 39.4968C198.008 41.8925 199 45.046 199 48.9689V50.4319H181.832C182.149 51.8017 182.818 52.851 183.839 53.5912C184.861 54.3315 186.099 54.6987 187.555 54.6987C189.357 54.6987 191.118 53.5796 192.837 51.3471L198.601 54.6987C197.462 56.7214 195.878 58.2835 193.853 59.3736C191.828 60.4636 189.609 61.0115 187.197 61.0115V60.9998ZM191.37 45.2966C190.525 43.0059 189.04 41.8634 186.921 41.8634C184.643 41.8634 183.041 43.0059 182.114 45.2966H191.37Z" fill="#5FB157"/>
<path d="M55.9955 25.9508C55.9955 25.9508 78.9042 21.7306 74.7604 2.22112C74.2497 -0.366931 74.4728 -0.0288519 73.4984 0.0702403C52.0923 1.64406 55.9955 25.9508 55.9955 25.9508Z" fill="#5DB056"/>
<path d="M54.8861 25.8745C54.8861 25.8745 41.486 23.2923 44.0099 11.885C44.3209 10.3695 44.1859 10.5677 44.7612 10.6318C57.2926 11.6577 54.8861 25.8745 54.8861 25.8745Z" fill="#99C351"/>
</g>
<defs>
<clipPath id="clip0_1_1378">
<rect width="199" height="61" fill="white"/>
</clipPath>
</defs>
</svg>
