<svg width="261" height="81" viewBox="0 0 261 81" fill="none" xmlns="http://www.w3.org/2000/svg">
<g clip-path="url(#clip0_41_492)">
<path d="M19.7974 79.5412H9.02848V49.3147H0.844727V39.8967H27.9735V49.3147H19.7897V79.5412H19.7974Z" fill="white"/>
<path d="M43.2014 80.2598C38.5053 80.2598 34.7959 78.6544 32.0654 75.4437C29.5414 72.4394 28.2871 68.5407 28.2871 63.7476C28.2871 59.2603 29.7174 55.3998 32.5855 52.1585C35.5913 48.7796 39.3008 47.0825 43.7215 47.0825C47.0027 47.0825 50.0544 48.3744 52.8843 50.9659V47.7017H62.4141V79.48H52.7313V76.3764C50.1461 78.9602 46.9644 80.2598 43.2014 80.2598ZM53.1978 63.8546C53.1978 61.6148 52.5018 59.7419 51.1022 58.2359C49.7025 56.7376 47.8822 55.9808 45.6413 55.9808C43.4003 55.9808 41.6182 56.6993 40.2033 58.1289C38.7883 59.5584 38.077 61.3778 38.077 63.5871C38.077 65.7963 38.7118 67.6616 39.9968 69.1752C41.3735 70.7959 43.1555 71.6062 45.3277 71.6062C47.4998 71.6062 49.4425 70.8723 50.9492 69.4045C52.4483 67.9368 53.2055 66.0868 53.2055 63.8393L53.1978 63.8546Z" fill="white"/>
<path d="M76.7016 39.8431V79.4877H67.0723V39.8431H76.7016Z" fill="white"/>
<path d="M96.3271 80.2598C91.218 80.2598 87.1873 78.7767 84.235 75.8106C81.2828 72.8446 79.8066 68.793 79.8066 63.6482C79.8066 58.8857 81.3287 54.9411 84.3651 51.7992C87.4015 48.6573 91.3021 47.0901 96.0671 47.0901C101.107 47.0901 105.023 48.749 107.823 52.0591C110.415 55.201 111.708 59.3367 111.708 64.4815V66.4002H89.3365C89.7495 68.1967 90.6214 69.5727 91.9523 70.5436C93.2831 71.5144 94.8969 71.996 96.7937 71.996C99.1417 71.996 101.436 70.5283 103.677 67.6004L111.188 71.996C109.704 74.6487 107.639 76.6974 105 78.1269C102.362 79.5565 99.4706 80.2751 96.3271 80.2751V80.2598ZM101.765 59.6654C100.664 56.6611 98.7287 55.1628 95.9676 55.1628C93.0001 55.1628 90.9121 56.6611 89.7036 59.6654H101.765Z" fill="white"/>
<path d="M124.702 61.3243V79.4877H114.966V47.7094H124.595V51.8527C126.943 48.6802 130.033 47.0901 133.865 47.0901C136.97 47.0901 139.632 48.061 141.842 49.9874C144.152 52.0285 145.315 54.5741 145.315 57.6472V79.4877H135.372V60.8579C135.372 57.4408 133.712 55.7361 130.4 55.7361C128.848 55.7361 127.509 56.2789 126.385 57.3644C125.261 58.4499 124.702 59.7724 124.702 61.3243Z" fill="white"/>
<path d="M165.965 79.5412H155.196V49.3147H147.013V39.8967H174.141V49.3147H165.958V79.5412H165.965Z" fill="#5FB157"/>
<path d="M195.121 57.0204C194.226 56.6076 193.102 56.4012 191.756 56.4012C187.748 56.4012 185.752 59.2144 185.752 64.8331V79.48H176.016V47.7017H185.385V52.7242C185.905 51.1723 186.884 49.8422 188.337 48.7414C189.79 47.6406 191.32 47.0825 192.949 47.0825H195.121V57.0204Z" fill="#5FB157"/>
<path d="M211.328 80.2598C206.219 80.2598 202.188 78.7767 199.236 75.8106C196.284 72.8446 194.808 68.793 194.808 63.6482C194.808 58.8857 196.33 54.9411 199.366 51.7992C202.402 48.6573 206.303 47.0901 211.068 47.0901C216.108 47.0901 220.024 48.749 222.824 52.0591C225.416 55.201 226.709 59.3367 226.709 64.4815V66.4002H204.337C204.75 68.1967 205.622 69.5727 206.953 70.5436C208.284 71.5144 209.898 71.996 211.795 71.996C214.143 71.996 216.437 70.5283 218.678 67.6004L226.189 71.996C224.705 74.6487 222.64 76.6974 220.001 78.1269C217.363 79.5565 214.472 80.2751 211.328 80.2751V80.2598ZM216.766 59.6654C215.665 56.6611 213.73 55.1628 210.969 55.1628C208.001 55.1628 205.913 56.6611 204.705 59.6654H216.766Z" fill="#5FB157"/>
<path d="M244.774 80.2598C239.665 80.2598 235.635 78.7767 232.682 75.8106C229.73 72.8446 228.254 68.793 228.254 63.6482C228.254 58.8857 229.776 54.9411 232.812 51.7992C235.849 48.6573 239.749 47.0901 244.514 47.0901C249.555 47.0901 253.471 48.749 256.27 52.0591C258.863 55.201 260.155 59.3367 260.155 64.4815V66.4002H237.784C238.197 68.1967 239.069 69.5727 240.4 70.5436C241.73 71.5144 243.344 71.996 245.241 71.996C247.589 71.996 249.884 70.5283 252.124 67.6004L259.635 71.996C258.151 74.6487 256.086 76.6974 253.448 78.1269C250.809 79.5565 247.918 80.2751 244.774 80.2751V80.2598ZM250.212 59.6654C249.111 56.6611 247.176 55.1628 244.415 55.1628C241.447 55.1628 239.359 56.6611 238.151 59.6654H250.212Z" fill="#5FB157"/>
<path d="M73.8105 34.2932C73.8105 34.2932 103.662 28.7586 98.2623 3.17235C97.5969 -0.221822 97.8875 0.221561 96.6179 0.351518C68.7243 2.41554 73.8105 34.2932 73.8105 34.2932Z" fill="#5DB056"/>
<path d="M72.3651 34.1938C72.3651 34.1938 54.9039 30.8073 58.1927 15.847C58.5981 13.8594 58.4221 14.1193 59.1717 14.2034C75.5009 15.5488 72.3651 34.1938 72.3651 34.1938Z" fill="#99C351"/>
</g>
<defs>
<clipPath id="clip0_41_492">
<rect width="259.31" height="80" fill="white" transform="translate(0.844727 0.259766)"/>
</clipPath>
</defs>
</svg>
