<svg width="35" height="28" viewBox="0 0 35 28" fill="none" xmlns="http://www.w3.org/2000/svg">
<path d="M3.61125 27.3333C2.86125 27.3333 2.21079 27.0579 1.65987 26.5069C1.10895 25.956 0.833496 25.3056 0.833496 24.5556V3.44441C0.833496 2.69441 1.10895 2.04395 1.65987 1.49303C2.21079 0.942115 2.86125 0.666656 3.61125 0.666656H31.3891C32.1391 0.666656 32.7895 0.942115 33.3405 1.49303C33.8914 2.04395 34.1668 2.69441 34.1668 3.44441V24.5556C34.1668 25.3056 33.8914 25.956 33.3405 26.5069C32.7895 27.0579 32.1391 27.3333 31.3891 27.3333H3.61125ZM31.3891 6.08328L18.2363 14.5694C18.1159 14.6342 17.9978 14.6875 17.8821 14.7292C17.7664 14.7708 17.6391 14.7917 17.5002 14.7917C17.3613 14.7917 17.234 14.7708 17.1182 14.7292C17.0025 14.6875 16.8844 14.6342 16.764 14.5694L3.61125 6.08328V24.5556H31.3891V6.08328ZM17.5002 12.2778L31.278 3.44441H3.75016L17.5002 12.2778ZM3.61125 6.41662V4.50503V4.53928V3.44441V4.52774V4.49545V6.41662Z" fill="#5FB157"/>
</svg>
