<svg width="33" height="32" viewBox="0 0 33 32" fill="none" xmlns="http://www.w3.org/2000/svg">
<mask id="mask0_16_914" style="mask-type:alpha" maskUnits="userSpaceOnUse" x="0" y="0" width="33" height="32">
<rect x="0.5" width="32" height="32" fill="#D9D9D9"/>
</mask>
<g mask="url(#mask0_16_914)">
<path d="M12.9256 14.3471H14.5478C14.868 14.3471 15.1364 14.2389 15.3529 14.0223C15.5695 13.8057 15.6777 13.5374 15.6777 13.2172V11.595C15.6777 11.2749 15.5695 11.0065 15.3529 10.7899C15.1364 10.5734 14.868 10.4651 14.5478 10.4651H12.3677C12.2191 10.4651 12.0866 10.5195 11.9702 10.6283C11.8539 10.7372 11.7957 10.8724 11.7957 11.0339V16.4946C11.7957 16.6561 11.8533 16.7913 11.9685 16.9001C12.0837 17.009 12.2182 17.0634 12.3718 17.0634C12.5313 17.0634 12.6635 17.0058 12.7683 16.8906C12.8732 16.7753 12.9256 16.6409 12.9256 16.4873V14.3471ZM12.9256 13.2172V11.595H14.5478V13.2172H12.9256ZM19.7786 17.0634C20.0946 17.0634 20.3619 16.9539 20.5805 16.7349C20.7992 16.5159 20.9085 16.2488 20.9085 15.9335V11.595C20.9085 11.2749 20.7992 11.0065 20.5805 10.7899C20.3619 10.5734 20.0946 10.4651 19.7786 10.4651H17.672C17.5234 10.4651 17.3909 10.5195 17.2745 10.6283C17.1582 10.7372 17.1 10.8721 17.1 11.0332V16.4816C17.1 16.6427 17.1576 16.7799 17.2728 16.8933C17.388 17.0067 17.5224 17.0634 17.676 17.0634H19.7786ZM18.2299 15.9335V11.595H19.7786V15.9335H18.2299ZM23.6743 14.3471H24.8726C25.0322 14.3471 25.1644 14.2895 25.2692 14.1743C25.3741 14.0591 25.4265 13.9247 25.4265 13.7711C25.4265 13.6115 25.3741 13.4793 25.2692 13.3745C25.1644 13.2697 25.0322 13.2172 24.8726 13.2172H23.6743V11.595H24.8726C25.0322 11.595 25.1644 11.5368 25.2692 11.4205C25.3741 11.3041 25.4265 11.1717 25.4265 11.0232C25.4265 10.8688 25.3741 10.7372 25.2692 10.6283C25.1644 10.5195 25.0322 10.4651 24.8726 10.4651H23.1205C22.9669 10.4651 22.8325 10.5195 22.7172 10.6283C22.602 10.7372 22.5444 10.8724 22.5444 11.0339V16.4946C22.5444 16.6561 22.602 16.7913 22.7172 16.9001C22.8325 17.009 22.9669 17.0634 23.1205 17.0634C23.28 17.0634 23.4122 17.0058 23.5171 16.8906C23.6219 16.7753 23.6743 16.6409 23.6743 16.4873V14.3471ZM10.2692 23.983C9.69618 23.983 9.20534 23.7787 8.79671 23.3701C8.38809 22.9615 8.18378 22.4706 8.18378 21.8975V5.41896C8.18378 4.8459 8.38809 4.35505 8.79671 3.94643C9.20534 3.53781 9.69618 3.3335 10.2692 3.3335H26.7478C27.3209 3.3335 27.8117 3.53781 28.2203 3.94643C28.629 4.35505 28.8333 4.8459 28.8333 5.41896V21.8975C28.8333 22.4706 28.629 22.9615 28.2203 23.3701C27.8117 23.7787 27.3209 23.983 26.7478 23.983H10.2692ZM10.2692 22.3078H26.7478C26.8504 22.3078 26.9444 22.2651 27.0299 22.1796C27.1154 22.0941 27.1581 22.0001 27.1581 21.8975V5.41896C27.1581 5.31639 27.1154 5.22236 27.0299 5.1369C26.9444 5.05141 26.8504 5.00866 26.7478 5.00866H10.2692C10.1667 5.00866 10.0726 5.05141 9.98718 5.1369C9.90169 5.22236 9.85895 5.31639 9.85895 5.41896V21.8975C9.85895 22.0001 9.90169 22.0941 9.98718 22.1796C10.0726 22.2651 10.1667 22.3078 10.2692 22.3078ZM6.25221 28C5.67913 28 5.18828 27.7957 4.77968 27.3871C4.37106 26.9785 4.16675 26.4877 4.16675 25.9146V8.59843C4.16675 8.36112 4.24745 8.1622 4.40885 8.00166C4.57025 7.84111 4.77025 7.76083 5.00885 7.76083C5.24743 7.76083 5.44591 7.84111 5.60431 8.00166C5.76271 8.1622 5.84192 8.36112 5.84192 8.59843V25.9146C5.84192 26.0172 5.88466 26.1112 5.97015 26.1967C6.05561 26.2821 6.14964 26.3249 6.25221 26.3249H23.5683C23.8057 26.3249 24.0046 26.4056 24.1651 26.567C24.3257 26.7284 24.4059 26.9284 24.4059 27.167C24.4059 27.4055 24.3257 27.604 24.1651 27.7624C24.0046 27.9208 23.8057 28 23.5683 28H6.25221Z" fill="black"/>
</g>
</svg>
