<svg width="60" height="60" viewBox="0 0 60 60" fill="none" xmlns="http://www.w3.org/2000/svg">
<mask id="mask0_1_1450" style="mask-type:alpha" maskUnits="userSpaceOnUse" x="0" y="0" width="60" height="60">
<rect width="60" height="60" fill="#D9D9D9"/>
</mask>
<g mask="url(#mask0_1_1450)">
<path d="M27.3125 28.9375L23.3125 24.9375C22.9375 24.5625 22.5 24.3854 22 24.4062C21.5 24.4271 21.0625 24.625 20.6875 25C20.3125 25.375 20.125 25.8125 20.125 26.3125C20.125 26.8125 20.3125 27.25 20.6875 27.625L26 32.9375C26.375 33.3125 26.8125 33.5 27.3125 33.5C27.8125 33.5 28.25 33.3125 28.625 32.9375L40 22.3125C40 21.8542 39.9583 21.3854 39.875 20.9062C39.7917 20.4271 39.5833 20.0208 39.25 19.6875C38.875 19.3125 38.4271 19.125 37.9062 19.125C37.3854 19.125 36.9375 19.3125 36.5625 19.6875L27.3125 28.9375ZM8.75 45C7.75 45 6.875 44.625 6.125 43.875C5.375 43.125 5 42.25 5 41.25V11.25C5 10.25 5.375 9.375 6.125 8.625C6.875 7.875 7.75 7.5 8.75 7.5H51.25C52.25 7.5 53.125 7.875 53.875 8.625C54.625 9.375 55 10.25 55 11.25V41.25C55 42.25 54.625 43.125 53.875 43.875C53.125 44.625 52.25 45 51.25 45H8.75Z" fill="#5FB157"/>
<path d="M2.5 52.5V48.75H55.625C56.1667 48.75 56.6146 48.9271 56.9688 49.2812C57.3229 49.6354 57.5 50.0833 57.5 50.625C57.5 51.1667 57.3229 51.6146 56.9688 51.9688C56.6146 52.3229 56.1667 52.5 55.625 52.5H2.5Z" fill="#1649B7"/>
</g>
</svg>
