<svg width="60" height="60" viewBox="0 0 60 60" fill="none" xmlns="http://www.w3.org/2000/svg">
<mask id="mask0_1_1458" style="mask-type:alpha" maskUnits="userSpaceOnUse" x="0" y="0" width="60" height="60">
<rect width="60" height="60" fill="#D9D9D9"/>
</mask>
<g mask="url(#mask0_1_1458)">
<path d="M14.375 48.75C15.25 48.75 15.9896 48.4479 16.5938 47.8438C17.1979 47.2396 17.5 46.5 17.5 45.625C17.5 44.75 17.1979 44.0104 16.5938 43.4062C15.9896 42.8021 15.25 42.5 14.375 42.5C13.5 42.5 12.7604 42.8021 12.1562 43.4062C11.5521 44.0104 11.25 44.75 11.25 45.625C11.25 46.5 11.5521 47.2396 12.1562 47.8438C12.7604 48.4479 13.5 48.75 14.375 48.75ZM14.375 52.5C12.4583 52.5 10.8333 51.8333 9.5 50.5C8.16667 49.1667 7.5 47.5417 7.5 45.625C7.5 43.7083 8.16667 42.0833 9.5 40.75C10.8333 39.4167 12.4583 38.75 14.375 38.75C15.9583 38.75 17.3542 39.2188 18.5625 40.1562C19.7708 41.0938 20.5833 42.3125 21 43.8125C23 43.7292 24.6875 42.9583 26.0625 41.5C27.4375 40.0417 28.125 38.3125 28.125 36.3125V25C28.125 21.7083 29.2812 18.9062 31.5938 16.5938C33.9062 14.2812 36.7083 13.125 40 13.125H45.25L42 9.875C41.625 9.5 41.4479 9.0625 41.4688 8.5625C41.4896 8.0625 41.6875 7.625 42.0625 7.25C42.4375 6.875 42.875 6.6875 43.375 6.6875C43.875 6.6875 44.3125 6.875 44.6875 7.25L51.1875 13.6875C51.5625 14.0625 51.75 14.5 51.75 15C51.75 15.5 51.5625 15.9375 51.1875 16.3125L44.6875 22.8125C44.3125 23.1875 43.875 23.375 43.375 23.375C42.875 23.375 42.4375 23.1875 42.0625 22.8125C41.6875 22.4375 41.4896 21.9896 41.4688 21.4688C41.4479 20.9479 41.625 20.5 42 20.125L45.25 16.875H40C37.75 16.875 35.8333 17.6667 34.25 19.25C32.6667 20.8333 31.875 22.75 31.875 25V36.3125C31.875 39.3542 30.8229 41.9688 28.7188 44.1562C26.6146 46.3438 24.0417 47.4792 21 47.5625C20.5417 49.0208 19.7083 50.2083 18.5 51.125C17.2917 52.0417 15.9167 52.5 14.375 52.5Z" fill="#5FB157"/>
<path d="M45.9375 48.5627L43.25 51.1877C42.875 51.521 42.4375 51.6981 41.9375 51.7189C41.4375 51.7398 41 51.5627 40.625 51.1877C40.25 50.8127 40.0729 50.3752 40.0938 49.8752C40.1146 49.3752 40.2917 48.9377 40.625 48.5627L43.25 45.8752L40.625 43.2502C40.25 42.8752 40.0625 42.4377 40.0625 41.9377C40.0625 41.4377 40.25 41.0002 40.625 40.6252C41 40.2502 41.4375 40.0627 41.9375 40.0627C42.4375 40.0627 42.875 40.2502 43.25 40.6252L45.9375 43.2502L48.5625 40.6252C48.9375 40.2502 49.375 40.0523 49.875 40.0314C50.375 40.0106 50.8125 40.1877 51.1875 40.5627C51.5625 40.9377 51.75 41.3856 51.75 41.9064C51.75 42.4273 51.5625 42.8752 51.1875 43.2502L48.5625 45.8752L51.1875 48.5627C51.5625 48.9377 51.75 49.3752 51.75 49.8752C51.75 50.3752 51.5625 50.8127 51.1875 51.1877C50.8125 51.5627 50.375 51.7502 49.875 51.7502C49.375 51.7502 48.9375 51.5627 48.5625 51.1877L45.9375 48.5627ZM14.125 16.8127L11.4375 19.4377C11.0625 19.771 10.625 19.9481 10.125 19.9689C9.625 19.9898 9.1875 19.8127 8.8125 19.4377C8.4375 19.0627 8.26042 18.6252 8.28125 18.1252C8.30208 17.6252 8.47917 17.1877 8.8125 16.8127L11.4375 14.1252L8.8125 11.5002C8.4375 11.1252 8.25 10.6877 8.25 10.1877C8.25 9.68768 8.4375 9.25018 8.8125 8.87518C9.1875 8.50018 9.625 8.31268 10.125 8.31268C10.625 8.31268 11.0625 8.50018 11.4375 8.87518L14.125 11.5002L16.75 8.87518C17.125 8.50018 17.5625 8.30226 18.0625 8.28143C18.5625 8.2606 19 8.43768 19.375 8.81268C19.75 9.18768 19.9375 9.6356 19.9375 10.1564C19.9375 10.6773 19.75 11.1252 19.375 11.5002L16.75 14.1252L19.375 16.8127C19.75 17.1877 19.9375 17.6252 19.9375 18.1252C19.9375 18.6252 19.75 19.0627 19.375 19.4377C19 19.8127 18.5625 20.0002 18.0625 20.0002C17.5625 20.0002 17.125 19.8127 16.75 19.4377L14.125 16.8127Z" fill="#1649B7"/>
</g>
</svg>
